<?xml version="1.0" encoding="utf-8"?>
<!-- Generator: Adobe Illustrator 19.0.0, SVG Export Plug-In . SVG Version: 6.00 Build 0)  -->
<svg version="1.1" id="Layer_1" xmlns="http://www.w3.org/2000/svg" xmlns:xlink="http://www.w3.org/1999/xlink" x="0px" y="0px"
	 viewBox="0 0 280 260" enable-background="new 0 0 280 260" xml:space="preserve">
<circle id="XMLID_70_" cx="165" cy="90" r="10"/>
<circle id="XMLID_69_" cx="115" cy="90" r="10"/>
<polygon id="XMLID_55_" fill="#EFC319" points="140,0 140,0 140,0 "/>
<path id="XMLID_44_" d="M270.7,227.3l-81.4-32.6c-5.1-2-10.2-8.1-11.2-13.5l-2.4-11.8l0,0c1.7-1.2,3.4-2.4,5-3.8
	c0.5-0.4,0.9-0.7,1.4-1.1c0.6-0.5,1.2-1,1.7-1.5c0.5-0.5,1-0.9,1.5-1.4c0.5-0.5,1.1-1,1.6-1.5c0.5-0.5,1.1-1.1,1.6-1.6
	c0.5-0.5,1-1,1.5-1.5c0.6-0.6,1.2-1.3,1.7-1.9c0.4-0.5,0.9-1,1.3-1.5c0.6-0.8,1.3-1.6,1.9-2.3c0.3-0.4,0.7-0.8,1-1.3
	c1-1.2,1.9-2.5,2.8-3.8c13.3-18.8,21.2-42.6,21.2-63.5c0-2.8-0.1-5.6-0.4-8.3c-0.8-7.7-2.6-15.1-5.4-22c-0.2-0.6-0.5-1.2-0.7-1.8
	c-0.8-1.9-1.7-3.7-2.6-5.6c-0.7-1.3-1.3-2.6-2.1-3.8c-2.7-4.6-5.8-8.9-9.2-12.9c-1.8-2-3.6-4-5.6-5.8c-0.4-0.4-0.8-0.8-1.3-1.1
	c-2.9-2.6-6-5-9.3-7.2c-1.5-1-3.1-2-4.7-2.9c-1.4-0.8-2.8-1.5-4.2-2.2c-0.4-0.2-0.8-0.4-1.2-0.5c-0.8-0.4-1.6-0.8-2.5-1.1
	c-1.7-0.7-3.5-1.4-5.2-2c-3.1-1.1-6.4-2-9.7-2.7c-3.3-0.7-6.7-1.1-10.1-1.4c-2-0.2-4-0.3-6-0.3l0,0l0,0l0,0h0
	C95.9,1,60,37.6,60,82.5c0,20.9,7.9,44.7,21.2,63.5c0.9,1.3,1.9,2.6,2.8,3.8c0.3,0.4,0.7,0.8,1,1.3c0.6,0.8,1.3,1.6,1.9,2.3
	c0.4,0.5,0.9,1,1.3,1.5c0.6,0.6,1.1,1.3,1.7,1.9c0.5,0.5,1,1,1.5,1.5c0.5,0.6,1.1,1.1,1.6,1.6c0.5,0.5,1.1,1,1.6,1.5
	c0.5,0.5,1,0.9,1.5,1.4c0.6,0.5,1.2,1,1.7,1.5c0.4,0.4,0.9,0.7,1.4,1.1c1.6,1.3,3.3,2.6,5,3.8l0,0l-2.4,11.8
	c-1.1,5.4-6.1,11.5-11.2,13.5L9.3,227.3c-5.1,2-9.3,8.2-9.3,13.7v20h20v0v-16l60-24v40v0h50c5.5,0,14.5,0,20,0h50v0v-40l60,24v16h20
	v-20C280,235.5,275.8,229.3,270.7,227.3z M149.6,159.7c-0.3,0.1-0.5,0.1-0.8,0.2c-0.6,0.1-1.2,0.2-1.7,0.4c-0.3,0.1-0.6,0.1-0.9,0.2
	c-0.1,0-0.2,0-0.3,0c-0.8,0.1-1.6,0.2-2.4,0.3c-0.2,0-0.5,0-0.7,0.1c-0.9,0.1-1.8,0.1-2.7,0.1s-1.8,0-2.7-0.1c-0.2,0-0.5,0-0.7-0.1
	c-0.8-0.1-1.6-0.2-2.4-0.3c-0.1,0-0.2,0-0.3,0c-0.3,0-0.6-0.1-0.9-0.2c-0.6-0.1-1.2-0.2-1.7-0.4c-0.3-0.1-0.5-0.1-0.8-0.2
	c-0.4-0.1-0.8-0.2-1.1-0.3c-0.3-0.1-0.6-0.2-0.9-0.3c-0.2-0.1-0.4-0.1-0.6-0.2c-0.8-0.3-1.6-0.6-2.4-0.9c-0.3-0.1-0.6-0.2-0.9-0.4
	c-0.6-0.2-1.2-0.5-1.7-0.8c-0.3-0.1-0.5-0.3-0.8-0.4c-0.7-0.4-1.5-0.8-2.2-1.2c-0.3-0.2-0.7-0.4-1-0.6c-0.5-0.3-0.9-0.6-1.4-0.9
	c-0.3-0.2-0.7-0.4-1-0.6c-0.4-0.3-0.8-0.6-1.2-0.9c-0.2-0.2-0.5-0.3-0.7-0.5c-0.4-0.3-0.7-0.5-1.1-0.8c-0.4-0.3-0.8-0.6-1.1-0.9
	c-0.4-0.3-0.7-0.6-1.1-0.9c0,0,0,0,0,0c-1.1-0.9-2.1-1.9-3.2-2.9c-0.1-0.1-0.3-0.3-0.4-0.4c-2.1-2-4.1-4.3-6.1-6.6
	c-0.1-0.1-0.1-0.2-0.2-0.3c-0.9-1.1-1.7-2.2-2.6-3.3c-0.1-0.2-0.2-0.3-0.4-0.5c-1.8-2.5-3.5-5-5-7.7c-0.1-0.2-0.2-0.4-0.3-0.6
	c-0.7-1.2-1.3-2.3-1.9-3.5c-0.1-0.2-0.2-0.4-0.3-0.6c-0.7-1.4-1.4-2.8-2-4.2c0,0,0,0,0,0c-0.6-1.3-1.2-2.7-1.7-4
	c-0.1-0.3-0.3-0.6-0.4-0.9c-0.5-1.2-0.9-2.3-1.3-3.5c-0.1-0.2-0.2-0.5-0.3-0.7c-0.5-1.4-0.9-2.8-1.3-4.2c-0.1-0.2-0.1-0.5-0.2-0.7
	c-0.3-1.1-0.6-2.3-0.9-3.4c-0.1-0.4-0.2-0.8-0.3-1.1c-0.3-1.2-0.5-2.4-0.8-3.6c0-0.2-0.1-0.4-0.1-0.6c-0.2-1.4-0.5-2.7-0.6-4.1
	c0-0.4-0.1-0.7-0.1-1.1c-0.1-1-0.2-2.1-0.3-3.1c0-0.4-0.1-0.8-0.1-1.2c0-0.2,0-0.3,0-0.5C88.3,85.9,95,79.2,95,71
	c0-6.4-4-11.8-9.6-14c9.5-21.2,30.3-36,54.6-36c17.9,0,33.9,8,44.9,20.7c3.4,4,6.4,8.4,8.7,13.2c0.1,0.1,0.1,0.3,0.2,0.4
	c0.3,0.5,0.5,1.1,0.8,1.7c-5.6,2.2-9.6,7.6-9.6,14c0,8.2,6.7,14.9,14.9,15c0,0.2,0,0.3,0,0.5c0,0.4-0.1,0.8-0.1,1.2
	c-0.1,1-0.2,2.1-0.3,3.1c0,0.4-0.1,0.7-0.1,1.1c-0.2,1.4-0.4,2.7-0.6,4.1c0,0.2-0.1,0.4-0.1,0.6c-0.2,1.2-0.5,2.4-0.8,3.6
	c-0.1,0.4-0.2,0.8-0.3,1.1c-0.3,1.1-0.6,2.3-0.9,3.4c-0.1,0.2-0.1,0.5-0.2,0.7c-0.4,1.4-0.9,2.8-1.3,4.2c-0.1,0.2-0.2,0.5-0.3,0.7
	c-0.4,1.2-0.9,2.4-1.3,3.5c-0.1,0.3-0.3,0.6-0.4,0.9c-0.6,1.4-1.1,2.7-1.7,4c0,0,0,0,0,0c-0.6,1.4-1.3,2.8-2,4.2
	c-0.1,0.2-0.2,0.4-0.3,0.6c-0.6,1.2-1.3,2.4-1.9,3.5c-0.1,0.2-0.2,0.4-0.3,0.6c-1.6,2.7-3.2,5.2-5,7.7c-0.1,0.2-0.2,0.3-0.4,0.5
	c-0.8,1.1-1.7,2.2-2.6,3.3c-0.1,0.1-0.1,0.2-0.2,0.3c-1.9,2.3-3.9,4.5-6.1,6.6c-0.1,0.1-0.3,0.3-0.4,0.4c-1,1-2.1,1.9-3.2,2.9
	c0,0,0,0,0,0c-0.4,0.3-0.7,0.6-1.1,0.9c-0.4,0.3-0.8,0.6-1.1,0.9c-0.4,0.3-0.7,0.6-1.1,0.8c-0.2,0.2-0.5,0.3-0.7,0.5
	c-0.4,0.3-0.8,0.6-1.2,0.9c-0.3,0.2-0.7,0.4-1,0.6c-0.5,0.3-0.9,0.6-1.4,0.9c-0.3,0.2-0.7,0.4-1,0.6c-0.7,0.4-1.5,0.8-2.2,1.2
	c-0.3,0.1-0.5,0.3-0.8,0.4c-0.6,0.3-1.2,0.5-1.7,0.8c-0.3,0.1-0.6,0.2-0.9,0.4c-0.8,0.3-1.6,0.6-2.4,0.9c-0.2,0.1-0.4,0.1-0.6,0.2
	c-0.3,0.1-0.6,0.2-0.9,0.3C150.3,159.5,150,159.6,149.6,159.7z M140,211c-12.3,0-21-5.3-26.2-9.7c3.8-4.8,6.6-10.4,7.8-16.1l1.3-6.7
	c2.7,0.8,5.5,1.5,8.3,1.9c0.1,0,0.1,0,0.2,0c1.3,0.2,2.5,0.3,3.8,0.4c0.2,0,0.4,0,0.5,0.1c1.4,0.1,2.8,0.2,4.3,0.2s2.9-0.1,4.3-0.2
	c0.2,0,0.4,0,0.5-0.1c1.3-0.1,2.5-0.2,3.8-0.4c0.1,0,0.1,0,0.2,0c2.8-0.4,5.6-1.1,8.3-1.9l1.3,6.7c1.1,5.7,3.9,11.3,7.8,16.1
	C161,205.7,152.3,211,140,211z"/>
</svg>
