<?xml version="1.0" encoding="utf-8"?>
<!-- Generator: Adobe Illustrator 19.0.0, SVG Export Plug-In . SVG Version: 6.00 Build 0)  -->
<svg version="1.1" id="Layer_1" xmlns="http://www.w3.org/2000/svg" xmlns:xlink="http://www.w3.org/1999/xlink" x="0px" y="0px"
	 viewBox="0 0 280 260" enable-background="new 0 0 280 260" xml:space="preserve">
<polygon id="XMLID_177_" fill="none" points="150.7,194 150.7,194 151.6,198.3 "/>
<path id="XMLID_176_" fill="none" d="M179,143.1c1.5,1.9,3.8,3.1,6.4,3.1c4.5,0,8.1-3.6,8.1-8.1s-3.6-8.1-8.1-8.1
	c-0.7,0-1.4,0.1-2,0.3c1.2-5,1.9-10,2-14.8c0-1.7-0.1-3.4-0.3-5c-9.9-6.9-25.2-13-48.4-13s-38.6,6.1-48.4,13c-0.2,1.6-0.3,3.3-0.3,5
	c0,4.8,0.7,9.8,2,14.8c-0.6-0.2-1.3-0.3-2-0.3c-4.5,0-8.1,3.6-8.1,8.1s3.6,8.1,8.1,8.1c2.6,0,4.9-1.2,6.4-3.1
	c2.4,5.5,5.4,10.7,8.9,15.4c2.6,3.4,5.5,6.5,8.7,9.1c7.3,6.1,15.8,10,24.8,10c9.1,0,17.6-3.8,24.8-10c3.1-2.7,6.1-5.7,8.7-9.1
	C173.6,153.8,176.6,148.6,179,143.1z"/>
<path id="XMLID_172_" d="M242.8,233.6l-66.2-26.5c-4.1-1.7-8.3-6.6-9.1-11l-1-4.9c39.2-12.6,67.6-49.4,67.6-92.8
	c0-53.8-43.7-97.5-97.5-97.5S39.1,44.7,39.1,98.5c0,43.4,28.4,80.2,67.6,92.8l-1,4.9c-0.9,4.4-5,9.3-9.1,11l-66.2,26.5
	c-4.1,1.7-7.5,6.7-7.5,11.1v8.1v8.1H31h97.5c4.5,0,11.8,0,16.2,0h24.4h16.2h56.9h8.1v-8.1v-8.1C250.4,240.3,247,235.3,242.8,233.6z
	 M136.6,244.8L109.9,218c5.9-4.7,10.4-11.5,11.8-18.6l0.9-4.4c4.6,0.7,9.3,1,14.1,1s9.5-0.4,14.1-1l0.9,4.4
	c1.4,7.1,5.9,14,11.8,18.6L136.6,244.8z M161.5,168.6c-7.3,6.1-15.8,10-24.8,10c-9.1,0-17.6-3.8-24.8-10c-3.1-2.7-6.1-5.7-8.7-9.1
	c-3.5-4.7-6.5-9.9-8.9-15.4c-1.5,1.9-3.8,3.1-6.4,3.1c-4.5,0-8.1-3.6-8.1-8.1s3.6-8.1,8.1-8.1c0.7,0,1.4,0.1,2,0.3
	c-1.2-5-1.9-10-2-14.8c0-1.7,0.1-3.4,0.3-5c9.9-6.9,25.2-13,48.4-13s38.6,6.1,48.4,13c0.2,1.6,0.3,3.3,0.3,5c0,4.8-0.7,9.8-2,14.8
	c0.6-0.2,1.3-0.3,2-0.3c4.5,0,8.1,3.6,8.1,8.1s-3.6,8.1-8.1,8.1c-2.6,0-4.9-1.2-6.4-3.1c-2.4,5.5-5.4,10.7-8.9,15.4
	C167.5,162.9,164.6,166,161.5,168.6z"/>
<circle id="XMLID_171_" fill="#231F20" cx="157" cy="122.9" r="8.1"/>
<circle id="XMLID_63_" fill="#231F20" cx="116.3" cy="122.9" r="8.1"/>
</svg>
