<?xml version="1.0" encoding="utf-8"?>
<!-- Generator: Adobe Illustrator 19.0.0, SVG Export Plug-In . SVG Version: 6.00 Build 0)  -->
<svg version="1.1" id="Layer_1" xmlns="http://www.w3.org/2000/svg" xmlns:xlink="http://www.w3.org/1999/xlink" x="0px" y="0px"
	 viewBox="0 0 280 260" enable-background="new 0 0 280 260" xml:space="preserve">
<circle id="XMLID_170_" cx="116.5" cy="100.2" r="9.4"/>
<circle id="XMLID_169_" cx="163.5" cy="100.2" r="9.4"/>
<path id="XMLID_59_" d="M262.9,229.3l-76.5-30.6c-4.8-1.9-9.6-7.6-10.6-12.7l-2.2-11.1c7.9-5.4,15.2-12.8,21.7-21.9
	c12.5-17.7,20-40,20-59.7c0-3.7-0.3-7.3-0.8-10.8h10.2c5.2,0,9.4-4.2,9.4-9.4s-4.2-9.4-9.4-9.4h-14.1L181.8,6.2
	c-2.3-4.6-8-6.5-12.6-4.2l-20.8,10.4c-4.6,2.3-12.2,2.3-16.8,0L110.8,2c-4.6-2.3-10.3-0.4-12.6,4.2L69.5,63.6H55.4
	c-5.2,0-9.4,4.2-9.4,9.4s4.2,9.4,9.4,9.4h10.2c-0.5,3.5-0.8,7.2-0.8,10.8c0,19.7,7.5,42,20,59.7c6.5,9.1,13.8,16.5,21.7,21.9
	l-2.2,11.1c-1,5.1-5.8,10.8-10.6,12.7l-76.5,30.6c-4.8,1.9-8.7,7.7-8.7,12.9v9.4v9.4h9.4h84.6v-18.8v-26.8c0.1,0,0.2-0.1,0.3-0.1
	l27.3,13.6l-4,32.1h28.2l-4-32.1l27.3-13.6c0.1,0,0.2,0.1,0.3,0.1v26.8V261h84.6h9.4v-9.4v-9.4C271.6,237,267.7,231.2,262.9,229.3z
	 M101.7,144.3c-11.2-14-18.1-32.9-18.1-49.9c0-0.2,0-0.4,0-0.6s0-0.3,0-0.5c0-3.7,0.4-7.3,1-10.8h110.8c0.7,3.5,1,7.1,1,10.8
	c0,0.2,0,0.3,0,0.5s0,0.4,0,0.6c0,17-7,35.8-18.1,49.9c-2.9,3.8-9.5,10-9.6,9.9c-8.4,7.1-18.2,11.5-28.7,11.5s-20.3-4.4-28.7-11.5
	C111.2,154.3,104.6,148,101.7,144.3z M162.4,201.7L140,212.9l-22.4-11.2c2.4-3.7,4.2-7.9,5-12l1.3-6.3c5.2,1.6,10.6,2.4,16.1,2.4
	s10.8-0.8,16.1-2.4l1.3,6.3C158.2,193.8,159.9,198,162.4,201.7z"/>
</svg>
