<?xml version="1.0" encoding="utf-8"?>
<!-- Generator: Adobe Illustrator 19.0.0, SVG Export Plug-In . SVG Version: 6.00 Build 0)  -->
<svg version="1.1" id="Layer_1" xmlns="http://www.w3.org/2000/svg" xmlns:xlink="http://www.w3.org/1999/xlink" x="0px" y="0px"
	 viewBox="0 0 280 260" enable-background="new 0 0 280 260" xml:space="preserve">
<circle id="XMLID_72_" cx="115.1" cy="90" r="10"/>
<circle id="XMLID_71_" cx="165.1" cy="90" r="10"/>
<path id="XMLID_48_" d="M270.7,227.3c-3.7-1.5-7.4-3-11.1-4.4c-8.4-3.3-16.7-6.7-25.1-10c-9-3.6-18.1-7.2-27.1-10.8
	c-5.6-2.3-11.2-4.5-16.9-6.8c-3-1.2-5.6-2.8-7.8-5.3c-2.3-2.5-4-5.5-4.7-8.9c-0.4-2-0.8-4.1-1.3-6.1c-0.2-0.9-0.4-1.3,0-2.1
	c0.5-0.9,1-1.8,1.4-2.8c0.2-0.5,0.4-1.1,0.6-1.6c0.2-0.5,0.2-1.3,0.5-1.7c0.2-0.4,0.9-0.7,1.3-1c0.3-0.3,0.7-0.6,1-0.8
	c0.9-0.7,1.7-1.4,2.5-2.2c1.6-1.4,3.2-2.9,4.6-4.5c6.2-6.4,11.5-13.6,15.9-21.3c8.4-14.6,13.9-31.2,15.1-48
	c1-14.2-1.5-28.5-7.6-41.4c-5.7-12.1-14.3-22.7-25-30.7c-10.8-8.1-23.6-13.3-37-15C146.8,1.2,143.4,1,140,1l0,0
	c-17.6,0-34.8,6-48.6,16.8C77.8,28.5,67.8,43.4,63.1,60c-5.4,19.3-3.1,39.7,3.7,58.3c3.8,10.5,9.1,20.4,15.7,29.4
	c3.4,4.6,7.2,9.1,11.4,13.1c1.9,1.8,3.9,3.6,6,5.2c0.2,0.2,0.6,0.4,0.8,0.6c0.2,0.2,0.5,3.2,2.8,6.7c0.1,0.2-0.1,0.7-0.2,0.9
	c-0.1,0.7-0.3,1.5-0.4,2.2c-0.3,1.4-0.6,2.7-0.8,4.1c-0.8,4.1-3.1,7.8-6.2,10.7c-2.5,2.3-5.2,3.4-8.2,4.6c-9,3.6-18.1,7.2-27.1,10.9
	c-11.5,4.6-23.1,9.2-34.6,13.8c-4.1,1.6-8.1,3.3-12.2,4.9c-1.8,0.7-3.7,1.3-5.4,2.2c-4.1,2.1-7.3,6.5-8.1,11.1
	c-0.5,2.5-0.2,5.3-0.2,7.9C0,251.2,0,261,0,261H280l0-15.9c0,0,0.2-5.4-0.6-7.9C278.1,232.9,274.9,228.9,270.7,227.3z M140,211
	c-6,0-12-1.3-17.4-3.9c-2.1-1-4.1-2.2-6.1-3.6c-0.7-0.5-2-1.2-2.5-1.9c0-0.1-0.2-0.1-0.2-0.2c0-0.1,0.4-0.5,0.4-0.6
	c0.3-0.3,0.5-0.7,0.7-1c0.5-0.7,0.9-1.3,1.4-2c2-3.2,3.6-6.6,4.6-10.2c12,4.7,26,4.7,38,0c0.9,3.2,2.2,6.2,3.9,9
	c0.9,1.5,1.8,2.9,2.9,4.2c0.3,0.4,0.4,0.4,0.2,0.8c-0.1,0.2-0.4,0.3-0.5,0.5c-0.4,0.3-0.8,0.6-1.2,0.9c-4,3.1-8.6,5.4-13.5,6.7
	C147.3,210.5,143.6,211,140,211z M134.9,151.4c5.7-0.8,11.7-0.4,17.1,1.7c2.1,0.9,4.2,2,5.9,3.6c-5.6,2.8-11.8,4.1-18.1,4.1
	c-3,0-6.2-0.4-9.1-1.1c-1.5-0.4-2.9-0.8-4.4-1.4c-1.3-0.5-2.6-0.9-3.9-1.6C125.6,153.7,130.5,152,134.9,151.4z M173.9,144.8
	c-6.1-7.3-15.3-11.4-24.5-13c-10.3-1.8-21.5-0.6-31,3.9c-4.6,2.2-8.8,5.2-12.1,9.1c-8-8-14.2-17.9-18.6-28.2
	c-4.3-10.2-7.4-21-7.7-32c-0.1-3.4,0-6.8,0.5-10.1c0.5-3.4,1.4-6.7,2.1-10.1c15.8,3.8,32.2,5.1,48.3,2.9
	c13.3-1.9,26.4-6.3,37.9-13.2c5.8-3.5,11.2-7.7,16-12.4c4.9,5.9,8.9,12.3,11.5,19.6c2.6,7.5,3.8,15.3,3.6,23.2
	c-0.4,14.5-5.4,28.8-12.3,41.5c-1.9,3.5-4,6.8-6.3,10.1c-1.1,1.6-2.3,3.1-3.5,4.6C176.6,141.9,175.3,143.4,173.9,144.8z"/>
</svg>
