<?xml version="1.0" encoding="utf-8"?>
<!-- Generator: Adobe Illustrator 19.0.0, SVG Export Plug-In . SVG Version: 6.00 Build 0)  -->
<svg version="1.1" id="Layer_1" xmlns="http://www.w3.org/2000/svg" xmlns:xlink="http://www.w3.org/1999/xlink" x="0px" y="0px"
	 viewBox="0 0 280 260" enable-background="new 0 0 280 260" xml:space="preserve">
<circle id="XMLID_185_" cx="115" cy="90" r="10"/>
<circle id="XMLID_184_" cx="165" cy="90" r="10"/>
<path id="XMLID_180_" d="M270.7,227.3l-81.4-32.6c-5.1-2-10.2-8.1-11.2-13.5l-0.8-4c29.3-6.4,42.8-18.7,42.8-18.7s0-58.3,0-78.4
	C220,36.4,184.2,1,140,1S60,36.4,60,80.1c0,20.1,0,78.4,0,78.4s13.5,12.3,42.8,18.7l-0.8,4c-1.1,5.4-6.1,11.5-11.2,13.5L9.3,227.3
	c-5.1,2-9.3,8.2-9.3,13.7v10v10h10h90v-20v-25.3c7.8,7,21.1,15.3,40,15.3s32.2-8.3,40-15.3V241v20h90h10v-10v-10
	C280,235.5,275.8,229.3,270.7,227.3z M140,211c-12.3,0-21-5.3-26.2-9.7c3.8-4.8,6.6-10.4,7.8-16.1l1-4.9c5.4,0.5,11.2,0.8,17.4,0.8
	s12-0.3,17.4-0.8l1,4.9c1.1,5.7,3.9,11.3,7.8,16.1C161,205.7,152.3,211,140,211z M140,161c-33.1,0-60-44.5-60-78.5
	c0-15.7,5.7-30,15.1-40.8c21.2,20.9,57.1,33.7,102.3,22.8c1.7,5.7,2.6,11.7,2.6,18C200,116.5,173.1,161,140,161z"/>
</svg>
