<?xml version="1.0" encoding="utf-8"?>
<!-- Generator: Adobe Illustrator 19.0.0, SVG Export Plug-In . SVG Version: 6.00 Build 0)  -->
<svg version="1.1" id="Layer_1" xmlns="http://www.w3.org/2000/svg" xmlns:xlink="http://www.w3.org/1999/xlink" x="0px" y="0px"
	 viewBox="-349 101 300 300" style="enable-background:new -349 101 300 300;" xml:space="preserve">
<style type="text/css">
	.st0{fill:#F5D871;}
	.st1{fill:#F4D247;}
	.st2{opacity:0.1;fill:#363738;enable-background:new    ;}
	.st3{fill:#76B0D8;}
	.st4{fill:#2E78A8;}
	.st5{fill:#3390CA;}
	.st6{fill:#388AC0;}
	.st7{opacity:0.7;fill:#363738;enable-background:new    ;}
	.st8{fill:#3583B4;}
	.st9{fill:#52A1D4;}
	.st10{fill:#CCDCEE;}
	.st11{fill:#ADC8E5;}
	.st12{opacity:0.5;}
	.st13{fill:#363738;}
</style>
<g id="Cootie_Catcher">
	<circle class="st0" cx="-199" cy="251" r="100"/>
	<path class="st1" d="M-289.2,207.7l97.7-56.4c-2.5-0.2-5-0.3-7.5-0.3c-0.6,0-1.2,0-1.8,0l-83.9,48.5
		C-286.3,202.1-287.8,204.9-289.2,207.7z"/>
	<path class="st1" d="M-298.9,246l145.5-84c-1.8-0.9-3.5-1.8-5.4-2.6l-139.6,80.7C-298.6,242.1-298.8,244-298.9,246z"/>
	<path class="st1" d="M-295.6,276.9l167.3-96.6c-1.2-1.2-2.4-2.4-3.7-3.5l-164.8,95.1C-296.4,273.6-296.1,275.2-295.6,276.9z"/>
	<path class="st1" d="M-284.4,303.1l173.2-100c-0.8-1.4-1.6-2.8-2.4-4.2l-173.2,100C-286,300.3-285.2,301.7-284.4,303.1z"/>
	<path class="st1" d="M-266,325.2l164.8-95.1c-0.4-1.7-0.8-3.3-1.2-5l-167.3,96.6C-268.5,322.9-267.3,324.1-266,325.2z"/>
	<path class="st1" d="M-239.3,342.5l139.7-80.7c0.2-2,0.4-3.9,0.5-5.9l-145.5,84C-242.9,340.9-241.1,341.7-239.3,342.5z"/>
	<path class="st1" d="M-108.8,294.3l-97.7,56.4c2.5,0.2,5,0.3,7.5,0.3c0.6,0,1.2,0,1.8,0l83.9-48.4
		C-111.7,299.9-110.2,297.1-108.8,294.3z"/>
	<polygon class="st2" points="-134,196 -194,202.7 -254,196 -247.3,256 -254,316 -194,309.3 -134,316 -140.7,256 	"/>
	<polygon class="st3" points="-199,251 -199,304.3 -192.3,257.7 -145.7,251 	"/>
	<polygon class="st4" points="-205.7,244.3 -252.3,251 -199,251 -199,197.7 	"/>
	<g>
		<polygon class="st5" points="-199,304.3 -199,251 -205.7,257.7 		"/>
		<polygon class="st5" points="-192.3,244.3 -199,251 -145.7,251 		"/>
	</g>
	<g>
		<polygon class="st6" points="-199,197.7 -199,251 -192.3,244.3 		"/>
		<polygon class="st6" points="-205.7,257.7 -199,251 -252.3,251 		"/>
	</g>
	<polygon class="st7" points="-192.3,244.3 -199,197.7 -205.7,244.3 -252.3,251 -205.7,257.7 -199,304.3 -192.3,257.7 -145.7,251 	
		"/>
	<polygon class="st8" points="-145.7,251 -192.3,257.7 -199,304.3 -139,311 	"/>
	<polygon class="st9" points="-259,191 -252.3,251 -205.7,244.3 -199,197.7 	"/>
	<g>
		<polygon class="st5" points="-199,197.7 -192.3,244.3 -145.7,251 -139,191 		"/>
		<polygon class="st5" points="-252.3,251 -259,311 -199,304.3 -205.7,257.7 		"/>
	</g>
	<path class="st10" d="M-241.8,217.3l8.9-8.9l1.8,1.8l-3.6,3.6l8.2,8.2v-4.2h2.4v6.7l-1.8,1.8l-10.7-10.7l-3.5,3.5L-241.8,217.3z"/>
	<path class="st10" d="M-173.7,225.7c-1.1-1.1-2-2.2-2.7-3.4c-0.7-1.2-1.2-2.3-1.5-3.4s-0.3-2.1-0.2-3.1c0.2-1,0.6-1.8,1.2-2.4
		c0.4-0.4,0.9-0.8,1.5-1s1.2-0.3,1.8-0.3c0.7,0,1.4,0.1,2.1,0.2c0.7,0.2,1.5,0.4,2.2,0.8l8.9,4l-8-8l-1.8,1.8l-1.8-1.8l3.5-3.5
		l14.6,14.6l-1.8,1.8l-14.8-6.5c-0.9-0.4-1.8-0.6-2.6-0.7c-0.8,0-1.5,0.2-1.9,0.7c-0.4,0.4-0.6,0.9-0.7,1.5c-0.1,0.6,0,1.3,0.2,2.1
		s0.6,1.6,1.1,2.4c0.5,0.9,1.2,1.7,2.1,2.5c1.1,1.1,2.2,2,3.3,2.8c1.1,0.8,2.1,1.4,3,1.8l1.4-1.4l1.8,1.8l-2.6,2.6
		c-0.8-0.2-1.6-0.6-2.5-1.1c-0.8-0.4-1.7-1-2.7-1.8C-171.3,227.9-172.4,226.9-173.7,225.7z"/>
	<path class="st11" d="M-157.1,278.3c0.8,0.8,1.1,1.6,1.2,2.5c0,0.9-0.2,1.9-0.7,2.9s-1.1,2-2,3.1c-0.9,1-1.8,2.1-2.7,3
		c-1.4,1.4-2.8,2.6-4.3,3.6c-1.4,1-2.7,1.6-3.9,2l-2.6-2.6l1.8-1.8l1.5,1.5c0.9-0.5,1.9-1,2.9-1.8c1-0.7,2-1.6,3-2.6
		c0.6-0.6,1.2-1.2,1.8-2c0.6-0.7,1.2-1.5,1.7-2.2s0.8-1.4,0.9-2.1c0.1-0.7,0-1.2-0.5-1.7c-0.3-0.3-0.7-0.5-1.1-0.6
		c-0.4-0.1-0.9,0-1.3,0.1c-0.4,0.1-0.9,0.3-1.3,0.5c-0.4,0.2-0.7,0.5-1,0.7s-0.6,0.5-1,0.9s-0.8,0.8-1.3,1.2
		c-0.4,0.4-0.9,0.9-1.3,1.3c-0.4,0.5-0.8,0.9-1.2,1.2l-1.7-1.7c0.3-0.3,0.7-0.7,1.1-1.2c0.4-0.4,0.8-0.9,1.2-1.3s0.8-0.9,1.1-1.3
		c0.4-0.4,0.6-0.7,0.8-1c1.5-1.9,1.7-3.3,0.7-4.4c-0.3-0.3-0.6-0.4-1.1-0.4s-1,0.1-1.7,0.4c-0.6,0.3-1.4,0.7-2.2,1.3
		s-1.7,1.3-2.6,2.3c-1,1-1.8,2-2.6,3c-0.7,1-1.3,2-1.8,2.9l1.5,1.5l-1.8,1.8l-2.7-2.7c0.4-1.2,1.1-2.5,2-3.9c1-1.4,2.1-2.8,3.6-4.3
		c0.6-0.6,1.2-1.1,1.8-1.7c0.6-0.5,1.3-1,2-1.5c0.7-0.4,1.3-0.8,2-1.1c0.7-0.3,1.3-0.5,2-0.6c0.6-0.1,1.3-0.1,1.8,0.1
		c0.6,0.2,1.1,0.5,1.6,1c0.3,0.3,0.6,0.7,0.8,1.1c0.2,0.4,0.3,0.8,0.3,1.2s0,0.8,0,1.2c-0.1,0.4-0.2,0.8-0.3,1.2
		c0.5-0.2,1-0.3,1.5-0.4s1-0.1,1.4-0.1c0.5,0.1,0.9,0.2,1.4,0.4C-157.9,277.6-157.5,277.9-157.1,278.3z"/>
	<path class="st10" d="M-231.4,292.5l3.6,3.6l-1.8,1.8l-8.9-8.9l1.8-1.8l3.6,3.6l1.8-1.8l-10.2-10.2l0.7-2.8h16.6v2.4h-14.2l8.8,8.8
		l7.1-7.1l1.8,1.8l-7.1,7.1l3.6,3.6l-1.8,1.8l-3.6-3.6L-231.4,292.5z"/>
	<g class="st12">
		<polygon class="st13" points="-259,311 -199,304.3 -205.7,257.7 		"/>
		<polygon class="st13" points="-192.3,244.3 -145.7,251 -139,191 		"/>
	</g>
</g>
</svg>
