<?xml version="1.0" encoding="utf-8"?>
<!-- Generator: Adobe Illustrator 19.0.0, SVG Export Plug-In . SVG Version: 6.00 Build 0)  -->
<svg version="1.1" id="Layer_1" xmlns="http://www.w3.org/2000/svg" xmlns:xlink="http://www.w3.org/1999/xlink" x="0px" y="0px"
	 viewBox="-349 101 300 300" style="enable-background:new -349 101 300 300;" xml:space="preserve">
<style type="text/css">
	.st0{fill:#37B98D;}
	.st1{fill:#78C8AB;}
	.st2{opacity:0.1;fill:#363738;enable-background:new    ;}
	.st3{opacity:0.1;}
	.st4{fill:#363738;}
	.st5{fill:#FFFFFF;}
	.st6{fill:#FACBA5;}
	.st7{fill:#FBE0CA;}
	.st8{opacity:0.3;fill:#AF6429;enable-background:new    ;}
	.st9{opacity:0.5;fill:#AF6429;enable-background:new    ;}
	.st10{opacity:0.5;fill:#F0C419;enable-background:new    ;}
	.st11{fill:#F09C57;}
	.st12{fill:#167051;}
	.st13{fill:#189169;}
</style>
<g id="Fortune_Cookie">
	<circle class="st0" cx="-199" cy="251" r="100"/>
	<circle class="st1" cx="-199" cy="251" r="1.5"/>
	<circle class="st1" cx="-188.4" cy="261.6" r="1.5"/>
	<circle class="st1" cx="-177.8" cy="272.2" r="1.5"/>
	<circle class="st1" cx="-167.2" cy="282.8" r="1.5"/>
	<circle class="st1" cx="-156.6" cy="293.4" r="1.5"/>
	<circle class="st1" cx="-146" cy="304" r="1.5"/>
	<circle class="st1" cx="-135.4" cy="314.6" r="1.5"/>
	<circle class="st1" cx="-209.6" cy="240.4" r="1.5"/>
	<circle class="st1" cx="-220.2" cy="229.8" r="1.5"/>
	<circle class="st1" cx="-230.8" cy="219.2" r="1.5"/>
	<circle class="st1" cx="-241.4" cy="208.6" r="1.5"/>
	<circle class="st1" cx="-252" cy="198" r="1.5"/>
	<circle class="st1" cx="-262.6" cy="187.4" r="1.5"/>
	<circle class="st1" cx="-188.4" cy="240.4" r="1.5"/>
	<circle class="st1" cx="-177.8" cy="251" r="1.5"/>
	<circle class="st1" cx="-167.2" cy="261.6" r="1.5"/>
	<circle class="st1" cx="-156.6" cy="272.2" r="1.5"/>
	<circle class="st1" cx="-146" cy="282.8" r="1.5"/>
	<circle class="st1" cx="-135.4" cy="293.4" r="1.5"/>
	<circle class="st1" cx="-124.8" cy="304" r="1.5"/>
	<circle class="st1" cx="-199" cy="229.8" r="1.5"/>
	<circle class="st1" cx="-209.6" cy="219.2" r="1.5"/>
	<circle class="st1" cx="-220.2" cy="208.6" r="1.5"/>
	<circle class="st1" cx="-230.8" cy="198" r="1.5"/>
	<circle class="st1" cx="-241.4" cy="187.4" r="1.5"/>
	<circle class="st1" cx="-252" cy="176.8" r="1.5"/>
	<circle class="st1" cx="-177.8" cy="229.8" r="1.5"/>
	<circle class="st1" cx="-167.2" cy="240.4" r="1.5"/>
	<circle class="st1" cx="-156.6" cy="251" r="1.5"/>
	<circle class="st1" cx="-146" cy="261.6" r="1.5"/>
	<circle class="st1" cx="-135.4" cy="272.2" r="1.5"/>
	<circle class="st1" cx="-124.8" cy="282.8" r="1.5"/>
	<circle class="st1" cx="-114.1" cy="293.4" r="1.5"/>
	<circle class="st1" cx="-188.4" cy="219.2" r="1.5"/>
	<circle class="st1" cx="-199" cy="208.6" r="1.5"/>
	<circle class="st1" cx="-209.6" cy="198" r="1.5"/>
	<circle class="st1" cx="-220.2" cy="187.4" r="1.5"/>
	<circle class="st1" cx="-230.8" cy="176.8" r="1.5"/>
	<circle class="st1" cx="-241.4" cy="166.1" r="1.5"/>
	<circle class="st1" cx="-167.2" cy="219.2" r="1.5"/>
	<circle class="st1" cx="-156.6" cy="229.8" r="1.5"/>
	<circle class="st1" cx="-146" cy="240.4" r="1.5"/>
	<circle class="st1" cx="-135.4" cy="251" r="1.5"/>
	<circle class="st1" cx="-124.8" cy="261.6" r="1.5"/>
	<circle class="st1" cx="-114.1" cy="272.2" r="1.5"/>
	<circle class="st1" cx="-177.8" cy="208.6" r="1.5"/>
	<circle class="st1" cx="-188.4" cy="198" r="1.5"/>
	<circle class="st1" cx="-199" cy="187.4" r="1.5"/>
	<circle class="st1" cx="-209.6" cy="176.8" r="1.5"/>
	<circle class="st1" cx="-220.2" cy="166.1" r="1.5"/>
	<circle class="st1" cx="-156.6" cy="208.6" r="1.5"/>
	<circle class="st1" cx="-146" cy="219.2" r="1.5"/>
	<circle class="st1" cx="-135.4" cy="229.8" r="1.5"/>
	<circle class="st1" cx="-124.8" cy="240.4" r="1.5"/>
	<circle class="st1" cx="-114.1" cy="251" r="1.5"/>
	<circle class="st1" cx="-103.5" cy="261.6" r="1.5"/>
	<circle class="st1" cx="-167.2" cy="198" r="1.5"/>
	<circle class="st1" cx="-177.8" cy="187.4" r="1.5"/>
	<circle class="st1" cx="-188.4" cy="176.8" r="1.5"/>
	<circle class="st1" cx="-199" cy="166.1" r="1.5"/>
	<circle class="st1" cx="-209.6" cy="155.5" r="1.5"/>
	<circle class="st1" cx="-146" cy="198" r="1.5"/>
	<circle class="st1" cx="-135.4" cy="208.6" r="1.5"/>
	<circle class="st1" cx="-124.8" cy="219.2" r="1.5"/>
	<circle class="st1" cx="-114.1" cy="229.8" r="1.5"/>
	<circle class="st1" cx="-103.5" cy="240.4" r="1.5"/>
	<circle class="st1" cx="-156.6" cy="187.4" r="1.5"/>
	<circle class="st1" cx="-167.2" cy="176.8" r="1.5"/>
	<circle class="st1" cx="-177.8" cy="166.1" r="1.5"/>
	<circle class="st1" cx="-188.4" cy="155.5" r="1.5"/>
	<circle class="st1" cx="-135.4" cy="187.4" r="1.5"/>
	<circle class="st1" cx="-124.8" cy="198" r="1.5"/>
	<circle class="st1" cx="-114.1" cy="208.6" r="1.5"/>
	<circle class="st1" cx="-146" cy="176.8" r="1.5"/>
	<circle class="st1" cx="-156.6" cy="166.1" r="1.5"/>
	<circle class="st1" cx="-209.6" cy="261.6" r="1.5"/>
	<circle class="st1" cx="-199" cy="272.2" r="1.5"/>
	<circle class="st1" cx="-188.4" cy="282.8" r="1.5"/>
	<circle class="st1" cx="-177.8" cy="293.4" r="1.5"/>
	<circle class="st1" cx="-167.2" cy="304" r="1.5"/>
	<circle class="st1" cx="-156.6" cy="314.6" r="1.5"/>
	<circle class="st1" cx="-146" cy="325.2" r="1.5"/>
	<circle class="st1" cx="-220.2" cy="251" r="1.5"/>
	<circle class="st1" cx="-230.8" cy="240.4" r="1.5"/>
	<circle class="st1" cx="-241.4" cy="229.8" r="1.5"/>
	<circle class="st1" cx="-252" cy="219.2" r="1.5"/>
	<circle class="st1" cx="-262.6" cy="208.6" r="1.5"/>
	<circle class="st1" cx="-273.2" cy="198" r="1.5"/>
	<circle class="st1" cx="-220.2" cy="272.2" r="1.5"/>
	<circle class="st1" cx="-209.6" cy="282.8" r="1.5"/>
	<circle class="st1" cx="-199" cy="293.4" r="1.5"/>
	<circle class="st1" cx="-188.4" cy="304" r="1.5"/>
	<circle class="st1" cx="-177.8" cy="314.6" r="1.5"/>
	<circle class="st1" cx="-167.2" cy="325.2" r="1.5"/>
	<circle class="st1" cx="-156.6" cy="335.9" r="1.5"/>
	<circle class="st1" cx="-230.8" cy="261.6" r="1.5"/>
	<circle class="st1" cx="-241.4" cy="251" r="1.5"/>
	<circle class="st1" cx="-252" cy="240.4" r="1.5"/>
	<circle class="st1" cx="-262.6" cy="229.8" r="1.5"/>
	<circle class="st1" cx="-273.2" cy="219.2" r="1.5"/>
	<circle class="st1" cx="-283.9" cy="208.6" r="1.5"/>
	<circle class="st1" cx="-230.8" cy="282.8" r="1.5"/>
	<circle class="st1" cx="-220.2" cy="293.4" r="1.5"/>
	<circle class="st1" cx="-209.6" cy="304" r="1.5"/>
	<circle class="st1" cx="-199" cy="314.6" r="1.5"/>
	<circle class="st1" cx="-188.4" cy="325.2" r="1.5"/>
	<circle class="st1" cx="-177.8" cy="335.9" r="1.5"/>
	<circle class="st1" cx="-241.4" cy="272.2" r="1.5"/>
	<circle class="st1" cx="-252" cy="261.6" r="1.5"/>
	<circle class="st1" cx="-262.6" cy="251" r="1.5"/>
	<circle class="st1" cx="-273.2" cy="240.4" r="1.5"/>
	<circle class="st1" cx="-283.9" cy="229.8" r="1.5"/>
	<circle class="st1" cx="-241.4" cy="293.4" r="1.5"/>
	<circle class="st1" cx="-230.8" cy="304" r="1.5"/>
	<circle class="st1" cx="-220.2" cy="314.6" r="1.5"/>
	<circle class="st1" cx="-209.6" cy="325.2" r="1.5"/>
	<circle class="st1" cx="-199" cy="335.9" r="1.5"/>
	<circle class="st1" cx="-188.4" cy="346.5" r="1.5"/>
	<circle class="st1" cx="-252" cy="282.8" r="1.5"/>
	<circle class="st1" cx="-262.6" cy="272.2" r="1.5"/>
	<circle class="st1" cx="-273.2" cy="261.6" r="1.5"/>
	<circle class="st1" cx="-283.9" cy="251" r="1.5"/>
	<circle class="st1" cx="-294.5" cy="240.4" r="1.5"/>
	<circle class="st1" cx="-252" cy="304" r="1.5"/>
	<circle class="st1" cx="-241.4" cy="314.6" r="1.5"/>
	<circle class="st1" cx="-230.8" cy="325.2" r="1.5"/>
	<circle class="st1" cx="-220.2" cy="335.9" r="1.5"/>
	<circle class="st1" cx="-209.6" cy="346.5" r="1.5"/>
	<circle class="st1" cx="-262.6" cy="293.4" r="1.5"/>
	<circle class="st1" cx="-273.2" cy="282.8" r="1.5"/>
	<circle class="st1" cx="-283.9" cy="272.2" r="1.5"/>
	<circle class="st1" cx="-294.5" cy="261.6" r="1.5"/>
	<circle class="st1" cx="-262.6" cy="314.6" r="1.5"/>
	<circle class="st1" cx="-252" cy="325.2" r="1.5"/>
	<circle class="st1" cx="-241.4" cy="335.9" r="1.5"/>
	<circle class="st1" cx="-273.2" cy="304" r="1.5"/>
	<circle class="st1" cx="-283.9" cy="293.4" r="1.5"/>
	<path class="st2" d="M-196.1,178.9l-100.9,52c-1.3,6.5-2,13.2-2,20.1c0,0.3,0,0.5,0,0.8l105-69.4c0.8-0.6,1.1-1.7,0.7-2.6
		C-193.9,178.8-195.1,178.4-196.1,178.9z"/>
	<g>
		<path class="st2" d="M-200.3,306.2C-200.3,306.2-200.2,306.2-200.3,306.2c0.5-0.2,0.9-0.4,1.3-0.6c0.1,0,0.2-0.1,0.3-0.1
			c0.4-0.2,0.9-0.4,1.3-0.7l0,0c0.4-0.2,0.8-0.5,1.2-0.7c0.1-0.1,0.2-0.1,0.3-0.2c0.4-0.3,0.8-0.5,1.2-0.8l0,0
			c0.4-0.3,0.8-0.6,1.2-0.8c0.1-0.1,0.2-0.1,0.2-0.2c0.8-0.6,1.5-1.2,2.2-1.9c0.1-0.1,0.1-0.1,0.2-0.2c0.7-0.7,1.4-1.4,2-2.1
			c0.1-0.1,0.1-0.1,0.2-0.2c0.6-0.7,1.2-1.5,1.7-2.3c0-0.1,0.1-0.1,0.1-0.2c0.3-0.4,0.5-0.8,0.8-1.2l0,0c0.2-0.4,0.5-0.8,0.7-1.2
			c0-0.1,0.1-0.2,0.1-0.2c0.2-0.4,0.4-0.8,0.6-1.3l0,0l0,0c0.6-1.2,1.1-2.5,1.5-3.8l0,0c0.1-0.3,0.2-0.6,0.3-1v-0.1
			c0.1-0.3,0.2-0.6,0.2-0.9c0-0.1,0.1-0.2,0.1-0.3c0.1-0.2,0.1-0.4,0.2-0.7c0.1-0.3,0.1-0.5,0.2-0.8c0-0.1,0-0.1,0-0.2
			c1.9-5.5,2.3-11.6,0.5-17.6c0,0-8.8-4.1-28.2,8.6l-13.7,24.7l13.7-24.7c0.5-23.2-7.6-28.5-7.6-28.5c-6,1.7-11,5.3-14.7,9.8
			c-0.1,0-0.1,0.1-0.2,0.1c-0.2,0.2-0.4,0.4-0.6,0.6c-0.2,0.2-0.3,0.3-0.5,0.5c-0.1,0.1-0.2,0.2-0.2,0.2c-0.2,0.2-0.4,0.4-0.6,0.7
			l-0.1,0.1c-0.2,0.2-0.4,0.5-0.7,0.8l0,0c-0.9,1-1.7,2.1-2.4,3.3l0,0l0,0c-0.3,0.4-0.5,0.8-0.7,1.2c0,0.1-0.1,0.1-0.1,0.2
			c-0.2,0.4-0.4,0.8-0.7,1.2l0,0c-0.2,0.4-0.4,0.9-0.6,1.3c0,0.1-0.1,0.1-0.1,0.2c-0.4,0.9-0.7,1.8-1,2.7c0,0.1,0,0.1-0.1,0.2
			c-0.3,0.9-0.5,1.9-0.7,2.8c0,0.1,0,0.2,0,0.2c-0.2,0.9-0.3,1.9-0.4,2.9c0,0.1,0,0.2,0,0.3c-0.1,1-0.1,1.9-0.1,2.9
			c0,0.1,0,0.2,0,0.3c0,1,0.1,1.9,0.2,2.9c0,0.1,0,0.2,0,0.3c0.1,0.5,0.1,1,0.2,1.4l0,0c0.1,0.5,0.2,1,0.3,1.4
			c0,0.1,0.1,0.2,0.1,0.3c0.1,0.5,0.2,1,0.4,1.4c1.8,6.2,5.4,11.5,10.2,15.2c0.2,0.2,0.4,0.3,0.7,0.5c0.1,0.1,0.2,0.2,0.3,0.2
			c0.1,0.1,0.2,0.1,0.3,0.2l0.1,0.1c0.2,0.1,0.4,0.2,0.6,0.4c0.8,0.5,1.5,1,1.9,1.2c0.1,0.1,0.1,0.1,0.2,0.1c0.1,0,0.1,0.1,0.1,0.1
			l0,0l0,0c0,0,0,0,0.1,0.1l0,0c0.4,0.2,1.3,0.6,2.3,1.1c0.1,0,0.2,0.1,0.2,0.1c0.4,0.2,0.9,0.4,1.3,0.5c0.3,0.1,0.5,0.2,0.7,0.3
			c5.7,2,12,2.3,18.3,0.5c0.5-0.1,0.9-0.3,1.4-0.4c0.1,0,0.2-0.1,0.3-0.1C-201.2,306.6-200.7,306.4-200.3,306.2z M-224.7,301.7
			L-224.7,301.7L-224.7,301.7L-224.7,301.7z"/>
		<g class="st3">
			<path class="st4" d="M-153.6,292.5c-12.9-4.7-25.8-0.3-38.6-5.9c0.7-3.8,1.3-7.6,2-11.4c12.9,4.7,25.8,0.3,38.6,5.9
				C-152.3,284.9-153,288.7-153.6,292.5z"/>
		</g>
		<g>
			<path class="st5" d="M-154.6,290.8c-12.9-4.7-25.8-0.3-38.6-5.9c0.7-3.8,1.3-7.6,2-11.4c12.9,4.7,25.8,0.3,38.6,5.9
				C-153.2,283.2-153.9,287-154.6,290.8z"/>
		</g>
		<path class="st6" d="M-184.3,282.1c-3,8.5-10,15.5-19.3,18.2c-6,1.7-12.1,1.4-17.6-0.5c-1.3-0.4-4.5-2-4.5-2l-3,5.4
			c0,0,3.2,1.6,4.6,2.1c5.7,2,12,2.3,18.3,0.5C-194.2,302.5-186.2,293.1-184.3,282.1z"/>
		<path class="st6" d="M-184.3,282.1c1.9-5.5,2.3-11.6,0.5-17.6c0,0-8.8-4.1-28.2,8.6l-13.7,24.7l0,0c0,0,3.1,1.6,4.5,2
			c5.5,1.9,11.6,2.2,17.6,0.5C-194.2,297.6-187.3,290.7-184.3,282.1z"/>
		<path class="st7" d="M-229.6,295.1c-4.5-3.6-8-8.6-9.7-14.6c-2.7-9.3-0.4-18.9,5.2-26c-8.2,7.5-12,19.2-8.7,30.6
			c1.8,6.2,5.4,11.5,10.2,15.2c1.1,0.9,4.2,2.8,4.2,2.8l3-5.4C-225.6,297.8-228.5,296-229.6,295.1z"/>
		<path class="st7" d="M-211.9,273.1c0.5-23.2-7.6-28.5-7.6-28.5c-6,1.7-11,5.3-14.7,9.8c-5.6,7.1-7.8,16.6-5.2,26
			c1.7,6,5.2,11,9.7,14.6c1.1,0.9,4,2.7,4,2.7l0,0L-211.9,273.1z"/>
		<path class="st8" d="M-186.8,289.9c-3.8,6-9.8,10.8-17.2,12.9c-6.2,1.8-12.6,1.5-18.3-0.5c-1.4-0.4-4.6-2.1-4.6-2.1l0,0l0,0
			c0,0-3.1-1.9-4.2-2.8c-4.7-3.8-8.4-9-10.2-15.2c-2.1-7.4-1.3-15,1.8-21.4c-4.4,7-5.9,15.8-3.5,24.4c1.8,6.2,5.4,11.5,10.2,15.2
			c1.1,0.9,4.2,2.8,4.2,2.8l0,0l0,0l0,0l0,0c0,0,3.2,1.6,4.6,2.1c5.7,2,12,2.3,18.3,0.5C-197,303.3-190.4,297.4-186.8,289.9z"/>
		<path class="st9" d="M-239.4,260.7c-3.1,6.4-3.9,14-1.8,21.4c1.8,6.2,5.4,11.5,10.2,15.2c1.1,0.9,4.2,2.8,4.2,2.8l1.3-2.4
			c0,0-3-1.8-4-2.7c-4.5-3.6-8-8.6-9.7-14.6c-2.7-9.3-0.4-18.9,5.2-26C-236.2,256.3-238,258.5-239.4,260.7z"/>
		<path class="st9" d="M-186.8,289.9c-3.8,6-9.8,10.8-17.2,12.9c-6.2,1.8-12.6,1.5-18.3-0.5c-1.4-0.4-4.6-2.1-4.6-2.1l1.3-2.4
			c0,0,3.1,1.6,4.5,2c5.5,1.9,11.6,2.2,17.6,0.5c9.3-2.7,16.3-9.7,19.3-18.2C-184.7,284.9-185.6,287.5-186.8,289.9z"/>
		<path class="st10" d="M-202.5,304.7L-202.5,304.7c0.5-0.2,0.9-0.4,1.3-0.6c0.1,0,0.2-0.1,0.3-0.1c0.4-0.2,0.9-0.4,1.3-0.7l0,0
			c0.4-0.2,0.8-0.5,1.2-0.7c0.1-0.1,0.2-0.1,0.3-0.2c0.4-0.3,0.8-0.5,1.2-0.8l0,0c0.4-0.3,0.8-0.6,1.2-0.8c0.1-0.1,0.2-0.1,0.2-0.2
			c0.8-0.6,1.5-1.2,2.2-1.9c0.1-0.1,0.1-0.1,0.2-0.2c0.7-0.7,1.4-1.4,2-2.1c0.1-0.1,0.1-0.1,0.2-0.2c0.6-0.7,1.2-1.5,1.7-2.3
			c0-0.1,0.1-0.1,0.1-0.2c0.3-0.4,0.5-0.8,0.8-1.2l0,0c0.2-0.4,0.5-0.8,0.7-1.2c0-0.1,0.1-0.2,0.1-0.2c0.2-0.4,0.4-0.8,0.6-1.3l0,0
			l0,0c0.6-1.2,1.1-2.5,1.5-3.8l0,0c0.1-0.3,0.2-0.6,0.3-1v-0.1c0.1-0.3,0.2-0.6,0.2-0.9c0-0.1,0.1-0.2,0.1-0.3
			c0.1-0.2,0.1-0.4,0.2-0.7c0.1-0.3,0.1-0.5,0.2-0.8c0-0.1,0-0.1,0-0.2c1.9-5.5,2.3-11.6,0.5-17.6c0,0-8.8-4.1-28.2,8.6l-13.7,24.7
			l13.7-24.7c0.5-23.2-7.6-28.5-7.6-28.5c-6,1.7-11,5.3-14.7,9.8c-0.1,0-0.1,0.1-0.2,0.1c-0.2,0.2-0.4,0.4-0.6,0.6
			c-0.2,0.2-0.3,0.3-0.5,0.5c-0.1,0.1-0.2,0.2-0.2,0.2c-0.2,0.2-0.4,0.4-0.6,0.7l-0.1,0.1c-0.2,0.2-0.4,0.5-0.7,0.8l0,0
			c-0.9,1-1.7,2.1-2.4,3.3l0,0l0,0c-0.3,0.4-0.5,0.8-0.7,1.2c0,0.1-0.1,0.1-0.1,0.2c-0.2,0.4-0.4,0.8-0.7,1.2l0,0
			c-0.2,0.4-0.4,0.9-0.6,1.3c0,0.1-0.1,0.1-0.1,0.2c-0.4,0.9-0.7,1.8-1,2.7c0,0.1,0,0.1-0.1,0.2c-0.3,0.9-0.5,1.9-0.7,2.8
			c0,0.1,0,0.2,0,0.2c-0.2,0.9-0.3,1.9-0.4,2.9c0,0.1,0,0.2,0,0.3c-0.1,1-0.1,1.9-0.1,2.9c0,0.1,0,0.2,0,0.3c0,1,0.1,1.9,0.2,2.9
			c0,0.1,0,0.2,0,0.3c0.1,0.5,0.1,1,0.2,1.4l0,0c0.1,0.5,0.2,1,0.3,1.4c0,0.1,0.1,0.2,0.1,0.3c0.1,0.5,0.2,1,0.4,1.4
			c1.8,6.2,5.4,11.5,10.2,15.2c0.2,0.2,0.4,0.3,0.7,0.5c0.1,0.1,0.2,0.2,0.3,0.2c0.1,0.1,0.2,0.1,0.3,0.2l0.1,0.1
			c0.2,0.1,0.4,0.2,0.6,0.4c0.8,0.5,1.5,1,1.9,1.2c0.1,0.1,0.1,0.1,0.2,0.1c0.1,0,0.1,0.1,0.1,0.1l0,0l0,0c0,0,0,0,0.1,0.1l0,0
			c0.4,0.2,1.3,0.6,2.3,1.1c0.1,0,0.2,0.1,0.2,0.1c0.4,0.2,0.9,0.4,1.3,0.5c0.3,0.1,0.5,0.2,0.7,0.3c5.7,2,12,2.3,18.3,0.5
			c0.5-0.1,0.9-0.3,1.4-0.4c0.1,0,0.2-0.1,0.3-0.1C-203.4,305.1-202.9,304.9-202.5,304.7z M-226.9,300.2L-226.9,300.2L-226.9,300.2
			L-226.9,300.2z"/>
		<path class="st11" d="M-230.9,307.6c0.1,0,0.1,0.1,0.2,0.1C-230.7,307.7-230.8,307.6-230.9,307.6z"/>
	</g>
	<g>
		<path class="st2" d="M-130.6,239.9L-130.6,239.9c0.1-0.5,0.2-0.9,0.3-1.4c0-0.1,0-0.2,0.1-0.3c0.1-0.5,0.2-0.9,0.3-1.4l0,0
			c0.1-0.5,0.1-0.9,0.2-1.4c0-0.1,0-0.2,0-0.3c0-0.5,0.1-1,0.1-1.4l0,0c0-0.5,0-1,0-1.4c0-0.1,0-0.2,0-0.3c0-1-0.1-1.9-0.1-2.9
			c0-0.1,0-0.2,0-0.3c-0.1-1-0.3-1.9-0.4-2.8c0-0.1,0-0.2,0-0.2c-0.2-0.9-0.4-1.9-0.7-2.8c0-0.1,0-0.2-0.1-0.2
			c-0.1-0.5-0.3-0.9-0.5-1.4l0,0c-0.2-0.4-0.3-0.9-0.5-1.3c0-0.1-0.1-0.2-0.1-0.2c-0.2-0.4-0.4-0.9-0.6-1.3l0,0l0,0
			c-0.6-1.2-1.3-2.4-2.1-3.5l0,0c-0.2-0.3-0.4-0.5-0.6-0.8l-0.1-0.1c-0.2-0.2-0.4-0.5-0.5-0.7c-0.1-0.1-0.1-0.2-0.2-0.3
			c-0.1-0.2-0.3-0.4-0.4-0.5c-0.2-0.2-0.4-0.4-0.5-0.6c0-0.1-0.1-0.1-0.1-0.2c-3.2-4.9-7.8-8.9-13.6-11.2c0,0-8.6,4.4-10.4,27.6
			l11.2,25.9l-11.2-25.9c-18.1-14.6-27.2-11.3-27.2-11.3c-2.3,5.8-2.6,12-1.2,17.6c0,0.1,0,0.1,0,0.2c0,0.3,0,0.5,0.1,0.8
			c0,0.2,0.1,0.4,0.1,0.7c0,0.1,0,0.2,0,0.3c0,0.3,0.1,0.6,0.1,0.9v0.1c0.1,0.3,0.1,0.7,0.2,1l0,0c0.3,1.3,0.7,2.6,1.1,3.9l0,0l0,0
			c0.2,0.4,0.3,0.9,0.5,1.3c0,0.1,0.1,0.1,0.1,0.2c0.2,0.4,0.4,0.9,0.6,1.3l0,0c0.2,0.4,0.4,0.9,0.7,1.3c0,0.1,0.1,0.1,0.1,0.2
			c0.5,0.8,1,1.7,1.5,2.5c0,0.1,0.1,0.1,0.1,0.2c0.6,0.8,1.1,1.5,1.8,2.3c0.1,0.1,0.1,0.1,0.2,0.2c0.6,0.7,1.3,1.4,2,2.1
			c0.1,0.1,0.1,0.1,0.2,0.2c0.7,0.7,1.4,1.3,2.2,1.9c0.1,0.1,0.2,0.1,0.2,0.2c0.8,0.6,1.6,1.1,2.4,1.6c0.1,0.1,0.2,0.1,0.3,0.2
			c0.4,0.2,0.8,0.5,1.3,0.7l0,0c0.4,0.2,0.9,0.4,1.3,0.7c0.1,0,0.2,0.1,0.3,0.1c0.4,0.2,0.9,0.4,1.4,0.6c6,2.4,12.4,2.7,18.3,1.2
			c0.2-0.1,0.5-0.1,0.9-0.2c0.1,0,0.3-0.1,0.4-0.1c0.1,0,0.2-0.1,0.4-0.1h0.1c0.2-0.1,0.4-0.1,0.6-0.2c0.9-0.3,1.7-0.6,2.1-0.8
			c0.1,0,0.2-0.1,0.2-0.1c0.1,0,0.1,0,0.1,0l0,0l0,0c0,0,0,0,0.1-0.1l0,0c0.4-0.2,1.3-0.6,2.3-1.2c0.1,0,0.2-0.1,0.2-0.1
			c0.4-0.2,0.8-0.5,1.2-0.7c0.2-0.1,0.5-0.3,0.6-0.4c5.1-3.3,9.2-8.1,11.6-14.2c0.2-0.5,0.3-0.9,0.5-1.4c0-0.1,0.1-0.2,0.1-0.3
			C-130.8,240.8-130.7,240.4-130.6,239.9z M-149,256.5L-149,256.5L-149,256.5L-149,256.5z"/>
		<path class="st6" d="M-139.9,209.8c4.9,7.6,6.2,17.3,2.6,26.4c-2.3,5.8-6.3,10.4-11.1,13.6c-1.2,0.8-4.3,2.3-4.3,2.3l2.4,5.6
			c0,0,3.3-1.6,4.5-2.4c5.1-3.3,9.2-8.1,11.6-14.2C-129.8,230.1-132.4,218-139.9,209.8z"/>
		<path class="st6" d="M-139.9,209.8c-3.2-4.9-7.8-8.9-13.6-11.2c0,0-8.6,4.4-10.4,27.6l11.2,25.9l0,0c0,0,3.1-1.5,4.3-2.3
			c4.9-3.2,8.8-7.8,11.1-13.6C-133.7,227.1-135,217.3-139.9,209.8z"/>
		<path class="st7" d="M-157.3,253.6c-5.6,1.4-11.7,1.1-17.5-1.2c-9-3.6-15.3-11.2-17.4-19.9c0.9,11.1,7.9,21.2,19,25.6
			c6,2.4,12.4,2.7,18.3,1.2c1.4-0.3,4.8-1.6,4.8-1.6l-2.4-5.6C-152.7,252-156,253.3-157.3,253.6z"/>
		<path class="st7" d="M-163.9,226.1c-18.1-14.6-27.2-11.3-27.2-11.3c-2.3,5.8-2.6,12-1.2,17.6c2.2,8.8,8.4,16.4,17.4,19.9
			c5.8,2.3,11.9,2.6,17.5,1.2c1.4-0.3,4.6-1.5,4.6-1.5l0,0L-163.9,226.1z"/>
		<path class="st8" d="M-135.3,216.5c2.5,6.7,2.6,14.3-0.3,21.5c-2.4,6-6.5,10.9-11.6,14.2c-1.2,0.8-4.5,2.4-4.5,2.4l0,0l0,0
			c0,0-3.4,1.3-4.8,1.6c-5.9,1.4-12.2,1.1-18.3-1.2c-7.2-2.8-12.6-8.1-15.8-14.5c2.9,7.8,8.9,14.4,17.2,17.6
			c6,2.4,12.4,2.7,18.3,1.2c1.4-0.3,4.8-1.6,4.8-1.6l0,0l0,0l0,0l0,0c0,0,3.3-1.6,4.5-2.4c5.1-3.3,9.2-8.1,11.6-14.2
			C-130.9,232.8-131.6,223.9-135.3,216.5z"/>
		<path class="st9" d="M-190.5,240.4c3.2,6.4,8.7,11.7,15.8,14.5c6,2.4,12.4,2.7,18.3,1.2c1.4-0.3,4.8-1.6,4.8-1.6l-1.1-2.5
			c0,0-3.3,1.3-4.6,1.5c-5.6,1.4-11.7,1.1-17.5-1.2c-9-3.6-15.3-11.2-17.4-19.9C-192.1,235.2-191.5,237.8-190.5,240.4z"/>
		<path class="st9" d="M-135.3,216.5c2.5,6.7,2.6,14.3-0.3,21.5c-2.4,6-6.5,10.9-11.6,14.2c-1.2,0.8-4.5,2.4-4.5,2.4l-1.1-2.5
			c0,0,3.1-1.5,4.3-2.3c4.9-3.2,8.8-7.8,11.1-13.6c3.6-9,2.3-18.8-2.6-26.4C-138.1,211.8-136.5,214.1-135.3,216.5z"/>
		<path class="st10" d="M-133.2,238L-133.2,238c0.1-0.5,0.2-0.9,0.3-1.4c0-0.1,0-0.2,0.1-0.3c0.1-0.5,0.2-0.9,0.3-1.4l0,0
			c0.1-0.5,0.1-0.9,0.2-1.4c0-0.1,0-0.2,0-0.3c0-0.5,0.1-1,0.1-1.4l0,0c0-0.5,0-1,0-1.4c0-0.1,0-0.2,0-0.3c0-1-0.1-1.9-0.1-2.9
			c0-0.1,0-0.2,0-0.3c-0.1-1-0.3-1.9-0.4-2.8c0-0.1,0-0.2,0-0.2c-0.2-0.9-0.4-1.9-0.7-2.8c0-0.1,0-0.2-0.1-0.2
			c-0.1-0.5-0.3-0.9-0.5-1.4l0,0c-0.2-0.4-0.3-0.9-0.5-1.3c0-0.1-0.1-0.2-0.1-0.2c-0.2-0.4-0.4-0.9-0.6-1.3l0,0l0,0
			c-0.6-1.2-1.3-2.4-2.1-3.5l0,0c-0.2-0.3-0.4-0.5-0.6-0.8l-0.1-0.1c-0.2-0.2-0.4-0.5-0.5-0.7c-0.1-0.1-0.1-0.2-0.2-0.3
			c-0.1-0.2-0.3-0.4-0.4-0.5c-0.2-0.2-0.4-0.4-0.5-0.6c0-0.1-0.1-0.1-0.1-0.2c-3.2-4.9-7.8-8.9-13.6-11.2c0,0-8.6,4.4-10.4,27.6
			l11.2,25.9l-11.2-25.9c-18.1-14.6-27.2-11.3-27.2-11.3c-2.3,5.8-2.6,12-1.2,17.6c0,0.1,0,0.1,0,0.2c0,0.3,0,0.5,0.1,0.8
			c0,0.2,0.1,0.4,0.1,0.7c0,0.1,0,0.2,0,0.3c0,0.3,0.1,0.6,0.1,0.9v0.1c0.1,0.3,0.1,0.7,0.2,1l0,0c0.3,1.3,0.7,2.6,1.1,3.9l0,0l0,0
			c0.2,0.4,0.3,0.9,0.5,1.3c0,0.1,0.1,0.1,0.1,0.2c0.2,0.4,0.4,0.9,0.6,1.3l0,0c0.2,0.4,0.4,0.9,0.7,1.3c0,0.1,0.1,0.1,0.1,0.2
			c0.5,0.8,1,1.7,1.5,2.5c0,0.1,0.1,0.1,0.1,0.2c0.6,0.8,1.1,1.5,1.8,2.3c0.1,0.1,0.1,0.1,0.2,0.2c0.6,0.7,1.3,1.4,2,2.1
			c0.1,0.1,0.1,0.1,0.2,0.2c0.7,0.7,1.4,1.3,2.2,1.9c0.1,0.1,0.2,0.1,0.2,0.2c0.8,0.6,1.6,1.1,2.4,1.6c0.1,0.1,0.2,0.1,0.3,0.2
			c0.4,0.2,0.8,0.5,1.3,0.7l0,0c0.4,0.2,0.9,0.4,1.3,0.7c0.1,0,0.2,0.1,0.3,0.1c0.4,0.2,0.9,0.4,1.4,0.6c6,2.4,12.4,2.7,18.3,1.2
			c0.2-0.1,0.5-0.1,0.9-0.2c0.1,0,0.3-0.1,0.4-0.1c0.1,0,0.2-0.1,0.4-0.1h0.1c0.2-0.1,0.4-0.1,0.6-0.2c0.9-0.3,1.7-0.6,2.1-0.8
			c0.1,0,0.2-0.1,0.2-0.1c0.1,0,0.1,0,0.1,0l0,0l0,0c0,0,0,0,0.1-0.1l0,0c0.4-0.2,1.3-0.6,2.3-1.2c0.1,0,0.2-0.1,0.2-0.1
			c0.4-0.2,0.8-0.5,1.2-0.7c0.2-0.1,0.5-0.3,0.6-0.4c5.1-3.3,9.2-8.1,11.6-14.2c0.2-0.5,0.3-0.9,0.5-1.4c0-0.1,0.1-0.2,0.1-0.3
			C-133.4,238.9-133.3,238.4-133.2,238z M-151.6,254.5L-151.6,254.5L-151.6,254.5L-151.6,254.5z"/>
		<path class="st11" d="M-148.2,262.2c0.1,0,0.1-0.1,0.2-0.1C-148.1,262.2-148.1,262.2-148.2,262.2z"/>
	</g>
	<path class="st12" d="M-196,179.4l-99.8,46.5c-1.7,6.6-2.7,13.5-3.1,20.5l104.8-63.4c0.9-0.5,1.2-1.6,0.8-2.6
		C-193.8,179.4-195,179-196,179.4z"/>
	<path class="st13" d="M-196,179.4l-99.8,46.5c-0.9,3.5-1.6,7.1-2.1,10.7l104.6-56.2C-193.8,179.4-195,179-196,179.4z"/>
	<path class="st2" d="M-193.3,184.3l-104.6,81.3c1,7.1,2.8,14,5.3,20.5l102-98.7c0.7-0.7,0.8-1.9,0.2-2.7
		C-191.2,183.8-192.4,183.6-193.3,184.3z"/>
	<path class="st12" d="M-193.1,184.8l-105.5,75.4c0.6,7.1,2,14,4.1,20.6l103.9-92.9c0.7-0.7,0.9-1.8,0.3-2.7
		C-191,184.3-192.2,184.1-193.1,184.8z"/>
	<path class="st13" d="M-193.1,184.8l-105.5,75.4c0.3,3.7,0.9,7.4,1.6,10.9l106.6-85.9C-191,184.3-192.2,184.1-193.1,184.8z"/>
</g>
</svg>
