<?xml version="1.0" encoding="utf-8"?>
<!-- Generator: Adobe Illustrator 19.0.0, SVG Export Plug-In . SVG Version: 6.00 Build 0)  -->
<svg version="1.1" id="Layer_1" xmlns="http://www.w3.org/2000/svg" xmlns:xlink="http://www.w3.org/1999/xlink" x="0px" y="0px"
	 viewBox="-349 101 300 300" style="enable-background:new -349 101 300 300;" xml:space="preserve">
<style type="text/css">
	.st0{fill:#F09C57;}
	.st1{opacity:0.5;}
	.st2{opacity:0.3;fill:#AF6429;enable-background:new    ;}
	.st3{opacity:0.3;}
	.st4{fill:#363738;}
	.st5{opacity:0.3;fill:#363738;enable-background:new    ;}
	.st6{fill:#E74D3D;}
	.st7{opacity:0.1;fill:#363738;enable-background:new    ;}
	.st8{fill:#BC372C;}
	.st9{fill:#D2D3D4;}
</style>
<g id="Heart_Cord">
	<circle class="st0" cx="-199" cy="251" r="100"/>
	<g class="st1">
		<path class="st2" d="M-297.6,243.1c3.2-0.4,6.7,0.4,10.4-1.9c-3.7-2.2-7.4-2.7-11-3.1c-0.2,1.7-0.4,3.4-0.5,5.1
			C-298.3,243.1-298,243.1-297.6,243.1z"/>
		<path class="st2" d="M-195.2,225.5c24,1.6,47.9,3.5,71.9,4.4c7.4,0.3,14.8,0.6,22.2,0.9c-0.2-1.2-0.5-2.3-0.8-3.5
			c-7.5-0.1-15-0.5-22.4-1.4c-1.1-0.1-2.3-0.3-3.4-0.2c-18.9,0.3-37.4-3.3-56.1-4.4c-14.2-0.8-28.5-1.4-42.6-3.6
			c-19.1-3-38.3-5.3-57.6-6.3c-2.2-0.1-4.5-0.2-6.7-0.3c-1.1,2.5-2.1,5-3,7.6c17.1,0.8,34.2,1.6,51.3,3.4
			C-226.7,223.5-210.9,224.4-195.2,225.5z"/>
		<path class="st2" d="M-118,309.6c1-1.4,2-2.8,3-4.3c-5.5-0.3-10.9-0.7-16.4-0.9c-21.3-1-42.6-4.1-63.8,1.2
			c-11.3,2.9-22.9,4.2-34.6,3.4c-17.7-1.2-35.4-2.5-53.1-3.8c0.9,1.4,1.9,2.8,2.9,4.2c16,0.8,32,1.7,48,2.1
			C-194.1,312.2-156,311.2-118,309.6z"/>
		<path class="st2" d="M-185.5,236.6c28.5,0.4,57,0.4,85.5,0.4c-0.1-0.8-0.2-1.5-0.4-2.3c-12.5-0.2-25.2,0.9-37.6-0.4
			c-18.5-2-37.1-2.2-55.6-4c-17.9-1.8-36-2.1-53.9-3.8c-15.9-1.5-31.8-2.4-47.7-3.1c-0.3,1.2-0.7,2.4-1,3.7
			c13.9,1.2,27.7,2.9,41.5,4.5C-231.6,234.2-208.6,236.3-185.5,236.6z"/>
		<path class="st2" d="M-175.6,218c24.1,1.7,48.1,2.8,72.2,3.7c-0.3-1-0.6-1.9-0.9-2.9c-5.1,0-10.3,0-15.4-0.2
			c-24.2-0.8-48.3-2-72.3-5.2c-21.3-2.8-42.8-4.5-64.2-7.2c-10.2-1.3-20.3-2.4-30.5-3.1c-0.5,1-1,1.9-1.5,2.9
			c3.1,0.2,6.2,0.5,9.3,0.8C-244.5,210.2-210.2,215.6-175.6,218z"/>
		<path class="st2" d="M-198.1,322.7c-23.5-0.2-46.8-2.4-70.2-4.2c-1.6-0.1-3.2-0.2-4.8-0.3c2.1,2.3,4.4,4.6,6.7,6.7
			c15.1,0.9,30.2,2.3,45.3,3.3c6.7,0.5,13.5,0.7,20.2,1.1c15,0.9,30,0.8,45,1.5c5.4,0.3,10.7,0.5,16.1,0.7c3.7-2.7,7.2-5.7,10.5-8.9
			C-152.2,322.7-175.2,322.9-198.1,322.7z"/>
		<path class="st2" d="M-262.1,247.9c2.3-0.8,6.1-0.6,6.1-3.8c0-2.5-3.5-3-5.8-3.8c-11.6-4-23.4-7.2-35.3-8.8
			c-0.3,1.3-0.5,2.5-0.7,3.8c5.7,0.6,11.3,1.5,16.9,2.9c1.3,0.3,2.6,0.6,3.8,1.1c2,0.9,5.2,1.4,4.9,3.9c-0.3,2.4-3.6,2.3-5.7,2.6
			c-7,0.7-14,1.4-21,1.8c0,1.2-0.1,2.3-0.1,3.5c0,0.3,0,0.5,0,0.8c4.5-0.1,9.1-0.2,13.6-0.5C-277.6,250.8-269.6,250.6-262.1,247.9z"
			/>
		<path class="st2" d="M-190.6,273.2c29.5,0.6,58.9,2.2,88.4,3.3c0.5-1.9,0.9-3.8,1.3-5.7c-1.6-0.1-3.2-0.2-4.8-0.2
			c-28.2-1.5-56.4-1.5-84.5-2.4c-21.4-0.7-42.9,0.1-64.3-1.1c-14.4-0.8-28.8-0.5-43.2-0.6c0.2,1,0.3,2,0.5,3
			c13.2,0.5,26.5,1,39.7,1.5C-235.3,272-213,272.8-190.6,273.2z"/>
		<path class="st2" d="M-202.2,297.1c-1.5-0.6-3.2-0.9-4.8-1.4c-5.4-1.7-11.2-1.2-16.7-1.9c-10.9-1.2-21.7,0.2-32.3,3
			c-1.8,0.5-4.3,1.1-4.4,3c-0.1,2.7,2.9,2.6,4.7,3.1c9.7,2.2,19.6,3.3,29.8,3c7.7,0.4,15.6-0.3,23.3-2c1.6-0.4,3.5-0.9,3.6-3
			C-199.1,298.8-200.6,297.8-202.2,297.1z M-246.1,301.1c-1-0.2-1.9-0.7-1.9-1.7c0-1.5,1.4-1.4,2.5-1.7c4.6-1.4,9.4-1.2,14-0.7
			c7.3,0.8,14.9,0.5,21.6,4.3C-222.1,305-234.1,303.6-246.1,301.1z"/>
		<path class="st2" d="M-220.8,254.4c21-0.3,42-1.3,63,0.2c15.4,1,30.9,0.3,46.3,0.5c4.1,0.1,8.2,0.1,12.3,0.2
			c0.1-1.4,0.1-2.8,0.1-4.2c0-0.4,0-0.7,0-1.1c-19.1-0.5-38.3-1-57.4-1.5c-19.6-0.6-39.1-0.2-58.7-0.3c-11.3-0.1-22.5,0.6-33.7,2
			c-14.3,1.8-28.6,4.1-43,4.8c-2.3,0.1-4.7,0.2-7,0.2c0,0.8,0.1,1.6,0.1,2.4c4.5-0.1,9.1-0.3,13.6-0.5
			C-263.7,255.6-242.2,254.6-220.8,254.4z"/>
		<path class="st2" d="M-285.1,287.7c-2.4-0.3-4.8-0.5-7.2-0.8c0.6,1.6,1.3,3.2,2,4.8c3.5-0.3,7-0.7,10.8-1
			C-281.1,287.9-283.1,287.9-285.1,287.7z"/>
		<path class="st2" d="M-118.9,280.7c-27.3-0.9-54.5-1.4-81.8-2.3c-27.2-0.9-54.4-2.4-81.7-3.4c-4.6-0.2-9.3-0.4-13.9-0.6
			c0.6,2.6,1.4,5.2,2.2,7.8c4.3,0.4,8.7,0.7,13,0.9c22.1,1.1,44.4,0.6,66.4,2.6c36,3.3,72.1,3.4,108.2,3.1c1-2.5,2-5.1,2.8-7.7
			C-108.7,281-113.8,280.9-118.9,280.7z"/>
		<path class="st2" d="M-163.7,207.7c12.1,3,24.1,1.7,36.1-1.2c-11.7-4.2-23.2-8.3-35.9-5.8c-2.2,0.4-4.5,0.9-4.6,3.3
			C-168.1,206.6-165.7,207.2-163.7,207.7z M-152.9,202.2c2.4,0,5.5,0.4,5.5,3.4s-3.1,1.5-4.8,2.1c-2.3-0.4-5.7,0.6-5.6-2.9
			C-157.8,202.3-154.8,202.2-152.9,202.2z"/>
		<path class="st2" d="M-156.1,191.3c12.9-1,25.5,0.1,38.1,1.1c-1.1-1.5-2.3-3-3.5-4.5c-6.8-0.1-13.7-0.2-20.5-0.4
			c-38.3-1.2-76.7,0.5-115-1.5c-5.7-0.3-11.5-0.5-17.2-0.8c-0.6,0.7-1.2,1.4-1.8,2.1c15.9,0.8,31.9,1.9,47.8,3.1
			C-204.3,192.1-180.1,193.1-156.1,191.3z"/>
		<path class="st2" d="M-183.9,201.8c3.3,0.4,6.7,0.2,10-0.9c13-4.4,26.1-5,39.2-1.1c8,2.3,16,3.9,24.1,4.7c-1.2-2.4-2.6-4.7-4-6.9
			c-7.4-0.7-14.7-1.6-22.1-2.8c-13-2.2-25.8-0.3-38.7,0.9c-8.1,0.7-16.1,0.6-24.2,0.2c-3-0.2-6-0.8-9-0.7
			c-14.9,0.2-29.3-3.7-44.1-4.2c-7.9-0.2-15.7-1.4-23.6-1.4c-0.6,0-1.2,0-1.8,0c-0.8,1-1.5,2-2.3,3c13.6,0.9,27.3,2.2,40.9,3.3
			C-220.7,197.3-202.3,199.4-183.9,201.8z"/>
		<path class="st2" d="M-212.8,206.6c12.7,1,25.2,3.8,37.8,5.5c16,2.1,32.1,3.6,48.3,3.4c7.1-0.1,14.1,0,21.2,0c-0.8-2-1.6-4-2.5-6
			c-13.6,0.9-27.3,2.3-41,2.6c-10.1,0.2-19.6-2.9-29.4-4.6c-22.7-4-45.6-7-68.6-9.3c-11.8-1.2-23.6-2.1-35.4-2.6
			c-0.8,1.2-1.5,2.3-2.3,3.6c0.9,0.1,1.8,0.1,2.8,0.2C-258.7,201.1-235.9,204.8-212.8,206.6z"/>
		<path class="st2" d="M-256.9,332.5c1.6,1.2,3.3,2.3,5.1,3.4c5.4,0.6,10.7,1.6,15.8,3.4c1.3,0.5,3.3,0.7,3.3,2.5
			c0,1.3-1.3,2-2.4,2.4c2.9,1.1,6,2.2,9,3c16.2-2.1,32.6-0.5,48.9-0.1c1.1,0,2.2,0.3,3.4,0.4c0.4,0,0.8,0,1.2,0
			c4.6-1.2,9.1-2.8,13.4-4.7c-18.7-1.2-37.4-2.6-56.1-4C-229.6,337.8-243,334-256.9,332.5z"/>
		<path class="st2" d="M-208.9,264.2c33.1,1.1,66.2,0.6,99.3,1.1c3.2,0,6.4,0.1,9.6,0.2c0.3-1.9,0.5-3.8,0.7-5.7
			c-18.5,0-37.1,0-55.6-0.7c-24.3-0.9-48.5,0.3-72.7,0.8c-23.6,0.5-47.2,0.5-70.9,0.7c0.1,0.9,0.2,1.7,0.3,2.6
			C-268.5,264.6-238.7,263.2-208.9,264.2z"/>
		<path class="st2" d="M-262.8,328c1,0.9,2.1,1.7,3.2,2.5c5.4,0.1,10.8,0.4,16.2,0.8c20.9,1.8,41.7,5.1,62.7,6.3
			c9.5,0.5,19,1.1,28.5,1.6c2.7-1.4,5.3-3,7.9-4.6c-19-0.9-38.1-1.9-57.1-3.1C-221.8,330.3-242.3,329.1-262.8,328z"/>
		<path class="st2" d="M-207.5,315.3c-23.4-0.8-46.8-2.2-70.3-2.7c1,1.2,2,2.4,3,3.6c4.3,0.3,8.5,0.6,12.8,0.9
			c39.1,3.1,78.2,2.4,117.3,1.8c6.5-0.1,13-0.2,19.5-0.5c1.9-2,3.6-4.1,5.3-6.3c-2,0.2-4,0.3-6.1,0.5
			C-153.1,315.5-180.2,316.2-207.5,315.3z"/>
		<path class="st2" d="M-213.6,349.9c4.8,0.7,9.7,1.1,14.6,1.1c3.9,0,7.8-0.2,11.6-0.7c-0.7,0-1.4-0.1-2.1-0.1
			C-197.5,349.8-205.6,349.3-213.6,349.9z"/>
		<path class="st2" d="M-156.4,160.5c-4.3-2-8.8-3.8-13.5-5.2c-10.2,0.4-20.4,0.8-30.6,1.5c-12.1,0.8-24.3,1.3-36.4,1.7
			c-3.9,1.6-7.7,3.4-11.3,5.5c9-0.2,18-0.4,27-0.7C-199.7,162.5-178,161.7-156.4,160.5z"/>
		<path class="st2" d="M-189,179.6c-25.6-0.5-51.1-2.2-76.7-3.1c-2.1,1.9-4.1,3.8-6,5.9c0.6,0,1.3,0.1,1.9,0.1
			c25,1,49.9,1.7,74.9,2.3c14.1,0.3,28.2-0.2,42.3-0.6c9.3-0.3,18.5-0.3,27.8-0.2c-1-1.1-2-2.1-3-3.2c-14.4-0.1-28.8-0.2-43.1-0.4
			C-177,180.2-183,179.7-189,179.6z"/>
		<path class="st2" d="M-150,292.6c13,2.8,26.2,1.9,39.2,2.7c0.5,0,0.9,0,1.4,0.1c0.5-1,1-2,1.5-3.1
			C-121.9,292.2-136,292.2-150,292.6z"/>
		<path class="st2" d="M-181.2,169.9c12.7-1.1,25.6,0.5,38.3-1.7c-2.4-1.6-4.9-3.2-7.5-4.6c-12.8,0.7-25.6,1.5-38.4,2.3
			c-22.5,1.4-45.1,2.3-67.6,3.3c-1.5,1.1-3,2.2-4.5,3.4c9.9-0.3,19.7-0.6,29.6-1C-214.7,170.8-197.8,171.4-181.2,169.9z"/>
		<path class="st2" d="M-208.4,290.8c-21.2-3.2-42.3-3.3-63.2,1.8c-5.7,1.4-11.4,2.2-17,2.6c0.9,1.8,1.8,3.5,2.8,5.2
			c5.2-0.3,10.4-1.2,15.4-3c22.7-8.2,45.6-7.4,68.8-3.3c12.4,2.2,24.7,4.7,37.2,5.8c13.4,1.2,27,0.9,40.5,1.4
			c3.7,0.1,7.4,0.4,11,0.7c0.6-1.1,1.3-2.2,1.9-3.3c-16.6-0.8-33.1-1.6-49.7-2.9C-176.8,294.7-192.6,293.2-208.4,290.8z"/>
		<path class="st2" d="M-208.7,239c-9.8-0.4-19.5-1.7-29.2-1.8c-7.4-0.1-14.6-2.2-23.7-1.1c11.3,4.8,21.5,6.9,31.9,7.5
			c18.6,0.9,37.2,1.8,55.8,2.2c18.1,0.4,36.1,0.6,54.2,1c6.9,0.2,13.8,0.3,20.7,0.3c-0.1-2.3-0.2-4.5-0.5-6.7
			C-136,240.4-172.3,240.4-208.7,239z"/>
		<path class="st2" d="M-213.1,173.7c-2.8,0.1-5.5,0.8-8.2,1.2c17,1.3,34,2,50.8,1.6c12.5-0.3,25-0.5,37.5-0.5
			c-1.7-1.5-3.4-2.9-5.2-4.3c-7.5,0.1-15,0.3-22.5,0.7C-178.1,173.1-195.6,173.2-213.1,173.7z"/>
		<path class="st2" d="M-186.6,152.1c0.9,0,1.8,0,2.6,0c-4.9-0.7-9.9-1.1-15.1-1.1s-10.2,0.4-15.1,1.1c8.8,0,17.6,0,26.4,0
			C-187.3,152.9-186.9,153-186.6,152.1z"/>
	</g>
	<g class="st3">
		<path class="st4" d="M-121.2,224.8c0-10.8-4.2-21-11.7-28.5c-15.4-15.4-41.5-15.5-56.9-0.1c-0.7,0.6-3.4,3-6.6,6.4
			c-2.8-3-5.4-5.4-6.5-6.4c-16-15.9-41-15.9-57,0.1c-7.6,7.6-11.7,17.7-11.7,28.5s4.1,20.9,11.6,28.4l51.2,59.8
			c-3.2,5.4-2.4,12,2.5,16.8l1.5,1.5c1.9,1.9,5.1,1.9,7.1,0l12.9-12.9c1.9-1.9,1.9-5.1,0-7.1l-1.5-1.5c-4.3-4.3-9.9-5.4-14.9-3.4
			l-51.3-59.8l-0.3-0.3c-5.7-5.7-8.8-13.3-8.8-21.5s3.1-15.8,8.8-21.5c12-12,30.9-12,42.9,0l0.2,0.2c2.3,2,4.6,4.4,6.8,6.7
			c-4,5.5-6,10.3-6,14.5c0,3.7,1.4,7,4,9.3c2.2,2,5.2,3,8.4,3c7.2,0,12.7-5.3,12.7-12.3c0-4.6-2.7-9.8-6.1-14.5
			c2.3-2.5,4.8-4.9,6.9-6.7l0.3-0.3c11.6-11.6,31.3-11.6,42.9,0c5.7,5.7,8.8,13.3,8.8,21.5s-3.1,15.8-8.8,21.5l-20.6,20.6
			c-5.2-2.6-11.3-1.6-15.9,3c-1.4-1.4-3.6-1.4-5,0c-1.4,1.4-0.9,4.1,1,6l17.9,17.9c1.9,1.9,4.7,2.4,6,1c1.3-1.4,1.4-3.6,0-5
			c4.6-4.6,5.6-10.7,3-15.9l20.6-20.6C-125.4,245.8-121.2,235.7-121.2,224.8z M-196.6,227.1c-0.7,0-1.4-0.2-1.8-0.6
			c-0.1-0.1-0.6-0.5-0.6-1.7c0-1.7,0.9-3.8,2.4-6.2c1.6,2.5,2.6,4.7,2.6,6.2C-194,226.9-196,227.1-196.6,227.1z"/>
		
			<rect x="-185.1" y="277.8" transform="matrix(0.7071 0.7071 -0.7071 0.7071 148.2419 211.7837)" class="st4" width="7.1" height="14.1"/>
		
			<rect x="-175.1" y="287.8" transform="matrix(0.7071 0.7071 -0.7071 0.7071 158.242 207.6416)" class="st4" width="7.1" height="14.1"/>
	</g>
	<path class="st5" d="M-99,251c0-0.5,0-1,0-1.5h-78.5v-62h55.7c-0.8-1-1.7-2-2.6-3h-149.4c-0.9,1-1.7,2-2.6,3h95.8v62h-118.5
		c0,0.5,0,1,0,1.5s0,1,0,1.5h200C-99,252-99,251.5-99,251z"/>
	<path class="st5" d="M-276.2,314.5c0.8,1,1.7,2,2.6,3h38.2v26.6c1,0.4,2,0.8,3,1.1v-27.7h108.2c0.9-1,1.7-2,2.6-3H-276.2z"/>
	<path class="st6" d="M-202.8,322l-59.9-69.9c-7.5-7.5-11.6-17.6-11.6-28.4c0-10.8,4.2-21,11.7-28.5c16-16,41-16,57-0.1
		c1.2,1,3.7,3.3,6.5,6.4c3.2-3.4,6-5.8,6.6-6.4c15.5-15.3,41.5-15.3,56.9,0.1c7.6,7.6,11.7,17.7,11.7,28.5c0,10.8-4.2,21-11.7,28.5
		l-25,25l-7.1-7.1l25-25c5.7-5.7,8.8-13.3,8.8-21.5s-3.1-15.8-8.8-21.5c-11.6-11.6-31.3-11.6-42.9,0l-0.3,0.3
		c-2.1,1.8-4.5,4.2-6.9,6.7c3.4,4.7,6.1,9.9,6.1,14.5c0,7-5.4,12.3-12.7,12.3c-3.2,0-6.1-1.1-8.4-3c-2.6-2.3-4-5.5-4-9.3
		c0-4.2,2-9,6-14.5c-2.2-2.4-4.5-4.7-6.8-6.7l-0.2-0.2c-12-12-30.9-12-42.9,0c-5.7,5.7-8.8,13.3-8.8,21.5s3.1,15.8,8.8,21.5l0.3,0.3
		l60,70L-202.8,322z M-199.1,217.5c-1.5,2.4-2.4,4.6-2.4,6.2c0,1.2,0.4,1.6,0.6,1.7c0.4,0.3,1.1,0.6,1.8,0.6c0.6,0,2.7-0.2,2.7-2.3
		C-196.5,222.2-197.5,220-199.1,217.5z"/>
	<path class="st7" d="M-205.5,209.2c-1.5,2-2.6,3.9-3.5,5.7c2.8,1.7,5.7,3.3,8.4,5.5c0.4-0.9,0.9-1.9,1.6-3
		C-198.1,219.1-206.7,207.9-205.5,209.2z"/>
	<path class="st7" d="M-199,201.5c3.2-3.4,6-5.8,6.6-6.4c15.5-15.3,41.5-15.3,56.9,0.1c7.6,7.6,11.7,17.7,11.7,28.5
		s-4.2,21-11.7,28.5l-25,25l-7.1-7.1l25-25c5.7-5.7,8.8-13.3,8.8-21.5s-3.1-15.8-8.8-21.5c-11.6-11.6-31.3-11.6-42.9,0l-0.3,0.3
		c-2.1,1.8-4.5,4.2-6.9,6.7C-189.2,214-201.9,198.5-199,201.5z"/>
	<g>
		<path class="st8" d="M-159,288.8L-159,288.8c1.4,1.4,1.4,3.6,0,5c-1.4,1.4-4.1,0.9-6-1l-18-18c-1.9-1.9-2.4-4.7-1-6
			c1.4-1.3,3.6-1.4,5,0l0,0c5.9-5.9,14.1-5.9,20,0C-153.1,274.7-153.1,282.9-159,288.8z"/>
	</g>
	<path class="st7" d="M-159,268.8c-0.9-0.9-1.8-1.6-2.8-2.2c3.5,5.5,2.8,12.2-2.2,17.2c1.4,1.4,1.4,3.6,0,5c-1.4,1.4-4.1,0.9-6-1
		l-13-13l0,0l17.9,17.9c1.9,1.9,4.7,2.4,6,1c1.3-1.4,1.4-3.6,0-5C-153.1,282.9-153.1,274.6-159,268.8z"/>
	<g>
		<path class="st8" d="M-189,308.8l1.5,1.5c1.9,1.9,1.9,5.1,0,7.1l-12.9,12.9c-1.9,1.9-5.1,1.9-7.1,0l-1.5-1.5
			c-5.9-5.9-5.9-14.1,0-20C-203.1,302.9-194.9,302.9-189,308.8z"/>
	</g>
	
		<rect x="-187.5" y="276.7" transform="matrix(-0.7071 -0.7071 0.7071 -0.7071 -514.7029 354.3742)" class="st9" width="7.1" height="14.1"/>
	
		<rect x="-177.5" y="286.7" transform="matrix(-0.7071 -0.7071 0.7071 -0.7071 -504.7029 378.5162)" class="st9" width="7.1" height="14.1"/>
	<polygon class="st7" points="-177.9,279.9 -187.5,289.5 -191.1,285.9 -191.5,286.3 -186.5,291.3 -176.5,281.3 	"/>
	<polygon class="st7" points="-167.9,289.9 -177.5,299.5 -181.1,295.9 -181.5,296.3 -176.5,301.3 -166.5,291.3 	"/>
</g>
</svg>
