<?xml version="1.0" encoding="utf-8"?>
<!-- Generator: Adobe Illustrator 19.1.0, SVG Export Plug-In . SVG Version: 6.00 Build 0)  -->
<svg version="1.1" id="Layer_1" xmlns="http://www.w3.org/2000/svg" xmlns:xlink="http://www.w3.org/1999/xlink" x="0px" y="0px"
	 viewBox="0 0 400 100" enable-background="new 0 0 400 100" xml:space="preserve">
<path fill="#3390CA" d="M53.5,21.5c-1.4,0.3-2.2,1.6-1.9,3c0.2,1.2,1.3,2,2.4,2c0.2,0,0.3,0,0.5,0c1.4-0.3,2.2-1.6,1.9-3
	C56.1,22,54.8,21.2,53.5,21.5z"/>
<path fill="#3390CA" d="M38.9,23.9c-1.4,0.2-2.3,1.4-2.2,2.8c0.2,1.3,1.2,2.2,2.5,2.2c0.1,0,0.2,0,0.3,0c1.4-0.2,2.3-1.4,2.2-2.8
	C41.5,24.7,40.2,23.8,38.9,23.9z"/>
<path fill="#3390CA" d="M96.8,12.4c0.3,0,1.2-0.1,1.2-0.2c0,0,0,0,0,0c1-0.6,1.7-2.1,1.1-3.3c-0.6-1.3-2.2-1.8-3.5-1.2
	c-1.2,0.6-1.8,2.1-1.2,3.3C94.8,11.9,95.9,12.4,96.8,12.4z"/>
<path fill="#3390CA" d="M67.8,17.9c-1.3,0.4-2.1,1.8-1.7,3.1c0.3,1.1,1.3,1.8,2.4,1.8c0.2,0,0.5,0,0.7-0.1c1.3-0.4,2.1-1.8,1.7-3.1
	C70.5,18.3,69.2,17.5,67.8,17.9z"/>
<path fill="#3390CA" d="M82.8,18.1c0.3,0,0.6,0,0.9-0.1c1.3-0.5,2-1.9,1.5-3.2c-0.5-1.3-1.9-2-3.2-1.5c-1.3,0.5-2,1.9-1.5,3.2
	C80.8,17.5,81.8,18.1,82.8,18.1z"/>
<path fill="#3390CA" d="M24.1,25.3c-1.4,0.1-2.5,1.2-2.4,2.6c0.1,1.3,1.2,2.4,2.5,2.4c0,0,0.1,0,0.1,0c1.4-0.1,2.4-1.2,2.4-2.6
	C26.7,26.3,25.5,25.2,24.1,25.3z"/>
<path fill="#3390CA" d="M369.9,47C369.9,47,369.9,47,369.9,47c-1.4,0-2.6,0.8-2.7,2.2c-0.1,1.4,0.9,2.5,2.2,2.6
	c0.1,0,0.2,0.1,0.2,0.1c1.3,0,2.4-0.9,2.5-2.2C372.2,48.3,371.2,47,369.9,47z"/>
<path fill="#3390CA" d="M355,44.5c-1.3-0.3-2.7,0.5-3,1.9c-0.3,1.4,0.6,2.7,1.9,3c0.2,0,0.4,0.1,0.5,0.1c1.1,0,2.2-0.8,2.4-2
	C357.2,46.1,356.3,44.8,355,44.5z"/>
<path fill="#3390CA" d="M327.5,33.5c-1.1-0.8-2.7-0.4-3.5,0.8c-0.8,1.2-0.5,2.7,0.7,3.7h0c0.4,0,0.9,0.2,1.4,0.2
	c0.8,0,1.6-0.6,2.1-1.3C329,35.8,328.7,34.3,327.5,33.5z"/>
<path fill="#3390CA" d="M340.7,40.2c-1.3-0.5-2.7,0.1-3.2,1.4c-0.5,1.3,0.1,2.7,1.4,3.2c0.3,0.1,0.6,0.2,0.9,0.2
	c1,0,1.9-0.6,2.3-1.6C342.6,42.2,341.9,40.7,340.7,40.2z"/>
<path fill="#3390CA" d="M386.8,48.2c-0.9-0.9-2.6-0.9-3.5,0c-0.5,0.5-0.7,1.1-0.7,1.8c0,0.7,0.3,1.3,0.7,1.8
	c0.5,0.5,1.1,0.7,1.8,0.7s1.3-0.3,1.8-0.7c0.5-0.5,0.7-1.1,0.7-1.8C387.5,49.3,387.2,48.7,386.8,48.2z"/>
<path fill="#3390CA" d="M85.3,77L110,60.2L134.7,77h8.3c0-0.4-0.1-0.8-0.2-1.1l-25.7-63.3c15,11,47.2,30.4,87.9,30.4
	c46.3,0,65-10.5,70.4-14.5l16.9,8.5H292l-2,40h10l-2-40h-0.3l18-9h9.3c1.7,0,3-1.3,3-3s-1.3-3-3-3h-7v-5c0-1.7-1.3-3-3-3s-3,1.3-3,3
	v5h-34v-5c0-1.7-1.3-3-3-3s-3,1.3-3,3v5h-7c-1.7,0-3,1.3-3,3c0,1.4,0.9,2.5,2.2,2.9c-1.5,0.7-3.2,1.3-5.2,2
	c-9.4,3.2-26.4,7.1-54,7.1c-53.2,0-92.6-35.8-93-36.2c0,0,0,0,0,0c-0.1-0.1-0.3-0.2-0.4-0.3c0,0-0.1-0.1-0.1-0.1
	c-0.1-0.1-0.2-0.1-0.3-0.2c-0.1,0-0.1,0-0.2-0.1c-0.2-0.1-0.3-0.1-0.5-0.1c0,0,0,0,0,0c-0.2,0-0.3,0-0.5,0c0,0,0,0-0.1,0
	c0,0-0.1,0-0.1,0c-0.1,0-0.3,0-0.4,0.1c-0.1,0-0.1,0-0.2,0c-0.1,0-0.3,0.1-0.4,0.1c0,0-0.1,0-0.1,0c-0.2,0.1-0.3,0.2-0.5,0.3
	c0,0-0.1,0-0.1,0.1c-0.1,0.1-0.2,0.2-0.3,0.3c0,0,0,0-0.1,0c0,0,0,0,0,0c-0.1,0.1-0.2,0.3-0.3,0.4c0,0,0,0,0,0
	c-0.1,0.1-0.2,0.3-0.2,0.4l-30,74C77.1,76.2,77,76.6,77,77H85.3z M302.3,28l-7.3,3.6l-7.3-3.6H302.3z M133.5,68.9l-18.2-12.4l10.3-7
	L133.5,68.9z M119.3,33.8l1.8,4.4l-4.9-2.7L119.3,33.8z M110,11l2.7,6.6l-2.7,1.9l-2.7-1.9L110,11z M110,26.8l4.3,3l-4.3,2.4
	l-4.3-2.4L110,26.8z M100.7,33.8l3.1,1.7l-4.9,2.7L100.7,33.8z M110,39l11.3,6.3L110,52.9l-11.3-7.7L110,39z M94.4,49.6l10.3,7
	L86.5,68.9L94.4,49.6z"/>
</svg>
