<?xml version="1.0" encoding="utf-8"?>
<!-- Generator: Adobe Illustrator 19.1.0, SVG Export Plug-In . SVG Version: 6.00 Build 0)  -->
<svg version="1.1" id="Layer_1" xmlns="http://www.w3.org/2000/svg" xmlns:xlink="http://www.w3.org/1999/xlink" x="0px" y="0px"
	 viewBox="0 0 400 100" enable-background="new 0 0 400 100" xml:space="preserve">
<path fill="#37B98D" d="M264,30v47h20V30H264z M276.7,65h-5c-1.4,0-2.5-1.1-2.5-2.5v-4.9c0-1.4,1.1-2.5,2.5-2.5l5,0
	c1.4,0,2.5,1.1,2.5,2.5v5C279.2,63.9,278.1,65,276.7,65z M276.7,45h-5c-1.4,0-2.5-1.1-2.5-2.5v-4.9c0-1.4,1.1-2.5,2.5-2.5l5,0
	c1.4,0,2.5,1.1,2.5,2.5v5C279.2,43.9,278.1,45,276.7,45z"/>
<path fill="#37B98D" d="M324,30v47h20V30H324z M336.7,65h-5c-1.4,0-2.5-1.1-2.5-2.5v-4.9c0-1.4,1.1-2.5,2.5-2.5l5,0
	c1.4,0,2.5,1.1,2.5,2.5v5C339.2,63.9,338.1,65,336.7,65z M336.7,45h-5c-1.4,0-2.5-1.1-2.5-2.5v-4.9c0-1.4,1.1-2.5,2.5-2.5l5,0
	c1.4,0,2.5,1.1,2.5,2.5v5C339.2,43.9,338.1,45,336.7,45z"/>
<path fill="#37B98D" d="M302.4,16.8L289.2,30v47h5V57.6c0-1.4,1.1-2.5,2.5-2.5l15-0.1c1.4,0,2.5,1.1,2.5,2.5V77h5V30L306,16.8
	C305,15.8,303.4,15.8,302.4,16.8z M309.2,35L309.2,35v7.5c0,1.4-1.1,2.5-2.5,2.5h-5c-1.4,0-2.5-1.1-2.5-2.5V35h0c0,0,0,0,0,0
	c0-2.7,2.2-5,4.9-5h0C306.9,30,309.2,32.2,309.2,35L309.2,35L309.2,35z"/>
<path fill="#37B98D" d="M94.2,25l-30,30v22h15V57.7c0-1.4,1.1-2.5,2.5-2.5l5-0.1c1.4,0,2.6,1.1,2.6,2.5V77h35V55L94.2,25z M106.7,65
	h-5c-1.4,0-2.5-1.1-2.5-2.5v-4.9c0-1.4,1.1-2.5,2.5-2.5l5,0c1.4,0,2.5,1.1,2.5,2.5v5C109.2,63.9,108.1,65,106.7,65z"/>
<path fill="#37B98D" d="M134.1,50.8l-15.1-15V23.6c0-1.4-1.1-2.5-2.5-2.5l-5,0.1c-1.4,0-2.5,1.1-2.5,2.5v2.1L95.9,12.5
	c-1-1-2.5-1-3.5,0L54.2,50.8c-1.2,1.2-1.2,3.1,0,4.2s3.1,1.2,4.2,0l35.8-35.8L129.9,55c1.2,1.2,3,1.2,4.2,0S135.3,51.9,134.1,50.8z"
	/>
<path fill="#37B98D" d="M222.2,50c-2.6,0-5-0.8-7-2.3c-2,1.4-4.4,2.3-7,2.3s-5-0.8-7-2.3c-2,1.4-4.4,2.3-7,2.3s-5-0.8-7-2.3
	c-2,1.4-4.4,2.3-7,2.3s-5-0.8-7-2.3c-2,1.4-4.4,2.3-7,2.3c-0.7,0-1.3-0.1-2-0.2V77h40V57.6c0-1.3,1.1-2.4,2.4-2.4l5.1-0.1
	c1.4,0,2.5,1.1,2.5,2.4V77h10V49.8C223.5,49.9,222.9,50,222.2,50z M191.8,70h-15.1c-1.3,0-2.4-1.1-2.4-2.4v-10
	c0-1.3,1.1-2.4,2.4-2.4l15.1-0.1c1.4,0,2.4,1.1,2.4,2.4v10.1C194.2,68.9,193.1,70,191.8,70z"/>
<path fill="#37B98D" d="M163.7,22.7l-4.5,15.1c0,3.9,3.1,7,7,7c3.9,0,7-3.1,7-7c0,3.9,3.1,7,7,7c3.9,0,7-3.1,7-7c0,3.9,3.1,7,7,7
	c3.9,0,7-3.1,7-7c0,3.9,3.1,7,7,7c3.9,0,7-3.1,7-7c0,3.9,3.1,7,7,7c3.9,0,7-3.1,7-7l-4.5-15.1c-0.3-1-1.2-1.7-2.3-1.7H166
	C164.9,21,164,21.7,163.7,22.7z"/>
<polygon fill="#37B98D" points="286.7,25 296.7,15 296.6,15 286.6,25 "/>
<path fill="#37B98D" d="M338.2,16.5c-0.9-0.9-2.2-1.5-3.5-1.5h-14.4L306,0.7c-1-1-2.5-1-3.5,0L288.2,15h-14.4
	c-1.3,0-2.6,0.5-3.5,1.5l-8.5,8.5h16.5h8.5l10-10l7.5-7.5l7.5,7.5h0l10,10h0h8.5h16.5L338.2,16.5z"/>
</svg>
