<?xml version="1.0" encoding="utf-8"?>
<!-- Generator: Adobe Illustrator 19.1.0, SVG Export Plug-In . SVG Version: 6.00 Build 0)  -->
<svg version="1.1" id="Layer_1" xmlns="http://www.w3.org/2000/svg" xmlns:xlink="http://www.w3.org/1999/xlink" x="0px" y="0px"
	 viewBox="0 0 400 100" enable-background="new 0 0 400 100" xml:space="preserve">
<path fill="#EC8732" d="M108.8,37V24.9c0-2.1-2.3-3.3-4-2.1L83.8,37V24.9c0-2.1-2.3-3.3-4-2.1L59.9,36.2c-0.7,0.5-1.1,1.3-1.1,2.1
	V77h60V57.7c0-1.4,1.1-2.5,2.5-2.6l4.9-0.1c1.4,0,2.6,1.1,2.6,2.6V77h10V39.6c0-1.4-1.2-2.6-2.6-2.6H108.8z M76.3,65h-5.1
	c-1.4,0-2.5-1.1-2.5-2.5v-5c0-1.4,1.1-2.5,2.4-2.5l5.1,0c1.4,0,2.5,1.1,2.5,2.5v5C78.8,63.9,77.7,65,76.3,65z M91.3,65h-5.1
	c-1.4,0-2.5-1.1-2.5-2.5v-5c0-1.4,1.1-2.5,2.4-2.5l5.1,0c1.4,0,2.5,1.1,2.5,2.5v5C93.8,63.9,92.7,65,91.3,65z M106.3,65h-5.1
	c-1.4,0-2.5-1.1-2.5-2.5v-5c0-1.4,1.1-2.5,2.4-2.5l5.1,0c1.4,0,2.5,1.1,2.5,2.5v5C108.8,63.9,107.7,65,106.3,65z"/>
<path fill="#EC8732" d="M128.8,32h-10l0.9-29.6c0-1.3,1.1-2.4,2.5-2.4h3.2c1.3,0,2.4,1.1,2.5,2.4L128.8,32z"/>
<circle fill="#EC8732" cx="211.3" cy="25" r="6"/>
<circle fill="#EC8732" cx="211.3" cy="11.5" r="2.5"/>
<circle fill="#EC8732" cx="211.3" cy="38.5" r="2.5"/>
<circle fill="#EC8732" cx="197.8" cy="25" r="2.5"/>
<circle fill="#EC8732" cx="224.8" cy="25" r="2.5"/>
<circle fill="#EC8732" cx="201.7" cy="15.5" r="2.5"/>
<circle fill="#EC8732" cx="220.8" cy="34.5" r="2.5"/>
<circle fill="#EC8732" cx="201.7" cy="34.5" r="2.5"/>
<circle fill="#EC8732" cx="220.8" cy="15.5" r="2.5"/>
<g>
	<polygon fill="#EC8732" points="209,58 209,48 200.3,48 197.5,58 	"/>
	<polygon fill="#EC8732" points="196.1,63 192.3,77 209,77 209,63 	"/>
</g>
<g>
	<polygon fill="#EC8732" points="225,58 222.3,48 215,48 215,58 	"/>
	<polygon fill="#EC8732" points="215,63 215,77 230.3,77 226.4,63 	"/>
</g>
<g>
	<path fill="#EC8732" d="M241.8,58l-4.8-8.7c-0.4-0.8-1.3-1.3-2.2-1.3h-6.5l2.8,10H241.8z"/>
	<path fill="#EC8732" d="M232.4,63l3.9,14H248c1.9,0,3.1-2,2.2-3.7L244.6,63H232.4z"/>
</g>
<g>
	<path fill="#EC8732" d="M178,63l-5.7,10.3c-0.9,1.7,0.3,3.7,2.2,3.7h11.8l3.9-14H178z"/>
	<path fill="#EC8732" d="M191.5,58l2.8-10h-6.5c-0.9,0-1.8,0.5-2.2,1.3l-4.8,8.7H191.5z"/>
</g>
<path fill="#EC8732" d="M317.8,25l-21.2-3.3L283.1,5c-0.7-0.9-2.1-0.1-1.7,1l7.7,20l-7.7,20c-0.4,1.1,1,1.9,1.7,1l13.5-16.7
	l21.2-3.3C319,26.8,319,25.2,317.8,25z"/>
<path fill="#EC8732" d="M314.6,36l15.2-2.4l9.7-12c0.7-0.9,2.1-0.1,1.7,1L335.6,37l5.5,14.4c0.4,1-1,1.8-1.7,1l-9.7-12L314.6,38
	C313.5,37.8,313.5,36.2,314.6,36z"/>
<polygon fill="#EC8732" points="292.1,43.5 289.6,77 299.6,77 296.6,38.1 "/>
<polygon fill="#EC8732" points="333.8,53 329.6,47.8 327.6,77 335.2,77 "/>
</svg>
