<?xml version="1.0" encoding="utf-8"?>
<!-- Generator: Adobe Illustrator 19.1.0, SVG Export Plug-In . SVG Version: 6.00 Build 0)  -->
<svg version="1.1" id="Layer_1" xmlns="http://www.w3.org/2000/svg" xmlns:xlink="http://www.w3.org/1999/xlink" x="0px" y="0px"
	 viewBox="0 0 400 100" enable-background="new 0 0 400 100" xml:space="preserve">
<path fill="#525659" d="M170,2.5V77h20V59.5c0-1.4,1.1-2.5,2.5-2.5h15c1.4,0,2.5,1.1,2.5,2.5V77h20V2.5c0-1.4-1.1-2.5-2.5-2.5h-55
	C171.1,0,170,1.1,170,2.5z M182.5,11.1l5,0c1.4,0,2.5,1.1,2.5,2.5v5c0,1.4-1.1,2.5-2.5,2.5h-5c-1.4,0-2.5-1.1-2.5-2.5v-5
	C180,12.2,181.1,11.1,182.5,11.1z M187.5,44h-5c-1.4,0-2.5-1.1-2.5-2.5v-5c0-1.4,1.1-2.5,2.5-2.5l5,0c1.4,0,2.5,1.1,2.5,2.5v5
	C190,42.9,188.9,44,187.5,44z M202.5,44h-5c-1.4,0-2.5-1.1-2.5-2.5v-5c0-1.4,1.1-2.5,2.5-2.5l5,0c1.4,0,2.5,1.1,2.5,2.5v5
	C205,42.9,203.9,44,202.5,44z M202.5,21h-5c-1.4,0-2.5-1.1-2.5-2.5v-5c0-1.4,1.1-2.5,2.5-2.5l5,0c1.4,0,2.5,1.1,2.5,2.5v5
	C205,19.9,203.9,21,202.5,21z M217.5,44h-5c-1.4,0-2.5-1.1-2.5-2.5v-5c0-1.4,1.1-2.5,2.5-2.5l5,0c1.4,0,2.5,1.1,2.5,2.5v5
	C220,42.9,218.9,44,217.5,44z M217.5,21h-5c-1.4,0-2.5-1.1-2.5-2.5v-5c0-1.4,1.1-2.5,2.5-2.5l5,0c1.4,0,2.5,1.1,2.5,2.5v5
	C220,19.9,218.9,21,217.5,21z"/>
<path fill="#525659" d="M70,2.5V77h20V59.5c0-1.4,1.1-2.5,2.5-2.5h15c1.4,0,2.5,1.1,2.5,2.5V77h20V2.5c0-1.4-1.1-2.5-2.5-2.5h-55
	C71.1,0,70,1.1,70,2.5z M82.5,11.1l5,0c1.4,0,2.5,1.1,2.5,2.5v5c0,1.4-1.1,2.5-2.5,2.5h-5c-1.4,0-2.5-1.1-2.5-2.5v-5
	C80,12.2,81.1,11.1,82.5,11.1z M87.5,44h-5c-1.4,0-2.5-1.1-2.5-2.5v-5c0-1.4,1.1-2.5,2.5-2.5l5,0c1.4,0,2.5,1.1,2.5,2.5v5
	C90,42.9,88.9,44,87.5,44z M102.5,44h-5c-1.4,0-2.5-1.1-2.5-2.5v-5c0-1.4,1.1-2.5,2.5-2.5l5,0c1.4,0,2.5,1.1,2.5,2.5v5
	C105,42.9,103.9,44,102.5,44z M102.5,21h-5c-1.4,0-2.5-1.1-2.5-2.5v-5c0-1.4,1.1-2.5,2.5-2.5l5,0c1.4,0,2.5,1.1,2.5,2.5v5
	C105,19.9,103.9,21,102.5,21z M117.5,44h-5c-1.4,0-2.5-1.1-2.5-2.5v-5c0-1.4,1.1-2.5,2.5-2.5l5,0c1.4,0,2.5,1.1,2.5,2.5v5
	C120,42.9,118.9,44,117.5,44z M117.5,21h-5c-1.4,0-2.5-1.1-2.5-2.5v-5c0-1.4,1.1-2.5,2.5-2.5l5,0c1.4,0,2.5,1.1,2.5,2.5v5
	C120,19.9,118.9,21,117.5,21z"/>
<path fill="#525659" d="M328,50c-2.6,0-5-0.8-7-2.3c-2,1.4-4.4,2.3-7,2.3s-5-0.8-7-2.3c-2,1.4-4.4,2.3-7,2.3s-5-0.8-7-2.3
	c-2,1.4-4.4,2.3-7,2.3s-5-0.8-7-2.3c-2,1.4-4.4,2.3-7,2.3c-0.7,0-1.3-0.1-2-0.2V77h40V57.6c0-1.3,1.1-2.4,2.4-2.4l5.1-0.1
	c1.4,0,2.5,1.1,2.5,2.4V77h10V49.8C329.3,49.9,328.7,50,328,50z M297.6,70h-15.1c-1.3,0-2.4-1.1-2.4-2.4v-10c0-1.3,1.1-2.4,2.4-2.4
	l15.1-0.1c1.4,0,2.4,1.1,2.4,2.4v10.1C300,68.9,298.9,70,297.6,70z"/>
<path fill="#525659" d="M269.5,22.7L265,37.8c0,3.9,3.1,7,7,7s7-3.1,7-7c0,3.9,3.1,7,7,7s7-3.1,7-7c0,3.9,3.1,7,7,7s7-3.1,7-7
	c0,3.9,3.1,7,7,7s7-3.1,7-7c0,3.9,3.1,7,7,7s7-3.1,7-7l-4.5-15.1c-0.3-1-1.2-1.7-2.3-1.7h-56.4C270.7,21,269.8,21.7,269.5,22.7z"/>
</svg>
