<?xml version="1.0" encoding="utf-8"?>
<!-- Generator: Adobe Illustrator 19.0.0, SVG Export Plug-In . SVG Version: 6.00 Build 0)  -->
<svg version="1.1" id="Layer_1" xmlns="http://www.w3.org/2000/svg" xmlns:xlink="http://www.w3.org/1999/xlink" x="0px" y="0px"
	 viewBox="-349 101 300 300" style="enable-background:new -349 101 300 300;" xml:space="preserve">
<style type="text/css">
	.st0{fill:#886BAF;}
	.st1{fill:#AC91C4;}
	.st2{fill:#C9B5D8;}
	.st3{opacity:0.14;fill:#FCF1C9;enable-background:new    ;}
	.st4{fill:#BBBEC1;}
	.st5{opacity:0.1;fill:#363738;enable-background:new    ;}
	.st6{fill:#F5D871;}
	.st7{fill:#D2D3D4;}
	.st8{fill:#36B88C;}
	.st9{fill:#2D9F77;}
	.st10{opacity:0.5;fill:#FFFFFF;enable-background:new    ;}
</style>
<g id="Leafbulb">
	<circle class="st0" cx="-199" cy="251" r="100"/>
	<circle class="st1" cx="-199" cy="251" r="80"/>
	<circle class="st2" cx="-199" cy="251" r="60"/>
	<circle class="st3" cx="-199" cy="251" r="92.5"/>
	<circle class="st3" cx="-199" cy="251" r="50"/>
	<circle class="st3" cx="-199" cy="251" r="72.5"/>
	<path class="st4" d="M-179,311c0,11-9,20-20,20s-20-9-20-20v-15h40V311z"/>
	<path class="st5" d="M-179,311c0,11-9,20-20,20s-20-9-20-20l40-15V311z"/>
	<path class="st6" d="M-159,251c0-22.1-17.9-40-40-40s-40,17.9-40,40c0,11,8.9,24.1,8.9,24.1c1.5,2.3,4,6.1,5.4,8.4l7.1,14
		c2,1.9,5.8,3.5,8.6,3.5h20c2.8,0,6.7-1.5,8.7-3.4l6.9-14c1.4-2.3,3.9-6.1,5.4-8.4C-168,275.2-159,262.1-159,251z"/>
	<path class="st7" d="M-179,311h-18.8l21.1-10.5c0.1,0,0.2-0.1,0.2-0.2c0.2-0.1,0.3-0.2,0.5-0.3c0.1-0.1,0.2-0.2,0.4-0.3
		c0.1-0.1,0.2-0.2,0.4-0.3c0.1-0.1,0.2-0.2,0.3-0.4c0.1-0.1,0.2-0.3,0.3-0.4s0.2-0.3,0.2-0.4c0.1-0.1,0.1-0.3,0.2-0.5
		c0.1-0.2,0.1-0.3,0.1-0.5s0.1-0.3,0.1-0.5s0-0.4,0.1-0.5c0-0.1,0-0.2,0-0.3c0-0.1,0-0.1,0-0.1c0-0.2,0-0.4-0.1-0.5
		c0-0.2,0-0.3-0.1-0.5c0-0.1-0.1-0.3-0.1-0.4c-0.1-0.2-0.1-0.3-0.2-0.5c0,0,0-0.1-0.1-0.1c0-0.1-0.1-0.2-0.2-0.2
		c-0.1-0.2-0.2-0.3-0.3-0.5c-0.1-0.1-0.2-0.2-0.3-0.4c-0.1-0.1-0.2-0.2-0.3-0.4c-0.1-0.1-0.2-0.2-0.4-0.3c-0.1-0.1-0.3-0.2-0.4-0.3
		c-0.1-0.1-0.3-0.2-0.4-0.2c-0.1-0.1-0.3-0.1-0.4-0.2c-0.2-0.1-0.3-0.1-0.5-0.1s-0.3-0.1-0.5-0.1s-0.4,0-0.5-0.1c-0.1,0-0.2,0-0.3,0
		h-40c-2.8,0-5,2.2-5,5s2.2,5,5,5h18.8l-21.1,10.5c-0.1,0-0.2,0.1-0.2,0.2c-0.2,0.1-0.3,0.2-0.5,0.3c-0.1,0.1-0.2,0.2-0.4,0.3
		c-0.1,0.1-0.2,0.2-0.4,0.3c-0.1,0.1-0.2,0.2-0.3,0.4c-0.1,0.1-0.2,0.3-0.3,0.4s-0.2,0.3-0.2,0.4c-0.1,0.1-0.1,0.3-0.2,0.5
		c-0.1,0.2-0.1,0.3-0.1,0.5s-0.1,0.3-0.1,0.5s0,0.4-0.1,0.5c0,0.1,0,0.2,0,0.3c0,0.1,0,0.1,0,0.1c0,0.2,0,0.4,0.1,0.5
		c0,0.2,0,0.3,0.1,0.5c0,0.1,0.1,0.3,0.1,0.4c0.1,0.2,0.1,0.3,0.2,0.5c0,0,0,0.1,0.1,0.1c0.1,0.2,0.2,0.3,0.3,0.4l0.1,0.1
		c0.2,0.2,0.3,0.5,0.5,0.7l0.1,0.1c0.2,0.2,0.3,0.3,0.5,0.4c0.1,0,0.1,0.1,0.2,0.1c0.2,0.2,0.5,0.3,0.7,0.4h0.1
		c0.2,0.1,0.5,0.2,0.7,0.2c0.1,0,0.2,0,0.2,0.1c0.3,0.1,0.6,0.1,0.9,0.1l0,0h40c2.8,0,5-2.2,5-5C-174.2,313-176.2,311-179,311z"/>
	<path class="st8" d="M-204,235.7c-3,2.5-6.7,6.2-9.7,11l9.7,5.6V235.7z"/>
	<path class="st8" d="M-180.5,254.6c-2.8-8.7-9-15.1-13.5-18.9v26.6L-180.5,254.6z"/>
	<path class="st8" d="M-217.9,255.9c-0.7,2.5-1.1,5.2-1.1,8.1c0,9.3,6.4,17.1,15,19.3v-19.5L-217.9,255.9z"/>
	<path class="st8" d="M-194,283.3c8.2-2.1,14.4-9.3,14.9-18.1l-14.9,8.6V283.3z"/>
	<path class="st9" d="M-180.5,254.6l-13.5,7.8v-26.6c-2.9-2.4-5-3.7-5-3.7s-2.1,1.3-5,3.7v16.6l-9.7-5.6c-1.7,2.7-3.2,5.8-4.1,9.2
		l13.9,8v19.5v7.7h10v-7.7V274l14.9-8.6c0-0.4,0.1-0.8,0.1-1.3C-179,260.6-179.6,257.5-180.5,254.6z"/>
	<path class="st10" d="M-237.2,239.2c2.1,1.2,4.6,1.8,7.2,1.8c8.3,0,15-6.7,15-15c0-3.8-1.4-7.2-3.7-9.8
		C-227.5,221.2-234.2,229.3-237.2,239.2z"/>
	<path class="st5" d="M-222.4,319.6c0.2,0.2,0.3,0.3,0.5,0.4c0.1,0,0.1,0.1,0.2,0.1c0.2,0.2,0.5,0.3,0.7,0.4h0.1
		c0.2,0.1,0.5,0.2,0.7,0.2c0.1,0,0.2,0,0.2,0.1c0.3,0.1,0.6,0.1,0.9,0.1l0,0h40c2.8,0,5-2.2,5-5c0-2.8-2.2-5-5-5h-18.8l21.1-10.5
		c0.1,0,0.2-0.1,0.2-0.2c0.2-0.1,0.3-0.2,0.5-0.3c0.1-0.1,0.2-0.2,0.4-0.3c0.1-0.1,0.2-0.2,0.4-0.3c0.1-0.1,0.2-0.2,0.3-0.4
		c0.1-0.1,0.2-0.3,0.3-0.4c0.1-0.1,0.2-0.3,0.2-0.4c0.1-0.1,0.1-0.3,0.2-0.5c0.1-0.2,0.1-0.3,0.1-0.5c0-0.2,0.1-0.3,0.1-0.5
		c0-0.2,0-0.4,0.1-0.5c0-0.1,0-0.2,0-0.3s0-0.1,0-0.1c0-0.2,0-0.4-0.1-0.5c0-0.2,0-0.3-0.1-0.5c0-0.1-0.1-0.3-0.1-0.4
		c-0.1-0.2-0.1-0.3-0.2-0.5c0,0,0-0.1-0.1-0.1c0-0.1-0.1-0.2-0.2-0.2c-0.1-0.2-0.2-0.3-0.3-0.5c-0.1-0.1-0.2-0.2-0.3-0.4l-0.1-0.1
		L-223,319c0.1,0.2,0.3,0.4,0.4,0.5C-222.5,319.5-222.5,319.6-222.4,319.6z"/>
</g>
</svg>
