<?xml version="1.0" encoding="utf-8"?>
<!-- Generator: Adobe Illustrator 19.0.0, SVG Export Plug-In . SVG Version: 6.00 Build 0)  -->
<svg version="1.1" id="Layer_1" xmlns="http://www.w3.org/2000/svg" xmlns:xlink="http://www.w3.org/1999/xlink" x="0px" y="0px"
	 viewBox="-349 101 300 300" style="enable-background:new -349 101 300 300;" xml:space="preserve">
<style type="text/css">
	.st0{fill:#EB6C5F;}
	.st1{opacity:0.5;fill:#EF938B;enable-background:new    ;}
	.st2{fill:#BC372C;}
	.st3{opacity:0.1;fill:#363738;enable-background:new    ;}
	.st4{fill:#F9DCD8;}
	.st5{fill:#F5BCB6;}
	.st6{fill:#E5E6E7;}
	.st7{fill:none;stroke:#F9DCD8;stroke-width:5;stroke-linecap:round;stroke-miterlimit:10;}
	.st8{fill:#689E41;}
	.st9{clip-path:url(#SVGID_4_);fill:#689E41;}
	.st10{fill:#81C452;}
	.st11{clip-path:url(#SVGID_7_);fill:#81C452;}
	.st12{fill:#D6E9C2;}
	.st13{fill:none;stroke:#EF938B;stroke-width:3;stroke-linecap:round;stroke-miterlimit:10;}
	.st14{fill:#92CA6B;}
	.st15{clip-path:url(#SVGID_9_);fill:#92CA6B;}
	.st16{fill:#CE752E;}
	.st17{fill:#D2D3D4;}
	.st18{fill:#AF6429;}
	.st19{fill:#363738;}
</style>
<g id="Piggy_Bank">
	<circle class="st0" cx="-199" cy="251" r="100"/>
	<path class="st1" d="M-199,151c-55.2,0-100,44.8-100,100c0,9.6,1.3,18.8,3.8,27.5l84.7-32.3l50.8-34.9l29.7,9.3l18.5-18.2
		C-128.6,171.8-161.4,151-199,151z"/>
	<path class="st2" d="M-285.6,301c17.3,29.9,49.6,50,86.6,50s69.3-20.1,86.6-50H-285.6z"/>
	<ellipse class="st3" cx="-199" cy="323.5" rx="60" ry="7.5"/>
	<ellipse class="st4" cx="-199" cy="271" rx="55" ry="47.5"/>
	<path class="st5" d="M-217.9,228.7c4.2,7.4,1.7,16.8-5.6,21c-7.3,4.2-22.7-22.4-15.4-26.6C-231.6,218.8-222.2,221.3-217.9,228.7z"
		/>
	<circle class="st6" cx="-207.6" cy="161.5" r="3"/>
	<path class="st4" d="M-217.9,228.7c4.2,7.4,1.7,16.8-5.6,21l-15.4-26.6C-231.6,218.8-222.2,221.3-217.9,228.7z"/>
	<path class="st4" d="M-252,283.5L-252,283.5c-5.5,0-10-4.5-10-10v-10c0-5.5,4.5-10,10-10l0,0c5.5,0,10,4.5,10,10v10
		C-242,279-246.5,283.5-252,283.5z"/>
	<path class="st7" d="M-153.1,251.8c5.5-11.4,25.8,0,15.8,3.8c-10,3.8-2.7-20.4,4.2-14.2"/>
	<g>
		<g>
			<g>
				<path id="SVGID_1_" class="st8" d="M-205.2,172.9c0,0-3.6-2.2-5.5-1c-2,1.2-9,11.5-2.3,28.6l20.8-7.7c0,0-8.6-23.2,1.5-33.8
					L-205.2,172.9z"/>
			</g>
			<g>
				<defs>
					<path id="SVGID_2_" d="M-199.2,174.7c0,0-0.5-4.2-2.6-4.9c-2.2-0.8-14.6,0-23.9,15.8l18.9,11.6c0,0,12.9-21.1,27.5-19.7
						L-199.2,174.7z"/>
				</defs>
				<clipPath id="SVGID_4_">
					<use xlink:href="#SVGID_2_"  style="overflow:visible;"/>
				</clipPath>
				
					<rect x="-228.5" y="156.6" transform="matrix(-0.6171 -0.7869 0.7869 -0.6171 -471.5525 130.5179)" class="st9" width="49" height="46.8"/>
			</g>
		</g>
		<g>
			<g>
				<path id="SVGID_3_" class="st10" d="M-210.5,171.7c1.9-0.4,5.3,1.2,5.3,1.2l14.4-14L-210.5,171.7z"/>
			</g>
			<g>
				<defs>
					<path id="SVGID_6_" d="M-210.9,161.7c1.5,1.2,2.3,4.9,2.3,4.9l19.9,2.7L-210.9,161.7z"/>
				</defs>
				<clipPath id="SVGID_7_">
					<use xlink:href="#SVGID_6_"  style="overflow:visible;"/>
				</clipPath>
				
					<rect x="-210.9" y="154.1" transform="matrix(-0.6171 -0.7869 0.7869 -0.6171 -455.0557 111.1728)" class="st11" width="20.9" height="24.4"/>
			</g>
		</g>
		<path class="st12" d="M-195.9,178c0.3,3-3.4,5.9-8.4,6.5s-9.3-1.4-9.6-4.4s3.4-5.9,8.4-6.5C-200.5,172.9-196.2,174.9-195.9,178"/>
	</g>
	<path class="st13" d="M-211,229.7c0,0,5.2-1,12-1s12,1,12,1"/>
	<g>
		<g>
			<g>
				<path id="SVGID_5_" class="st14" d="M-198.7,185.8c0,0,0.5,5.1-1,11.5s-3.5,15.9-11.4,28.3l19.9,9.8c0,0,10-16.4,9.8-49.6
					C-181.4,185.8-198.7,185.8-198.7,185.8z"/>
			</g>
			<g>
				<defs>
					<path id="SVGID_8_" d="M-176,195.9c0,0-4.2,3-10.5,4.9s-15.5,4.9-30.2,4.3l1.5,22.1c0,0,19.2,0.5,47.9-16.3
						C-167.3,210.9-176,195.9-176,195.9z"/>
				</defs>
				<clipPath id="SVGID_9_">
					<use xlink:href="#SVGID_8_"  style="overflow:visible;"/>
				</clipPath>
				
					<rect x="-225" y="185.2" transform="matrix(-0.5 -0.866 0.866 -0.5 -476.475 146.0892)" class="st15" width="57.9" height="50.7"/>
			</g>
		</g>
		<path class="st12" d="M-183.9,210.6c-0.8,3.6-5.3,5.7-10.2,4.7s-8.2-4.8-7.4-8.5c0.8-3.6,5.3-5.7,10.2-4.7
			C-186.5,203.2-183.2,207-183.9,210.6"/>
	</g>
	<circle class="st16" cx="-199.1" cy="215.3" r="4"/>
	<circle class="st5" cx="-174" cy="306" r="20"/>
	<circle class="st6" cx="-204.8" cy="229.5" r="6"/>
	<path class="st17" d="M-200.5,233.8c-2.3,2.3-6.1,2.3-8.5,0l8.5-8.5C-198.2,227.6-198.2,231.4-200.5,233.8z"/>
	<path class="st18" d="M-196.3,218.2c-1.6,1.6-4.1,1.6-5.7,0l5.7-5.7C-194.7,214.1-194.7,216.6-196.3,218.2z"/>
	<circle class="st5" cx="-224" cy="306" r="20"/>
	<path class="st4" d="M-185.5,229.6c0,0.1,0,0.2,0,0.3c-0.1,0.7-0.8,1.2-1.5,1.2c-0.1,0-0.2,0-0.3,0s-5.2-1-11.7-1s-11.7,1-11.7,1
		c-0.8,0.2-1.6-0.4-1.8-1.2c0-0.1,0-0.2,0-0.3C-250.2,236.4-254,271-254,271c0,26.2,24.6,47.5,55,47.5s55-21.3,55-47.5
		C-144,271-147.8,236.4-185.5,229.6z"/>
	<path class="st5" d="M-199,310.1c-23.5,0-43.8-11.6-53.6-28.6c5.6,21.1,27.4,36.9,53.6,36.9s48.1-15.8,53.6-36.9
		C-155.2,298.5-175.5,310.1-199,310.1z"/>
	<path class="st3" d="M-199,315.9c-14.2,0-27.3-3.9-38-10.6c9.9,8.1,23.2,13.2,38,13.2s28.1-5,38-13.2
		C-171.7,312-184.8,315.9-199,315.9z"/>
	<circle class="st19" cx="-239" cy="257" r="4"/>
	<circle class="st6" cx="-210.5" cy="198.3" r="5"/>
	<circle class="st16" cx="-176.4" cy="172.8" r="4"/>
	<path class="st18" d="M-173.6,175.6c-1.6,1.6-4.1,1.6-5.7,0l5.7-5.7C-172,171.6-172,174.1-173.6,175.6z"/>
	<circle class="st6" cx="-184.9" cy="175.7" r="6"/>
	<path class="st17" d="M-205.5,163.6c-1.2,1.2-3.1,1.2-4.2,0l4.2-4.2C-204.3,160.5-204.3,162.4-205.5,163.6z"/>
	<path class="st17" d="M-206.9,201.9c-2,2-5.1,2-7.1,0l7.1-7.1C-205,196.7-205,199.9-206.9,201.9z"/>
	<path class="st17" d="M-180.7,179.9c-2.3,2.3-6.1,2.3-8.5,0l8.5-8.5C-178.4,173.8-178.4,177.6-180.7,179.9z"/>
</g>
</svg>
