<?xml version="1.0" encoding="utf-8"?>
<!-- Generator: Adobe Illustrator 19.0.0, SVG Export Plug-In . SVG Version: 6.00 Build 0)  -->
<svg version="1.1" xmlns="http://www.w3.org/2000/svg" xmlns:xlink="http://www.w3.org/1999/xlink" x="0px" y="0px"
	 viewBox="0 0 300 300" enable-background="new 0 0 300 300" xml:space="preserve">
<g id="Leafbulb">
	<circle fill="#886BAF" cx="150" cy="458" r="100"/>
	<circle fill="#AC91C4" cx="150" cy="458" r="80"/>
	<circle fill="#C9B5D8" cx="150" cy="458" r="60"/>
	<circle opacity="0.14" fill="#FCF1C9" cx="150" cy="458" r="92.5"/>
	<circle opacity="0.14" fill="#FCF1C9" cx="150" cy="458" r="50"/>
	<circle opacity="0.14" fill="#FCF1C9" cx="150" cy="458" r="72.5"/>
	<path fill="#BBBEC1" d="M170,518c0,11-9,20-20,20s-20-9-20-20v-15h40V518z"/>
	<path opacity="0.1" fill="#363738" d="M170,518c0,11-9,20-20,20s-20-9-20-20l40-15V518z"/>
	<path fill="#F5D871" d="M190,458c0-22.1-17.9-40-40-40s-40,17.9-40,40c0,11,8.9,24.1,8.9,24.1c1.5,2.3,4,6.1,5.4,8.4l7.1,14
		c2,1.9,5.8,3.5,8.6,3.5h20c2.8,0,6.7-1.5,8.7-3.4l6.9-14c1.4-2.3,3.9-6.1,5.4-8.4C181,482.2,190,469.1,190,458z"/>
	<path fill="#D2D3D4" d="M170,518h-18.8l21.1-10.5c0.1,0,0.2-0.1,0.2-0.2c0.2-0.1,0.3-0.2,0.5-0.3c0.1-0.1,0.2-0.2,0.4-0.3
		c0.1-0.1,0.2-0.2,0.4-0.3c0.1-0.1,0.2-0.2,0.3-0.4c0.1-0.1,0.2-0.3,0.3-0.4c0.1-0.1,0.2-0.3,0.2-0.4c0.1-0.1,0.1-0.3,0.2-0.5
		c0.1-0.2,0.1-0.3,0.1-0.5c0-0.2,0.1-0.3,0.1-0.5c0-0.2,0-0.4,0.1-0.5c0-0.1,0-0.2,0-0.3c0-0.1,0-0.1,0-0.1c0-0.2,0-0.4-0.1-0.5
		c0-0.2,0-0.3-0.1-0.5c0-0.1-0.1-0.3-0.1-0.4c-0.1-0.2-0.1-0.3-0.2-0.5c0,0,0-0.1-0.1-0.1c0-0.1-0.1-0.2-0.2-0.2
		c-0.1-0.2-0.2-0.3-0.3-0.5c-0.1-0.1-0.2-0.2-0.3-0.4c-0.1-0.1-0.2-0.2-0.3-0.4c-0.1-0.1-0.2-0.2-0.4-0.3c-0.1-0.1-0.3-0.2-0.4-0.3
		c-0.1-0.1-0.3-0.2-0.4-0.2c-0.1-0.1-0.3-0.1-0.4-0.2c-0.2-0.1-0.3-0.1-0.5-0.1c-0.2,0-0.3-0.1-0.5-0.1c-0.2,0-0.4,0-0.5-0.1
		c-0.1,0-0.2,0-0.3,0h-40c-2.8,0-5,2.2-5,5s2.2,5,5,5h18.8l-21.1,10.5c-0.1,0-0.2,0.1-0.2,0.2c-0.2,0.1-0.3,0.2-0.5,0.3
		c-0.1,0.1-0.2,0.2-0.4,0.3c-0.1,0.1-0.2,0.2-0.4,0.3c-0.1,0.1-0.2,0.2-0.3,0.4c-0.1,0.1-0.2,0.3-0.3,0.4c-0.1,0.1-0.2,0.3-0.2,0.4
		c-0.1,0.1-0.1,0.3-0.2,0.5c-0.1,0.2-0.1,0.3-0.1,0.5c0,0.2-0.1,0.3-0.1,0.5c0,0.2,0,0.4-0.1,0.5c0,0.1,0,0.2,0,0.3
		c0,0.1,0,0.1,0,0.1c0,0.2,0,0.4,0.1,0.5c0,0.2,0,0.3,0.1,0.5c0,0.1,0.1,0.3,0.1,0.4c0.1,0.2,0.1,0.3,0.2,0.5c0,0,0,0.1,0.1,0.1
		c0.1,0.2,0.2,0.3,0.3,0.4c0,0,0.1,0.1,0.1,0.1c0.2,0.2,0.3,0.5,0.5,0.7c0,0,0.1,0.1,0.1,0.1c0.2,0.2,0.3,0.3,0.5,0.4
		c0.1,0,0.1,0.1,0.2,0.1c0.2,0.2,0.5,0.3,0.7,0.4c0,0,0.1,0,0.1,0c0.2,0.1,0.5,0.2,0.7,0.2c0.1,0,0.2,0,0.2,0.1
		c0.3,0.1,0.6,0.1,0.9,0.1c0,0,0,0,0,0h40c2.8,0,5-2.2,5-5S172.8,518,170,518z"/>
	<path fill="#36B88C" d="M145,442.7c-3,2.5-6.7,6.2-9.7,11l9.7,5.6V442.7z"/>
	<path fill="#36B88C" d="M168.5,461.6c-2.8-8.7-9-15.1-13.5-18.9v26.6L168.5,461.6z"/>
	<path fill="#36B88C" d="M131.1,462.9c-0.7,2.5-1.1,5.2-1.1,8.1c0,9.3,6.4,17.1,15,19.3v-19.5L131.1,462.9z"/>
	<path fill="#36B88C" d="M155,490.3c8.2-2.1,14.4-9.3,14.9-18.1l-14.9,8.6V490.3z"/>
	<path fill="#2D9F77" d="M168.5,461.6l-13.5,7.8v-26.6c-2.9-2.4-5-3.7-5-3.7s-2.1,1.3-5,3.7v16.6l-9.7-5.6c-1.7,2.7-3.2,5.8-4.1,9.2
		l13.9,8v19.5v7.7h10v-7.7v-9.5l14.9-8.6c0-0.4,0.1-0.8,0.1-1.3C170,467.6,169.4,464.5,168.5,461.6z"/>
	<path opacity="0.5" fill="#FFFFFF" d="M111.8,446.2c2.1,1.2,4.6,1.8,7.2,1.8c8.3,0,15-6.7,15-15c0-3.8-1.4-7.2-3.7-9.8
		C121.5,428.2,114.8,436.3,111.8,446.2z"/>
	<path opacity="0.1" fill="#363738" d="M126.6,526.6c0.2,0.2,0.3,0.3,0.5,0.4c0.1,0,0.1,0.1,0.2,0.1c0.2,0.2,0.5,0.3,0.7,0.4
		c0,0,0.1,0,0.1,0c0.2,0.1,0.5,0.2,0.7,0.2c0.1,0,0.2,0,0.2,0.1c0.3,0.1,0.6,0.1,0.9,0.1c0,0,0,0,0,0h40c2.8,0,5-2.2,5-5s-2.2-5-5-5
		h-18.8l21.1-10.5c0.1,0,0.2-0.1,0.2-0.2c0.2-0.1,0.3-0.2,0.5-0.3c0.1-0.1,0.2-0.2,0.4-0.3c0.1-0.1,0.2-0.2,0.4-0.3
		c0.1-0.1,0.2-0.2,0.3-0.4c0.1-0.1,0.2-0.3,0.3-0.4c0.1-0.1,0.2-0.3,0.2-0.4c0.1-0.1,0.1-0.3,0.2-0.5c0.1-0.2,0.1-0.3,0.1-0.5
		c0-0.2,0.1-0.3,0.1-0.5c0-0.2,0-0.4,0.1-0.5c0-0.1,0-0.2,0-0.3c0-0.1,0-0.1,0-0.1c0-0.2,0-0.4-0.1-0.5c0-0.2,0-0.3-0.1-0.5
		c0-0.1-0.1-0.3-0.1-0.4c-0.1-0.2-0.1-0.3-0.2-0.5c0,0,0-0.1-0.1-0.1c0-0.1-0.1-0.2-0.2-0.2c-0.1-0.2-0.2-0.3-0.3-0.5
		c-0.1-0.1-0.2-0.2-0.3-0.4c0,0-0.1-0.1-0.1-0.1L126,526c0.1,0.2,0.3,0.4,0.4,0.5C126.5,526.5,126.5,526.6,126.6,526.6z"/>
</g>
<g id="Sol">
	<path fill="#3583B4" d="M-158,458l-38.3,92.4c4.8,2,9.6,3.6,14.5,4.8C-174,557-166,558-158,558V458z"/>
	<path fill="#3390CA" d="M-158,458l-92.4,38.3c3.1,7.4,7,14.4,11.7,20.9c0,0,0.1,0.1,0.1,0.1c0.8,1,1.5,2,2.3,3
		c0.4,0.5,0.8,1,1.3,1.5c0.5,0.6,1,1.2,1.5,1.7c0.8,0.9,1.7,1.9,2.5,2.8c0.2,0.2,0.4,0.4,0.6,0.6c0.5,0.6,1.1,1.1,1.7,1.7L-158,458z
		"/>
	<path fill="#388AC0" d="M-158,458l-70.7,70.7c0.6,0.6,1.2,1.2,1.8,1.8c0,0,0,0,0,0c1.1,1,2.1,2,3.2,2.9c0.2,0.2,0.4,0.4,0.6,0.6
		c0.6,0.5,1.2,1,1.8,1.5c0.8,0.6,1.6,1.3,2.4,1.9c0.4,0.3,0.8,0.6,1.3,1c1,0.8,2.1,1.5,3.1,2.2c0.2,0.1,0.4,0.3,0.6,0.4
		c5.4,3.6,11.3,6.8,17.6,9.4L-158,458z"/>
	<path fill="#3390CA" d="M-158,458l92.4,38.3c2-4.8,3.6-9.6,4.8-14.5C-59,474-58,466-58,458H-158z"/>
	<path fill="#52A1D4" d="M-158,458h100c0-5.6-0.5-11.1-1.4-16.6c0-0.1,0-0.2,0-0.2c-0.1-0.6-0.2-1.1-0.3-1.7c-0.1-0.3-0.1-0.7-0.2-1
		c-0.1-0.3-0.1-0.6-0.2-1c-0.1-0.6-0.2-1.1-0.4-1.7c0-0.1,0-0.2-0.1-0.2c-1.3-5.4-3-10.7-5.1-15.9L-158,458z"/>
	<path fill="#52A1D4" d="M-158,458h-100c0,5.6,0.5,11.1,1.4,16.6c0,0.1,0,0.2,0,0.2c0.1,0.6,0.2,1.1,0.3,1.7c0.1,0.3,0.1,0.7,0.2,1
		c0.1,0.3,0.1,0.6,0.2,1c0.1,0.6,0.2,1.1,0.4,1.7c0,0.1,0,0.2,0.1,0.2c1.3,5.4,3,10.7,5.1,15.9L-158,458z"/>
	<path fill="#76B0D8" d="M-158,458l-92.4-38.3c-2,4.8-3.6,9.6-4.8,14.5C-257,442-258,450-258,458H-158z"/>
	<path fill="#76B0D8" d="M-158,458l92.4-38.3c-3.1-7.4-7-14.4-11.7-20.9c0,0-0.1-0.1-0.1-0.1c-0.8-1-1.5-2-2.3-3
		c-0.4-0.5-0.8-1-1.3-1.5c-0.5-0.6-1-1.2-1.5-1.7c-0.8-0.9-1.7-1.9-2.5-2.8c-0.2-0.2-0.4-0.4-0.6-0.6c-0.5-0.6-1.1-1.1-1.7-1.7
		L-158,458z"/>
	<path fill="#90BBDE" d="M-158,458l70.7-70.7c-0.6-0.6-1.2-1.2-1.8-1.8c0,0,0,0,0,0c-1.1-1-2.1-2-3.2-2.9c-0.2-0.2-0.4-0.4-0.6-0.6
		c-0.6-0.5-1.2-1-1.8-1.5c-0.8-0.6-1.6-1.3-2.4-1.9c-0.4-0.3-0.8-0.6-1.3-1c-1-0.8-2.1-1.5-3.1-2.2c-0.2-0.1-0.4-0.3-0.6-0.4
		c-5.4-3.6-11.3-6.8-17.6-9.4L-158,458z"/>
	<path fill="#388AC0" d="M-158,458l70.7,70.7c0.6-0.6,1.2-1.2,1.8-1.8c0,0,0,0,0,0c1-1.1,2-2.1,2.9-3.2c0.2-0.2,0.4-0.4,0.6-0.6
		c0.5-0.6,1-1.2,1.5-1.8c0.6-0.8,1.3-1.6,1.9-2.4c0.3-0.4,0.6-0.8,1-1.3c0.8-1,1.5-2.1,2.2-3.1c0.1-0.2,0.3-0.4,0.4-0.6
		c3.6-5.4,6.8-11.3,9.4-17.6L-158,458z"/>
	<path fill="#3583B4" d="M-158,458l38.3,92.4c7.4-3.1,14.4-7,20.9-11.7c0,0,0.1-0.1,0.1-0.1c1-0.8,2-1.5,3-2.3
		c0.5-0.4,1-0.8,1.5-1.3c0.6-0.5,1.2-1,1.7-1.5c0.9-0.8,1.9-1.7,2.8-2.5c0.2-0.2,0.4-0.4,0.6-0.6c0.6-0.5,1.1-1.1,1.7-1.7L-158,458z
		"/>
	<path fill="#ADC8E5" d="M-158,458l38.3-92.4c-4.8-2-9.6-3.6-14.5-4.8C-142,359-150,358-158,358V458z"/>
	<path fill="#CCDCEE" d="M-158,458V358c-5.6,0-11.1,0.5-16.6,1.4c-0.1,0-0.2,0-0.2,0c-0.6,0.1-1.1,0.2-1.7,0.3
		c-0.3,0.1-0.7,0.1-1,0.2c-0.3,0.1-0.6,0.1-1,0.2c-0.6,0.1-1.1,0.2-1.7,0.4c-0.1,0-0.2,0-0.2,0.1c-5.4,1.3-10.7,3-15.9,5.1L-158,458
		z"/>
	<path fill="#2E78A8" d="M-139.5,556.3c0.3-0.1,0.7-0.1,1-0.2c0.3-0.1,0.6-0.1,1-0.2c0.6-0.1,1.1-0.2,1.7-0.4c0.1,0,0.2,0,0.2-0.1
		c5.4-1.3,10.7-3,15.9-5.1L-158,458v100c5.6,0,11.1-0.5,16.6-1.4c0.1,0,0.2,0,0.2,0C-140.6,556.5-140,556.4-139.5,556.3z"/>
	<path fill="#90BBDE" d="M-158,458l-70.7-70.7c-0.6,0.6-1.2,1.2-1.8,1.8c0,0,0,0,0,0c-1,1.1-2,2.1-2.9,3.2c-0.2,0.2-0.4,0.4-0.6,0.6
		c-0.5,0.6-1,1.2-1.5,1.8c-0.6,0.8-1.3,1.6-1.9,2.4c-0.3,0.4-0.6,0.8-1,1.3c-0.8,1-1.5,2.1-2.2,3.1c-0.1,0.2-0.3,0.4-0.4,0.6
		c-3.6,5.4-6.8,11.3-9.4,17.6L-158,458z"/>
	<path fill="#ADC8E5" d="M-158,458l-38.3-92.4c-7.4,3.1-14.4,7-20.9,11.7c0,0-0.1,0.1-0.1,0.1c-1,0.8-2,1.5-3,2.3
		c-0.5,0.4-1,0.8-1.5,1.3c-0.6,0.5-1.2,1-1.7,1.5c-0.9,0.8-1.9,1.7-2.8,2.5c-0.2,0.2-0.4,0.4-0.6,0.6c-0.6,0.5-1.1,1.1-1.7,1.7
		L-158,458z"/>
	<g>
		<path fill="#F09C57" d="M-194.7,379.3c1.3-2.4,4.4-3.8,7-2.9l24.9,8.1c2.6,0.8,6.9,0.8,9.5,0l24.9-8.1c2.6-0.8,5.8,0.5,7,2.9
			l11.9,23.3c1.3,2.4,4.3,5.5,6.7,6.7l23.3,11.9c2.4,1.3,3.8,4.4,2.9,7l-8.1,24.9c-0.8,2.6-0.8,6.9,0,9.5l8.1,24.9
			c0.8,2.6-0.5,5.8-2.9,7l-23.3,11.9c-2.4,1.3-5.5,4.3-6.7,6.7l-11.9,23.3c-1.3,2.4-4.4,3.8-7,2.9l-24.9-8.1c-2.6-0.8-6.9-0.8-9.5,0
			l-24.9,8.1c-2.6,0.8-5.8-0.5-7-2.9l-11.9-23.3c-1.3-2.4-4.3-5.5-6.7-6.7l-23.3-11.9c-2.4-1.3-3.8-4.4-2.9-7l8.1-24.9
			c0.8-2.6,0.8-6.9,0-9.5l-8.1-24.9c-0.8-2.6,0.5-5.8,2.9-7l23.3-11.9c2.4-1.3,5.5-4.3,6.7-6.7L-194.7,379.3z"/>
	</g>
	<g opacity="0.1">
		<path fill="#363738" d="M-158,391c0-2.8,2.1-5.7,4.8-6.5l24.9-8.1c2.6-0.8,5.8,0.5,7,2.9l11.9,23.3c1.3,2.4,4.3,5.5,6.7,6.7
			l23.3,11.9c2.4,1.3,3.8,4.4,2.9,7l-8.1,24.9c-0.8,2.6-0.8,6.9,0,9.5l8.1,24.9c0.8,2.6-0.5,5.8-2.9,7l-23.3,11.9
			c-2.4,1.3-5.5,4.3-6.7,6.7l-11.9,23.3c-1.3,2.4-4.4,3.8-7,2.9l-24.9-8.1c-2.6-0.8-4.8-3.8-4.8-6.5V391z"/>
	</g>
	<g>
		<path fill="#EC8732" d="M-161.8,371.2c2.1-1.8,5.5-1.8,7.6,0l19.9,17c2.1,1.8,6,3.4,8.8,3.6l26.1,2.1c2.7,0.2,5.2,2.6,5.4,5.4
			l2.1,26.1c0.2,2.7,1.9,6.7,3.6,8.8l17,19.9c1.8,2.1,1.8,5.5,0,7.6l-17,19.9c-1.8,2.1-3.4,6-3.6,8.8l-2.1,26.1
			c-0.2,2.7-2.6,5.2-5.4,5.4l-26.1,2.1c-2.7,0.2-6.7,1.9-8.8,3.6l-19.9,17c-2.1,1.8-5.5,1.8-7.6,0l-19.9-17c-2.1-1.8-6-3.4-8.8-3.6
			l-26.1-2.1c-2.7-0.2-5.2-2.6-5.4-5.4l-2.1-26.1c-0.2-2.7-1.9-6.7-3.6-8.8l-17-19.9c-1.8-2.1-1.8-5.5,0-7.6l17-19.9
			c1.8-2.1,3.4-6,3.6-8.8l2.1-26.1c0.2-2.7,2.6-5.2,5.4-5.4l26.1-2.1c2.7-0.2,6.7-1.9,8.8-3.6L-161.8,371.2z"/>
	</g>
	<g opacity="0.1">
		<path fill="#363738" d="M-158,373c0-2.8,1.7-3.5,3.8-1.8l19.9,17c2.1,1.8,6,3.4,8.8,3.6l26.1,2.1c2.7,0.2,5.2,2.6,5.4,5.4
			l2.1,26.1c0.2,2.7,1.9,6.7,3.6,8.8l17,19.9c1.8,2.1,1.8,5.5,0,7.6l-17,19.9c-1.8,2.1-3.4,6-3.6,8.8l-2.1,26.1
			c-0.2,2.7-2.6,5.2-5.4,5.4l-26.1,2.1c-2.7,0.2-6.7,1.9-8.8,3.6l-19.9,17c-2.1,1.8-3.8,1-3.8-1.8V373z"/>
	</g>
	<circle fill="#F3AE79" cx="-158" cy="458" r="60"/>
	<path fill="none" stroke="#525659" stroke-width="9" stroke-miterlimit="10" d="M-143,484.3c0,0-6.7,6.6-15,6.6
		c-8.3,0-15-6.6-15-6.6"/>
	<path fill="#363738" d="M-180.5,456.6c4.1,0,7.5-3.5,7.5-7.9c0-4.4-3.4-7.9-7.5-7.9c-4.1,0-7.5,3.5-7.5,7.9
		C-188,453.1-184.6,456.6-180.5,456.6"/>
	<path fill="#363738" d="M-135.5,456.6c4.1,0,7.5-3.5,7.5-7.9c0-4.4-3.4-7.9-7.5-7.9c-4.1,0-7.5,3.5-7.5,7.9
		C-143,453.1-139.6,456.6-135.5,456.6"/>
	<path opacity="0.7" fill="#F6F6F6" d="M-98.6,485.8c-2.1-0.6-4.3-0.9-6.5-0.9c-13.8,0-25,11.2-25,25c0,0.1,0,0.2,0,0.2
		c-0.8-0.1-1.7-0.2-2.5-0.2c-8.3,0-15,6.7-15,15h63.9c10.9-12.1,18.9-26.9,22.9-43.3c-4.7-3-10.3-4.8-16.3-4.8
		C-85.5,476.8-93.1,480.2-98.6,485.8z"/>
	<path fill="#37B98D" d="M-93,425.8c0,0-26.3-10.5-45.3,0.2c-3.6,2-6.6,4.9-8.7,8.1c0,0-5-3.3-10.9-3.3c-5.9,0-10.9,3.3-10.9,3.3v0
		c-2.2-3.3-5.1-6.1-8.7-8.1c-19-10.7-45.3-0.2-45.3-0.2s-1.2,32.3,19.3,45.3c12.1,7.7,28.4,2.9,35.6-9.5c2.4-4.1,3.5-8.6,3.5-13
		c0,0-0.3-6.3,6.6-6.5c6.9-0.2,6.6,6.5,6.6,6.5c0,4.4,1.1,8.9,3.5,13c7.2,12.5,23.4,17.2,35.6,9.5C-91.9,458.1-93,425.8-93,425.8z"
		/>
	<circle fill="#525659" cx="-190.7" cy="448.5" r="19.5"/>
	<circle fill="#525659" cx="-125.3" cy="448.5" r="19.5"/>
	<path opacity="0.1" fill="#363738" d="M-93,425.8c0,0-26.3-10.5-45.3,0.2c-3.6,2-6.6,4.9-8.7,8.1c0,0-5-3.3-10.9-3.3l0,11.2
		c6.9-0.2,6.6,6.5,6.6,6.5c0,4.4,1.1,8.9,3.5,13c7.2,12.5,23.4,17.2,35.6,9.5C-91.9,458.1-93,425.8-93,425.8z"/>
	<path opacity="0.7" fill="#F6F6F6" d="M-246.4,411.3h82.3c0-5.5-4.5-10-10-10c-2.1,0-4,0.6-5.6,1.7c-2.4-11.2-12.4-19.7-24.4-19.7
		c-3.2,0-6.3,0.6-9.1,1.7c-0.8-2.9-2-5.5-3.6-8C-229.1,386.1-239.3,397.8-246.4,411.3z"/>
</g>
<g id="Heart_Cord">
	<circle fill="#F09C57" cx="-466" cy="458" r="100"/>
	<g opacity="0.5">
		<path opacity="0.3" fill="#AF6429" d="M-564.6,450.1c3.2-0.4,6.7,0.4,10.4-1.9c-3.7-2.2-7.4-2.7-11-3.1c-0.2,1.7-0.4,3.4-0.5,5.1
			C-565.3,450.1-565,450.1-564.6,450.1z"/>
		<path opacity="0.3" fill="#AF6429" d="M-462.2,432.5c24,1.6,47.9,3.5,71.9,4.4c7.4,0.3,14.8,0.6,22.2,0.9
			c-0.2-1.2-0.5-2.3-0.8-3.5c-7.5-0.1-15-0.5-22.4-1.4c-1.1-0.1-2.3-0.3-3.4-0.2c-18.9,0.3-37.4-3.3-56.1-4.4
			c-14.2-0.8-28.5-1.4-42.6-3.6c-19.1-3-38.3-5.3-57.6-6.3c-2.2-0.1-4.5-0.2-6.7-0.3c-1.1,2.5-2.1,5-3,7.6
			c17.1,0.8,34.2,1.6,51.3,3.4C-493.7,430.5-477.9,431.4-462.2,432.5z"/>
		<path opacity="0.3" fill="#AF6429" d="M-385,516.6c1-1.4,2-2.8,3-4.3c-5.5-0.3-10.9-0.7-16.4-0.9c-21.3-1-42.6-4.1-63.8,1.2
			c-11.3,2.9-22.9,4.2-34.6,3.4c-17.7-1.2-35.4-2.5-53.1-3.8c0.9,1.4,1.9,2.8,2.9,4.2c16,0.8,32,1.7,48,2.1
			C-461.1,519.2-423,518.2-385,516.6z"/>
		<path opacity="0.3" fill="#AF6429" d="M-452.5,443.6c28.5,0.4,57,0.4,85.5,0.4c-0.1-0.8-0.2-1.5-0.4-2.3
			c-12.5-0.2-25.2,0.9-37.6-0.4c-18.5-2-37.1-2.2-55.6-4c-17.9-1.8-36-2.1-53.9-3.8c-15.9-1.5-31.8-2.4-47.7-3.1
			c-0.3,1.2-0.7,2.4-1,3.7c13.9,1.2,27.7,2.9,41.5,4.5C-498.6,441.2-475.6,443.3-452.5,443.6z"/>
		<path opacity="0.3" fill="#AF6429" d="M-442.6,425c24.1,1.7,48.1,2.8,72.2,3.7c-0.3-1-0.6-1.9-0.9-2.9c-5.1,0-10.3,0-15.4-0.2
			c-24.2-0.8-48.3-2-72.3-5.2c-21.3-2.8-42.8-4.5-64.2-7.2c-10.2-1.3-20.3-2.4-30.5-3.1c-0.5,1-1,1.9-1.5,2.9
			c3.1,0.2,6.2,0.5,9.3,0.8C-511.5,417.2-477.2,422.6-442.6,425z"/>
		<path opacity="0.3" fill="#AF6429" d="M-465.1,529.7c-23.5-0.2-46.8-2.4-70.2-4.2c-1.6-0.1-3.2-0.2-4.8-0.3
			c2.1,2.3,4.4,4.6,6.7,6.7c15.1,0.9,30.2,2.3,45.3,3.3c6.7,0.5,13.5,0.7,20.2,1.1c15,0.9,30,0.8,45,1.5c5.4,0.3,10.7,0.5,16.1,0.7
			c3.7-2.7,7.2-5.7,10.5-8.9C-419.2,529.7-442.2,529.9-465.1,529.7z"/>
		<path opacity="0.3" fill="#AF6429" d="M-529.1,454.9c2.3-0.8,6.1-0.6,6.1-3.8c0-2.5-3.5-3-5.8-3.8c-11.6-4-23.4-7.2-35.3-8.8
			c-0.3,1.3-0.5,2.5-0.7,3.8c5.7,0.6,11.3,1.5,16.9,2.9c1.3,0.3,2.6,0.6,3.8,1.1c2,0.9,5.2,1.4,4.9,3.9c-0.3,2.4-3.6,2.3-5.7,2.6
			c-7,0.7-14,1.4-21,1.8c0,1.2-0.1,2.3-0.1,3.5c0,0.3,0,0.5,0,0.8c4.5-0.1,9.1-0.2,13.6-0.5C-544.6,457.8-536.6,457.6-529.1,454.9z"
			/>
		<path opacity="0.3" fill="#AF6429" d="M-457.6,480.2c29.5,0.6,58.9,2.2,88.4,3.3c0.5-1.9,0.9-3.8,1.3-5.7
			c-1.6-0.1-3.2-0.2-4.8-0.2c-28.2-1.5-56.4-1.5-84.5-2.4c-21.4-0.7-42.9,0.1-64.3-1.1c-14.4-0.8-28.8-0.5-43.2-0.6
			c0.2,1,0.3,2,0.5,3c13.2,0.5,26.5,1,39.7,1.5C-502.3,479-480,479.8-457.6,480.2z"/>
		<path opacity="0.3" fill="#AF6429" d="M-469.2,504.1c-1.5-0.6-3.2-0.9-4.8-1.4c-5.4-1.7-11.2-1.2-16.7-1.9
			c-10.9-1.2-21.7,0.2-32.3,3c-1.8,0.5-4.3,1.1-4.4,3c-0.1,2.7,2.9,2.6,4.7,3.1c9.7,2.2,19.6,3.3,29.8,3c7.7,0.4,15.6-0.3,23.3-2
			c1.6-0.4,3.5-0.9,3.6-3C-466.1,505.8-467.6,504.8-469.2,504.1z M-513.1,508.1c-1-0.2-1.9-0.7-1.9-1.7c0-1.5,1.4-1.4,2.5-1.7
			c4.6-1.4,9.4-1.2,14-0.7c7.3,0.8,14.9,0.5,21.6,4.3C-489.1,512-501.1,510.6-513.1,508.1z"/>
		<path opacity="0.3" fill="#AF6429" d="M-487.8,461.4c21-0.3,42-1.3,63,0.2c15.4,1,30.9,0.3,46.3,0.5c4.1,0.1,8.2,0.1,12.3,0.2
			c0.1-1.4,0.1-2.8,0.1-4.2c0-0.4,0-0.7,0-1.1c-19.1-0.5-38.3-1-57.4-1.5c-19.6-0.6-39.1-0.2-58.7-0.3c-11.3-0.1-22.5,0.6-33.7,2
			c-14.3,1.8-28.6,4.1-43,4.8c-2.3,0.1-4.7,0.2-7,0.2c0,0.8,0.1,1.6,0.1,2.4c4.5-0.1,9.1-0.3,13.6-0.5
			C-530.7,462.6-509.2,461.6-487.8,461.4z"/>
		<path opacity="0.3" fill="#AF6429" d="M-552.1,494.7c-2.4-0.3-4.8-0.5-7.2-0.8c0.6,1.6,1.3,3.2,2,4.8c3.5-0.3,7-0.7,10.8-1
			C-548.1,494.9-550.1,494.9-552.1,494.7z"/>
		<path opacity="0.3" fill="#AF6429" d="M-385.9,487.7c-27.3-0.9-54.5-1.4-81.8-2.3c-27.2-0.9-54.4-2.4-81.7-3.4
			c-4.6-0.2-9.3-0.4-13.9-0.6c0.6,2.6,1.4,5.2,2.2,7.8c4.3,0.4,8.7,0.7,13,0.9c22.1,1.1,44.4,0.6,66.4,2.6
			c36,3.3,72.1,3.4,108.2,3.1c1-2.5,2-5.1,2.8-7.7C-375.7,488-380.8,487.9-385.9,487.7z"/>
		<path opacity="0.3" fill="#AF6429" d="M-430.7,414.7c12.1,3,24.1,1.7,36.1-1.2c-11.7-4.2-23.2-8.3-35.9-5.8
			c-2.2,0.4-4.5,0.9-4.6,3.3C-435.1,413.6-432.7,414.2-430.7,414.7z M-419.9,409.2c2.4,0,5.5,0.4,5.5,3.4c0,3-3.1,1.5-4.8,2.1
			c-2.3-0.4-5.7,0.6-5.6-2.9C-424.8,409.3-421.8,409.2-419.9,409.2z"/>
		<path opacity="0.3" fill="#AF6429" d="M-423.1,398.3c12.9-1,25.5,0.1,38.1,1.1c-1.1-1.5-2.3-3-3.5-4.5c-6.8-0.1-13.7-0.2-20.5-0.4
			c-38.3-1.2-76.7,0.6-115.1-1.4c-5.7-0.3-11.5-0.5-17.2-0.8c-0.6,0.7-1.2,1.4-1.8,2.1c15.9,0.8,31.9,1.9,47.8,3.1
			C-471.3,399.1-447.1,400.1-423.1,398.3z"/>
		<path opacity="0.3" fill="#AF6429" d="M-450.9,408.8c3.3,0.4,6.7,0.2,10-0.9c13-4.4,26.1-5,39.2-1.1c8,2.3,16,3.9,24.1,4.7
			c-1.2-2.4-2.6-4.7-4-6.9c-7.4-0.7-14.7-1.6-22.1-2.8c-13-2.2-25.8-0.3-38.7,0.9c-8.1,0.7-16.1,0.6-24.2,0.2c-3-0.2-6-0.8-9-0.7
			c-14.9,0.2-29.3-3.7-44.1-4.2c-7.9-0.2-15.7-1.4-23.6-1.4c-0.6,0-1.2,0-1.8,0c-0.8,1-1.5,2-2.3,3c13.6,0.9,27.3,2.2,40.9,3.3
			C-487.7,404.3-469.3,406.4-450.9,408.8z"/>
		<path opacity="0.3" fill="#AF6429" d="M-479.8,413.6c12.7,1,25.2,3.8,37.8,5.5c16,2.1,32.1,3.6,48.3,3.4c7.1-0.1,14.1,0,21.2,0
			c-0.8-2-1.6-4-2.5-6c-13.6,0.9-27.3,2.3-41,2.6c-10.1,0.2-19.6-2.9-29.4-4.6c-22.7-4-45.6-7-68.6-9.3c-11.8-1.2-23.6-2.1-35.4-2.6
			c-0.8,1.2-1.5,2.3-2.3,3.6c0.9,0.1,1.8,0.1,2.8,0.2C-525.7,408.1-502.9,411.8-479.8,413.6z"/>
		<path opacity="0.3" fill="#AF6429" d="M-523.9,539.5c1.6,1.2,3.3,2.3,5.1,3.4c5.4,0.6,10.7,1.6,15.8,3.4c1.3,0.5,3.3,0.7,3.3,2.5
			c0,1.3-1.3,2-2.4,2.4c2.9,1.1,6,2.2,9,3c16.2-2.1,32.6-0.5,48.9-0.1c1.1,0,2.2,0.3,3.4,0.4c0.4,0,0.8,0,1.2,0
			c4.6-1.2,9.1-2.8,13.4-4.7c-18.7-1.2-37.4-2.6-56.1-4C-496.6,544.8-510,541-523.9,539.5z"/>
		<path opacity="0.3" fill="#AF6429" d="M-475.9,471.2c33.1,1.1,66.2,0.6,99.3,1.1c3.2,0,6.4,0.1,9.6,0.2c0.3-1.9,0.5-3.8,0.7-5.7
			c-18.5,0-37.1,0-55.6-0.7c-24.3-0.9-48.5,0.3-72.7,0.8c-23.6,0.5-47.2,0.5-70.9,0.7c0.1,0.9,0.2,1.7,0.3,2.6
			C-535.5,471.6-505.7,470.2-475.9,471.2z"/>
		<path opacity="0.3" fill="#AF6429" d="M-529.8,535c1,0.9,2.1,1.7,3.2,2.5c5.4,0.1,10.8,0.4,16.2,0.8c20.9,1.8,41.7,5.1,62.7,6.3
			c9.5,0.5,19,1.1,28.5,1.6c2.7-1.4,5.3-3,7.9-4.6c-19-0.9-38.1-1.9-57.1-3.1C-488.8,537.3-509.3,536.1-529.8,535z"/>
		<path opacity="0.3" fill="#AF6429" d="M-474.5,522.3c-23.4-0.8-46.8-2.2-70.3-2.7c1,1.2,2,2.4,3,3.6c4.3,0.3,8.5,0.6,12.8,0.9
			c39.1,3.1,78.2,2.4,117.3,1.8c6.5-0.1,13-0.2,19.5-0.5c1.9-2,3.6-4.1,5.3-6.3c-2,0.2-4,0.3-6.1,0.5
			C-420.1,522.5-447.2,523.2-474.5,522.3z"/>
		<path opacity="0.3" fill="#AF6429" d="M-480.6,556.9c4.8,0.7,9.7,1.1,14.6,1.1c3.9,0,7.8-0.2,11.6-0.7c-0.7,0-1.4-0.1-2.1-0.1
			C-464.5,556.8-472.6,556.3-480.6,556.9z"/>
		<path opacity="0.3" fill="#AF6429" d="M-423.4,367.5c-4.3-2-8.8-3.8-13.5-5.2c-10.2,0.4-20.4,0.8-30.6,1.5
			c-12.1,0.8-24.3,1.3-36.4,1.7c-3.9,1.6-7.7,3.4-11.3,5.5c9-0.2,18-0.4,27-0.7C-466.7,369.5-445,368.7-423.4,367.5z"/>
		<path opacity="0.3" fill="#AF6429" d="M-456,386.6c-25.6-0.5-51.1-2.2-76.7-3.1c-2.1,1.9-4.1,3.8-6,5.9c0.6,0,1.3,0.1,1.9,0.1
			c25,1,49.9,1.7,74.9,2.3c14.1,0.3,28.2-0.2,42.3-0.6c9.3-0.3,18.5-0.3,27.8-0.2c-1-1.1-2-2.1-3-3.2c-14.4-0.1-28.8-0.2-43.1-0.4
			C-444,387.2-450,386.7-456,386.6z"/>
		<path opacity="0.3" fill="#AF6429" d="M-417,499.6c13,2.8,26.2,1.9,39.2,2.7c0.5,0,0.9,0,1.4,0.1c0.5-1,1-2,1.5-3.1
			C-388.9,499.2-403,499.2-417,499.6z"/>
		<path opacity="0.3" fill="#AF6429" d="M-448.2,376.9c12.7-1.1,25.6,0.5,38.3-1.7c-2.4-1.6-4.9-3.2-7.5-4.6
			c-12.8,0.7-25.6,1.5-38.4,2.3c-22.5,1.4-45.1,2.3-67.6,3.3c-1.5,1.1-3,2.2-4.5,3.4c9.9-0.3,19.7-0.6,29.6-1
			C-481.7,377.8-464.8,378.4-448.2,376.9z"/>
		<path opacity="0.3" fill="#AF6429" d="M-475.4,497.8c-21.2-3.2-42.3-3.3-63.2,1.8c-5.7,1.4-11.4,2.2-17,2.6
			c0.9,1.8,1.8,3.5,2.8,5.2c5.2-0.3,10.4-1.2,15.4-3c22.7-8.2,45.6-7.4,68.8-3.3c12.4,2.2,24.7,4.7,37.2,5.8
			c13.4,1.2,27,0.9,40.5,1.4c3.7,0.1,7.4,0.4,11,0.7c0.6-1.1,1.3-2.2,1.9-3.3c-16.6-0.8-33.1-1.6-49.7-2.9
			C-443.8,501.7-459.6,500.2-475.4,497.8z"/>
		<path opacity="0.3" fill="#AF6429" d="M-475.7,446c-9.8-0.4-19.5-1.7-29.2-1.8c-7.4-0.1-14.6-2.2-23.7-1.1
			c11.3,4.8,21.5,6.9,31.9,7.5c18.6,0.9,37.2,1.8,55.8,2.2c18.1,0.4,36.1,0.6,54.2,1c6.9,0.2,13.8,0.3,20.7,0.3
			c-0.1-2.3-0.2-4.5-0.5-6.7C-403,447.4-439.3,447.4-475.7,446z"/>
		<path opacity="0.3" fill="#AF6429" d="M-480.1,380.7c-2.8,0.1-5.5,0.8-8.2,1.2c17,1.3,34,2,50.8,1.6c12.5-0.3,25-0.5,37.5-0.5
			c-1.7-1.5-3.4-2.9-5.2-4.3c-7.5,0.1-15,0.3-22.5,0.7C-445.1,380.1-462.6,380.2-480.1,380.7z"/>
		<path opacity="0.3" fill="#AF6429" d="M-453.6,359.1c0.9,0,1.8,0,2.6,0c-4.9-0.7-9.9-1.1-15.1-1.1s-10.2,0.4-15.1,1.1
			c8.8,0,17.6,0,26.4,0C-454.3,359.9-453.9,360-453.6,359.1z"/>
	</g>
	<g opacity="0.3">
		<path fill="#363738" d="M-388.2,431.8c0-10.8-4.2-21-11.7-28.5c-15.4-15.4-41.5-15.5-56.9-0.1c-0.7,0.6-3.4,3-6.6,6.4
			c-2.8-3-5.4-5.4-6.5-6.4c-16-15.9-41-15.9-57,0.1c-7.6,7.6-11.7,17.7-11.7,28.5c0,10.8,4.1,20.9,11.6,28.4l51.2,59.8
			c-3.2,5.4-2.4,12,2.5,16.8l1.5,1.5c1.9,1.9,5.1,1.9,7.1,0l12.9-12.9c1.9-1.9,1.9-5.1,0-7.1l-1.5-1.5c-4.3-4.3-9.9-5.4-14.9-3.4
			l-51.3-59.8l-0.3-0.3c-5.7-5.7-8.8-13.3-8.8-21.5c0-8.2,3.1-15.8,8.8-21.5c12-12,30.9-12,42.9,0l0.2,0.2c2.3,2,4.6,4.4,6.8,6.7
			c-4,5.5-6,10.3-6,14.5c0,3.7,1.4,7,4,9.3c2.2,2,5.2,3,8.4,3c7.2,0,12.7-5.3,12.7-12.3c0-4.6-2.7-9.8-6.1-14.5
			c2.3-2.5,4.8-4.9,6.9-6.7l0.3-0.3c11.6-11.6,31.3-11.6,42.9,0c5.7,5.7,8.8,13.3,8.8,21.5c0,8.2-3.1,15.8-8.8,21.5l-20.6,20.6
			c-5.2-2.6-11.3-1.6-15.9,3c-1.4-1.4-3.6-1.4-5,0s-0.9,4.1,1,6l17.9,17.9c1.9,1.9,4.7,2.4,6,1s1.4-3.6,0-5c4.6-4.6,5.6-10.7,3-15.9
			l20.6-20.6C-392.4,452.8-388.2,442.7-388.2,431.8z M-463.6,434.1c-0.7,0-1.4-0.2-1.8-0.6c-0.1-0.1-0.6-0.5-0.6-1.7
			c0-1.7,0.9-3.8,2.4-6.2c1.6,2.5,2.6,4.7,2.6,6.2C-461,433.9-463,434.1-463.6,434.1z"/>
		
			<rect x="-452" y="484.7" transform="matrix(-0.7071 -0.7071 0.7071 -0.7071 -1113.3463 522.451)" fill="#363738" width="7.1" height="14.1"/>
		
			<rect x="-442" y="494.7" transform="matrix(-0.7071 -0.7071 0.7071 -0.7071 -1103.3463 546.5931)" fill="#363738" width="7.1" height="14.1"/>
	</g>
	<path opacity="0.3" fill="#363738" d="M-366,458c0-0.5,0-1,0-1.5l-78.5,0v-62l55.7,0c-0.8-1-1.7-2-2.6-3l-149.4,0
		c-0.9,1-1.7,2-2.6,3l95.8,0v62l-118.5,0c0,0.5,0,1,0,1.5c0,0.5,0,1,0,1.5l200,0C-366,459-366,458.5-366,458z"/>
	<path opacity="0.3" fill="#363738" d="M-543.2,521.5c0.8,1,1.7,2,2.6,3l38.2,0v26.6c1,0.4,2,0.8,3,1.1v-27.7l108.2,0
		c0.9-1,1.7-2,2.6-3L-543.2,521.5z"/>
	<path fill="#E74D3D" d="M-469.8,529l-59.9-69.9c-7.5-7.5-11.6-17.6-11.6-28.4c0-10.8,4.2-21,11.7-28.5c16-16,41-16,57-0.1
		c1.2,1,3.7,3.3,6.5,6.4c3.2-3.4,6-5.8,6.6-6.4c15.5-15.3,41.5-15.3,56.9,0.1c7.6,7.6,11.7,17.7,11.7,28.5c0,10.8-4.2,21-11.7,28.5
		l-25,25l-7.1-7.1l25-25c5.7-5.7,8.8-13.3,8.8-21.5c0-8.2-3.1-15.8-8.8-21.5c-11.6-11.6-31.3-11.6-42.9,0l-0.3,0.3
		c-2.1,1.8-4.5,4.2-6.9,6.7c3.4,4.7,6.1,9.9,6.1,14.5c0,7-5.4,12.3-12.7,12.3c-3.2,0-6.1-1.1-8.4-3c-2.6-2.3-4-5.5-4-9.3
		c0-4.2,2-9,6-14.5c-2.2-2.4-4.5-4.7-6.8-6.7l-0.2-0.2c-12-12-30.9-12-42.9,0c-5.7,5.7-8.8,13.3-8.8,21.5c0,8.2,3.1,15.8,8.8,21.5
		l0.3,0.3l60,70L-469.8,529z M-466.1,424.5c-1.5,2.4-2.4,4.6-2.4,6.2c0,1.2,0.4,1.6,0.6,1.7c0.4,0.3,1.1,0.6,1.8,0.6
		c0.6,0,2.7-0.2,2.7-2.3C-463.5,429.2-464.5,427-466.1,424.5z"/>
	<path opacity="0.1" fill="#363738" d="M-472.5,416.2c-1.5,2-2.6,3.9-3.5,5.7c2.8,1.7,5.7,3.3,8.4,5.5c0.4-0.9,0.9-1.9,1.6-3
		C-465.1,426.1-473.7,414.9-472.5,416.2z"/>
	<path opacity="0.1" fill="#363738" d="M-466,408.5c3.2-3.4,6-5.8,6.6-6.4c15.5-15.3,41.5-15.3,56.9,0.1
		c7.6,7.6,11.7,17.7,11.7,28.5c0,10.8-4.2,21-11.7,28.5l-25,25l-7.1-7.1l25-25c5.7-5.7,8.8-13.3,8.8-21.5c0-8.2-3.1-15.8-8.8-21.5
		c-11.6-11.6-31.3-11.6-42.9,0l-0.3,0.3c-2.1,1.8-4.5,4.2-6.9,6.7C-456.2,421-468.9,405.5-466,408.5z"/>
	<g>
		<path fill="#BC372C" d="M-426,495.8L-426,495.8c1.4,1.4,1.4,3.6,0,5s-4.1,0.9-6-1l-17.9-17.9c-1.9-1.9-2.4-4.7-1-6s3.6-1.4,5,0
			l0,0c5.9-5.9,14.1-5.9,20,0C-420.1,481.6-420.1,489.9-426,495.8z"/>
	</g>
	<path opacity="0.1" fill="#363738" d="M-426,475.8c-0.9-0.9-1.8-1.6-2.8-2.2c3.5,5.5,2.8,12.2-2.2,17.2c1.4,1.4,1.4,3.6,0,5
		s-4.1,0.9-6-1l-12.9-12.9c0,0,0,0,0,0l17.9,17.9c1.9,1.9,4.7,2.4,6,1s1.4-3.6,0-5C-420.1,489.9-420.1,481.6-426,475.8z"/>
	<g>
		<path fill="#BC372C" d="M-456,515.8l1.5,1.5c1.9,1.9,1.9,5.1,0,7.1l-12.9,12.9c-1.9,1.9-5.1,1.9-7.1,0l-1.5-1.5
			c-5.9-5.9-5.9-14.1,0-20C-470.1,509.9-461.9,509.9-456,515.8z"/>
	</g>
	
		<rect x="-454.5" y="483.7" transform="matrix(0.7071 0.7071 -0.7071 0.7071 214.9241 462.6451)" fill="#D2D3D4" width="7.1" height="14.1"/>
	
		<rect x="-444.5" y="493.7" transform="matrix(0.7071 0.7071 -0.7071 0.7071 224.9241 458.503)" fill="#D2D3D4" width="7.1" height="14.1"/>
	<polygon opacity="0.1" fill="#363738" points="-444.9,486.9 -454.5,496.5 -458.1,492.9 -458.5,493.3 -453.5,498.3 -443.5,488.3 	
		"/>
	<polygon opacity="0.1" fill="#363738" points="-434.9,496.9 -444.5,506.5 -448.1,502.9 -448.5,503.3 -443.5,508.3 -433.5,498.3 	
		"/>
</g>
<g id="Piggy_Bank">
	<circle fill="#EB6C5F" cx="150" cy="150" r="100"/>
	<path opacity="0.5" fill="#EF938B" d="M150,50C94.8,50,50,94.8,50,150c0,9.6,1.3,18.8,3.8,27.5l84.7-32.3l50.8-34.9l29.7,9.3
		l18.5-18.2C220.4,70.8,187.6,50,150,50z"/>
	<path fill="#BC372C" d="M63.4,200c17.3,29.9,49.6,50,86.6,50s69.3-20.1,86.6-50H63.4z"/>
	<ellipse opacity="0.1" fill="#363738" cx="150" cy="222.5" rx="60" ry="7.5"/>
	<ellipse fill="#F9DCD8" cx="150" cy="170" rx="55" ry="47.5"/>
	<path fill="#F5BCB6" d="M131.1,127.7c4.2,7.4,1.7,16.8-5.6,21s-22.7-22.4-15.4-26.6C117.4,117.8,126.8,120.3,131.1,127.7z"/>
	<circle fill="#E5E6E7" cx="141.4" cy="60.5" r="3"/>
	<path fill="#F9DCD8" d="M131.1,127.7c4.2,7.4,1.7,16.8-5.6,21l-15.4-26.6C117.4,117.8,126.8,120.3,131.1,127.7z"/>
	<path fill="#F9DCD8" d="M97,182.5L97,182.5c-5.5,0-10-4.5-10-10v-10c0-5.5,4.5-10,10-10h0c5.5,0,10,4.5,10,10v10
		C107,178,102.5,182.5,97,182.5z"/>
	<path fill="none" stroke="#F9DCD8" stroke-width="5" stroke-linecap="round" stroke-miterlimit="10" d="M195.9,150.8
		c5.5-11.4,25.8,0,15.8,3.8c-10,3.8-2.7-20.4,4.2-14.2"/>
	<path fill="#689E41" d="M143.8,71.9c0,0-3.6-2.2-5.5-1c-2,1.2-9,11.5-2.3,28.6l20.8-7.7c0,0-8.6-23.2,1.5-33.8L143.8,71.9z"/>
	<path fill="#81C452" d="M138.5,70.7c1.9-0.4,5.3,1.2,5.3,1.2l14.4-14L138.5,70.7z"/>
	<path fill="#D6E9C2" d="M153.1,77c0.3,3-3.4,5.9-8.4,6.5s-9.3-1.4-9.6-4.4c-0.3-3,3.4-5.9,8.4-6.5C148.5,71.9,152.8,73.9,153.1,77"
		/>
	<path fill="none" stroke="#EF938B" stroke-width="3" stroke-linecap="round" stroke-miterlimit="10" d="M138,128.7c0,0,5.2-1,12-1
		s12,1,12,1"/>
	<path fill="#92CA6B" d="M150.3,84.8c0,0,0.5,5.1-1,11.5c-1.5,6.4-3.5,15.9-11.4,28.3l19.9,9.8c0,0,10-16.4,9.8-49.6H150.3z"/>
	<path fill="#D6E9C2" d="M165.1,109.6c-0.8,3.6-5.3,5.7-10.2,4.7c-4.9-1-8.2-4.8-7.4-8.5c0.8-3.6,5.3-5.7,10.2-4.7
		C162.5,102.2,165.8,106,165.1,109.6"/>
	<circle fill="#CE752E" cx="149.9" cy="114.3" r="4"/>
	<circle fill="#F5BCB6" cx="175" cy="205" r="20"/>
	<circle fill="#E5E6E7" cx="144.2" cy="128.5" r="6"/>
	<path fill="#D2D3D4" d="M148.5,132.8c-2.3,2.3-6.1,2.3-8.5,0l8.5-8.5C150.8,126.6,150.8,130.4,148.5,132.8z"/>
	<path fill="#AF6429" d="M152.7,117.2c-1.6,1.6-4.1,1.6-5.7,0l5.7-5.7C154.3,113.1,154.3,115.6,152.7,117.2z"/>
	<circle fill="#F5BCB6" cx="125" cy="205" r="20"/>
	<path fill="#F9DCD8" d="M163.5,128.6c0,0.1,0,0.2,0,0.3c-0.1,0.7-0.8,1.2-1.5,1.2c-0.1,0-0.2,0-0.3,0c-0.1,0-5.2-1-11.7-1
		s-11.7,1-11.7,1c-0.8,0.2-1.6-0.4-1.8-1.2c0-0.1,0-0.2,0-0.3C98.8,135.4,95,170,95,170c0,26.2,24.6,47.5,55,47.5s55-21.3,55-47.5
		C205,170,201.2,135.4,163.5,128.6z"/>
	<path fill="#F5BCB6" d="M150,209.1c-23.5,0-43.8-11.6-53.6-28.6c5.6,21.1,27.4,36.9,53.6,36.9s48.1-15.8,53.6-36.9
		C193.8,197.5,173.5,209.1,150,209.1z"/>
	<path opacity="0.1" fill="#363738" d="M150,214.9c-14.2,0-27.3-3.9-38-10.6c9.9,8.1,23.2,13.2,38,13.2s28.1-5,38-13.2
		C177.3,211,164.2,214.9,150,214.9z"/>
	<circle fill="#363738" cx="110" cy="156" r="4"/>
	<circle fill="#E5E6E7" cx="138.5" cy="97.3" r="5"/>
	<circle fill="#CE752E" cx="172.6" cy="71.8" r="4"/>
	<path fill="#AF6429" d="M175.4,74.6c-1.6,1.6-4.1,1.6-5.7,0l5.7-5.7C177,70.6,177,73.1,175.4,74.6z"/>
	<circle fill="#E5E6E7" cx="164.1" cy="74.7" r="6"/>
	<path fill="#D2D3D4" d="M143.5,62.6c-1.2,1.2-3.1,1.2-4.2,0l4.2-4.2C144.7,59.5,144.7,61.4,143.5,62.6z"/>
	<path fill="#D2D3D4" d="M142.1,100.9c-2,2-5.1,2-7.1,0l7.1-7.1C144,95.7,144,98.9,142.1,100.9z"/>
	<path fill="#D2D3D4" d="M168.3,78.9c-2.3,2.3-6.1,2.3-8.5,0l8.5-8.5C170.6,72.8,170.6,76.6,168.3,78.9z"/>
</g>
<g id="Cootie_Catcher">
	<circle fill="#F5D871" cx="-158" cy="-158" r="100"/>
	<path fill="#F4D247" d="M-248.2-201.3l97.7-56.4c-2.5-0.2-5-0.3-7.5-0.3c-0.6,0-1.2,0-1.8,0l-83.9,48.4
		C-245.3-206.9-246.8-204.1-248.2-201.3z"/>
	<path fill="#F4D247" d="M-257.9-163l145.5-84c-1.8-0.9-3.5-1.8-5.4-2.6l-139.7,80.7C-257.6-166.9-257.8-165-257.9-163z"/>
	<path fill="#F4D247" d="M-254.6-132.1l167.3-96.6c-1.2-1.2-2.4-2.4-3.7-3.5l-164.8,95.1C-255.4-135.4-255.1-133.8-254.6-132.1z"/>
	<path fill="#F4D247" d="M-243.4-105.9l173.2-100c-0.8-1.4-1.6-2.8-2.4-4.2l-173.2,100C-245-108.7-244.2-107.3-243.4-105.9z"/>
	<path fill="#F4D247" d="M-225-83.8l164.8-95.1c-0.4-1.7-0.8-3.3-1.2-5l-167.3,96.6C-227.5-86.1-226.3-84.9-225-83.8z"/>
	<path fill="#F4D247" d="M-198.3-66.5l139.7-80.7c0.2-2,0.4-3.9,0.5-5.9l-145.5,84C-201.9-68.1-200.1-67.3-198.3-66.5z"/>
	<path fill="#F4D247" d="M-67.8-114.7l-97.7,56.4c2.5,0.2,5,0.3,7.5,0.3c0.6,0,1.2,0,1.8,0l83.9-48.4
		C-70.7-109.1-69.2-111.9-67.8-114.7z"/>
	<polygon opacity="0.1" fill="#363738" points="-93,-213 -153,-206.3 -213,-213 -206.3,-153 -213,-93 -153,-99.7 -93,-93 
		-99.7,-153 	"/>
	<polygon fill="#76B0D8" points="-158,-158 -158,-104.7 -151.3,-151.3 -104.7,-158 	"/>
	<polygon fill="#2E78A8" points="-164.7,-164.7 -211.3,-158 -158,-158 -158,-211.3 	"/>
	<g>
		<polygon fill="#3390CA" points="-158,-104.7 -158,-158 -164.7,-151.3 		"/>
		<polygon fill="#3390CA" points="-151.3,-164.7 -158,-158 -104.7,-158 		"/>
	</g>
	<g>
		<polygon fill="#388AC0" points="-158,-211.3 -158,-158 -151.3,-164.7 		"/>
		<polygon fill="#388AC0" points="-164.7,-151.3 -158,-158 -211.3,-158 		"/>
	</g>
	<polygon opacity="0.7" fill="#363738" points="-151.3,-164.7 -158,-211.3 -164.7,-164.7 -211.3,-158 -164.7,-151.3 -158,-104.7 
		-151.3,-151.3 -104.7,-158 	"/>
	<polygon fill="#3583B4" points="-104.7,-158 -151.3,-151.3 -158,-104.7 -98,-98 	"/>
	<polygon fill="#52A1D4" points="-218,-218 -211.3,-158 -164.7,-164.7 -158,-211.3 	"/>
	<g>
		<polygon fill="#3390CA" points="-158,-211.3 -151.3,-164.7 -104.7,-158 -98,-218 		"/>
		<polygon fill="#3390CA" points="-211.3,-158 -218,-98 -158,-104.7 -164.7,-151.3 		"/>
	</g>
	<path fill="#CCDCEE" d="M-200.8-191.7l8.9-8.9l1.8,1.8l-3.6,3.6l8.2,8.2v-4.2l2.4,0l0,6.7l-1.8,1.8l-10.7-10.7l-3.5,3.5
		L-200.8-191.7z"/>
	<path fill="#CCDCEE" d="M-132.7-183.3c-1.1-1.1-2-2.2-2.7-3.4c-0.7-1.2-1.2-2.3-1.5-3.4s-0.3-2.1-0.2-3.1c0.2-1,0.6-1.8,1.2-2.4
		c0.4-0.4,0.9-0.8,1.5-1c0.6-0.2,1.2-0.3,1.8-0.3c0.7,0,1.4,0.1,2.1,0.2c0.7,0.2,1.5,0.4,2.2,0.8l8.9,4l-8-8l-1.8,1.8l-1.8-1.8
		l3.5-3.5l14.6,14.6l-1.8,1.8l-14.8-6.5c-0.9-0.4-1.8-0.6-2.6-0.7c-0.8,0-1.5,0.2-1.9,0.7c-0.4,0.4-0.6,0.9-0.7,1.5
		c-0.1,0.6,0,1.3,0.2,2.1c0.2,0.8,0.6,1.6,1.1,2.4c0.5,0.9,1.2,1.7,2.1,2.5c1.1,1.1,2.2,2,3.3,2.8c1.1,0.8,2.1,1.4,3,1.8l1.4-1.4
		l1.8,1.8l-2.6,2.6c-0.8-0.2-1.6-0.6-2.5-1.1c-0.8-0.4-1.7-1-2.7-1.8C-130.3-181.1-131.4-182.1-132.7-183.3z"/>
	<path fill="#ADC8E5" d="M-116.1-130.7c0.8,0.8,1.1,1.6,1.2,2.5c0,0.9-0.2,1.9-0.7,2.9s-1.1,2-2,3.1c-0.9,1-1.8,2.1-2.7,3
		c-1.4,1.4-2.8,2.6-4.3,3.6c-1.4,1-2.7,1.6-3.9,2l-2.6-2.6l1.8-1.8l1.5,1.5c0.9-0.5,1.9-1,2.9-1.8c1-0.7,2-1.6,3-2.6
		c0.6-0.6,1.2-1.2,1.8-2c0.6-0.7,1.2-1.5,1.7-2.2c0.5-0.7,0.8-1.4,0.9-2.1c0.1-0.7,0-1.2-0.5-1.7c-0.3-0.3-0.7-0.5-1.1-0.6
		c-0.4-0.1-0.9,0-1.3,0.1c-0.4,0.1-0.9,0.3-1.3,0.5c-0.4,0.2-0.7,0.5-1,0.7c-0.3,0.2-0.6,0.5-1,0.9c-0.4,0.4-0.8,0.8-1.3,1.2
		s-0.9,0.9-1.3,1.3c-0.4,0.5-0.8,0.9-1.2,1.2l-1.7-1.7c0.3-0.3,0.7-0.7,1.1-1.2c0.4-0.4,0.8-0.9,1.2-1.3s0.8-0.9,1.1-1.3
		c0.4-0.4,0.6-0.7,0.8-1c1.5-1.9,1.7-3.3,0.7-4.4c-0.3-0.3-0.6-0.4-1.1-0.4s-1,0.1-1.7,0.4c-0.6,0.3-1.4,0.7-2.2,1.3
		c-0.8,0.6-1.7,1.3-2.6,2.3c-1,1-1.8,2-2.6,3c-0.7,1-1.3,2-1.8,2.9l1.5,1.5l-1.8,1.8l-2.7-2.7c0.4-1.2,1.1-2.5,2-3.9
		c1-1.4,2.1-2.8,3.6-4.3c0.6-0.6,1.2-1.1,1.8-1.7c0.6-0.5,1.3-1,2-1.5c0.7-0.4,1.3-0.8,2-1.1c0.7-0.3,1.3-0.5,2-0.6
		c0.6-0.1,1.3-0.1,1.8,0.1c0.6,0.2,1.1,0.5,1.6,1c0.3,0.3,0.6,0.7,0.8,1.1c0.2,0.4,0.3,0.8,0.3,1.2c0,0.4,0,0.8,0,1.2
		c-0.1,0.4-0.2,0.8-0.3,1.2c0.5-0.2,1-0.3,1.5-0.4c0.5-0.1,1-0.1,1.4-0.1c0.5,0.1,0.9,0.2,1.4,0.4
		C-116.9-131.4-116.5-131.1-116.1-130.7z"/>
	<path fill="#CCDCEE" d="M-190.4-116.5l3.6,3.6l-1.8,1.8l-8.9-8.9l1.8-1.8l3.6,3.6l1.8-1.8l-10.2-10.2l0.7-2.8l16.6,0v2.4l-14.2,0
		l8.8,8.8l7.1-7.1l1.8,1.8l-7.1,7.1l3.6,3.6l-1.8,1.8l-3.6-3.6L-190.4-116.5z"/>
	<g opacity="0.5">
		<polygon fill="#363738" points="-218,-98 -158,-104.7 -164.7,-151.3 		"/>
		<polygon fill="#363738" points="-151.3,-164.7 -104.7,-158 -98,-218 		"/>
	</g>
</g>
<g id="Fortune_Cookie">
	<circle fill="#37B98D" cx="-158" cy="150" r="100"/>
	<circle fill="#78C8AB" cx="-158" cy="150" r="1.5"/>
	<circle fill="#78C8AB" cx="-147.4" cy="160.6" r="1.5"/>
	<circle fill="#78C8AB" cx="-136.8" cy="171.2" r="1.5"/>
	<circle fill="#78C8AB" cx="-126.2" cy="181.8" r="1.5"/>
	<circle fill="#78C8AB" cx="-115.6" cy="192.4" r="1.5"/>
	<circle fill="#78C8AB" cx="-105" cy="203" r="1.5"/>
	<circle fill="#78C8AB" cx="-94.4" cy="213.6" r="1.5"/>
	<circle fill="#78C8AB" cx="-168.6" cy="139.4" r="1.5"/>
	<circle fill="#78C8AB" cx="-179.2" cy="128.8" r="1.5"/>
	<circle fill="#78C8AB" cx="-189.8" cy="118.2" r="1.5"/>
	<circle fill="#78C8AB" cx="-200.4" cy="107.6" r="1.5"/>
	<circle fill="#78C8AB" cx="-211" cy="97" r="1.5"/>
	<circle fill="#78C8AB" cx="-221.6" cy="86.4" r="1.5"/>
	<circle fill="#78C8AB" cx="-147.4" cy="139.4" r="1.5"/>
	<circle fill="#78C8AB" cx="-136.8" cy="150" r="1.5"/>
	<circle fill="#78C8AB" cx="-126.2" cy="160.6" r="1.5"/>
	<circle fill="#78C8AB" cx="-115.6" cy="171.2" r="1.5"/>
	<circle fill="#78C8AB" cx="-105" cy="181.8" r="1.5"/>
	<circle fill="#78C8AB" cx="-94.4" cy="192.4" r="1.5"/>
	<circle fill="#78C8AB" cx="-83.8" cy="203" r="1.5"/>
	<circle fill="#78C8AB" cx="-158" cy="128.8" r="1.5"/>
	<circle fill="#78C8AB" cx="-168.6" cy="118.2" r="1.5"/>
	<circle fill="#78C8AB" cx="-179.2" cy="107.6" r="1.5"/>
	<circle fill="#78C8AB" cx="-189.8" cy="97" r="1.5"/>
	<circle fill="#78C8AB" cx="-200.4" cy="86.4" r="1.5"/>
	<circle fill="#78C8AB" cx="-211" cy="75.8" r="1.5"/>
	<circle fill="#78C8AB" cx="-136.8" cy="128.8" r="1.5"/>
	<circle fill="#78C8AB" cx="-126.2" cy="139.4" r="1.5"/>
	<circle fill="#78C8AB" cx="-115.6" cy="150" r="1.5"/>
	<circle fill="#78C8AB" cx="-105" cy="160.6" r="1.5"/>
	<circle fill="#78C8AB" cx="-94.4" cy="171.2" r="1.5"/>
	<circle fill="#78C8AB" cx="-83.8" cy="181.8" r="1.5"/>
	<circle fill="#78C8AB" cx="-73.1" cy="192.4" r="1.5"/>
	<circle fill="#78C8AB" cx="-147.4" cy="118.2" r="1.5"/>
	<circle fill="#78C8AB" cx="-158" cy="107.6" r="1.5"/>
	<circle fill="#78C8AB" cx="-168.6" cy="97" r="1.5"/>
	<circle fill="#78C8AB" cx="-179.2" cy="86.4" r="1.5"/>
	<circle fill="#78C8AB" cx="-189.8" cy="75.8" r="1.5"/>
	<circle fill="#78C8AB" cx="-200.4" cy="65.1" r="1.5"/>
	<circle fill="#78C8AB" cx="-126.2" cy="118.2" r="1.5"/>
	<circle fill="#78C8AB" cx="-115.6" cy="128.8" r="1.5"/>
	<circle fill="#78C8AB" cx="-105" cy="139.4" r="1.5"/>
	<circle fill="#78C8AB" cx="-94.4" cy="150" r="1.5"/>
	<circle fill="#78C8AB" cx="-83.8" cy="160.6" r="1.5"/>
	<circle fill="#78C8AB" cx="-73.1" cy="171.2" r="1.5"/>
	<circle fill="#78C8AB" cx="-136.8" cy="107.6" r="1.5"/>
	<circle fill="#78C8AB" cx="-147.4" cy="97" r="1.5"/>
	<circle fill="#78C8AB" cx="-158" cy="86.4" r="1.5"/>
	<circle fill="#78C8AB" cx="-168.6" cy="75.8" r="1.5"/>
	<circle fill="#78C8AB" cx="-179.2" cy="65.1" r="1.5"/>
	<circle fill="#78C8AB" cx="-115.6" cy="107.6" r="1.5"/>
	<circle fill="#78C8AB" cx="-105" cy="118.2" r="1.5"/>
	<circle fill="#78C8AB" cx="-94.4" cy="128.8" r="1.5"/>
	<circle fill="#78C8AB" cx="-83.8" cy="139.4" r="1.5"/>
	<circle fill="#78C8AB" cx="-73.1" cy="150" r="1.5"/>
	<circle fill="#78C8AB" cx="-62.5" cy="160.6" r="1.5"/>
	<circle fill="#78C8AB" cx="-126.2" cy="97" r="1.5"/>
	<circle fill="#78C8AB" cx="-136.8" cy="86.4" r="1.5"/>
	<circle fill="#78C8AB" cx="-147.4" cy="75.8" r="1.5"/>
	<circle fill="#78C8AB" cx="-158" cy="65.1" r="1.5"/>
	<circle fill="#78C8AB" cx="-168.6" cy="54.5" r="1.5"/>
	<circle fill="#78C8AB" cx="-105" cy="97" r="1.5"/>
	<circle fill="#78C8AB" cx="-94.4" cy="107.6" r="1.5"/>
	<circle fill="#78C8AB" cx="-83.8" cy="118.2" r="1.5"/>
	<circle fill="#78C8AB" cx="-73.1" cy="128.8" r="1.5"/>
	<circle fill="#78C8AB" cx="-62.5" cy="139.4" r="1.5"/>
	<circle fill="#78C8AB" cx="-115.6" cy="86.4" r="1.5"/>
	<circle fill="#78C8AB" cx="-126.2" cy="75.8" r="1.5"/>
	<circle fill="#78C8AB" cx="-136.8" cy="65.1" r="1.5"/>
	<circle fill="#78C8AB" cx="-147.4" cy="54.5" r="1.5"/>
	<circle fill="#78C8AB" cx="-94.4" cy="86.4" r="1.5"/>
	<circle fill="#78C8AB" cx="-83.8" cy="97" r="1.5"/>
	<circle fill="#78C8AB" cx="-73.1" cy="107.6" r="1.5"/>
	<circle fill="#78C8AB" cx="-105" cy="75.8" r="1.5"/>
	<circle fill="#78C8AB" cx="-115.6" cy="65.1" r="1.5"/>
	<circle fill="#78C8AB" cx="-168.6" cy="160.6" r="1.5"/>
	<circle fill="#78C8AB" cx="-158" cy="171.2" r="1.5"/>
	<circle fill="#78C8AB" cx="-147.4" cy="181.8" r="1.5"/>
	<circle fill="#78C8AB" cx="-136.8" cy="192.4" r="1.5"/>
	<circle fill="#78C8AB" cx="-126.2" cy="203" r="1.5"/>
	<circle fill="#78C8AB" cx="-115.6" cy="213.6" r="1.5"/>
	<circle fill="#78C8AB" cx="-105" cy="224.2" r="1.5"/>
	<circle fill="#78C8AB" cx="-179.2" cy="150" r="1.5"/>
	<circle fill="#78C8AB" cx="-189.8" cy="139.4" r="1.5"/>
	<circle fill="#78C8AB" cx="-200.4" cy="128.8" r="1.5"/>
	<circle fill="#78C8AB" cx="-211" cy="118.2" r="1.5"/>
	<circle fill="#78C8AB" cx="-221.6" cy="107.6" r="1.5"/>
	<circle fill="#78C8AB" cx="-232.2" cy="97" r="1.5"/>
	<circle fill="#78C8AB" cx="-179.2" cy="171.2" r="1.5"/>
	<circle fill="#78C8AB" cx="-168.6" cy="181.8" r="1.5"/>
	<circle fill="#78C8AB" cx="-158" cy="192.4" r="1.5"/>
	<circle fill="#78C8AB" cx="-147.4" cy="203" r="1.5"/>
	<circle fill="#78C8AB" cx="-136.8" cy="213.6" r="1.5"/>
	<circle fill="#78C8AB" cx="-126.2" cy="224.2" r="1.5"/>
	<circle fill="#78C8AB" cx="-115.6" cy="234.9" r="1.5"/>
	<circle fill="#78C8AB" cx="-189.8" cy="160.6" r="1.5"/>
	<circle fill="#78C8AB" cx="-200.4" cy="150" r="1.5"/>
	<circle fill="#78C8AB" cx="-211" cy="139.4" r="1.5"/>
	<circle fill="#78C8AB" cx="-221.6" cy="128.8" r="1.5"/>
	<circle fill="#78C8AB" cx="-232.2" cy="118.2" r="1.5"/>
	<circle fill="#78C8AB" cx="-242.9" cy="107.6" r="1.5"/>
	<circle fill="#78C8AB" cx="-189.8" cy="181.8" r="1.5"/>
	<circle fill="#78C8AB" cx="-179.2" cy="192.4" r="1.5"/>
	<circle fill="#78C8AB" cx="-168.6" cy="203" r="1.5"/>
	<circle fill="#78C8AB" cx="-158" cy="213.6" r="1.5"/>
	<circle fill="#78C8AB" cx="-147.4" cy="224.2" r="1.5"/>
	<circle fill="#78C8AB" cx="-136.8" cy="234.9" r="1.5"/>
	<circle fill="#78C8AB" cx="-200.4" cy="171.2" r="1.5"/>
	<circle fill="#78C8AB" cx="-211" cy="160.6" r="1.5"/>
	<circle fill="#78C8AB" cx="-221.6" cy="150" r="1.5"/>
	<circle fill="#78C8AB" cx="-232.2" cy="139.4" r="1.5"/>
	<circle fill="#78C8AB" cx="-242.9" cy="128.8" r="1.5"/>
	<circle fill="#78C8AB" cx="-200.4" cy="192.4" r="1.5"/>
	<circle fill="#78C8AB" cx="-189.8" cy="203" r="1.5"/>
	<circle fill="#78C8AB" cx="-179.2" cy="213.6" r="1.5"/>
	<circle fill="#78C8AB" cx="-168.6" cy="224.2" r="1.5"/>
	<circle fill="#78C8AB" cx="-158" cy="234.9" r="1.5"/>
	<circle fill="#78C8AB" cx="-147.4" cy="245.5" r="1.5"/>
	<circle fill="#78C8AB" cx="-211" cy="181.8" r="1.5"/>
	<circle fill="#78C8AB" cx="-221.6" cy="171.2" r="1.5"/>
	<circle fill="#78C8AB" cx="-232.2" cy="160.6" r="1.5"/>
	<circle fill="#78C8AB" cx="-242.9" cy="150" r="1.5"/>
	<circle fill="#78C8AB" cx="-253.5" cy="139.4" r="1.5"/>
	<circle fill="#78C8AB" cx="-211" cy="203" r="1.5"/>
	<circle fill="#78C8AB" cx="-200.4" cy="213.6" r="1.5"/>
	<circle fill="#78C8AB" cx="-189.8" cy="224.2" r="1.5"/>
	<circle fill="#78C8AB" cx="-179.2" cy="234.9" r="1.5"/>
	<circle fill="#78C8AB" cx="-168.6" cy="245.5" r="1.5"/>
	<circle fill="#78C8AB" cx="-221.6" cy="192.4" r="1.5"/>
	<circle fill="#78C8AB" cx="-232.2" cy="181.8" r="1.5"/>
	<circle fill="#78C8AB" cx="-242.9" cy="171.2" r="1.5"/>
	<circle fill="#78C8AB" cx="-253.5" cy="160.6" r="1.5"/>
	<circle fill="#78C8AB" cx="-221.6" cy="213.6" r="1.5"/>
	<circle fill="#78C8AB" cx="-211" cy="224.2" r="1.5"/>
	<circle fill="#78C8AB" cx="-200.4" cy="234.9" r="1.5"/>
	<circle fill="#78C8AB" cx="-232.2" cy="203" r="1.5"/>
	<circle fill="#78C8AB" cx="-242.9" cy="192.4" r="1.5"/>
	<path opacity="0.1" fill="#363738" d="M-155.1,77.9L-256,129.9c-1.3,6.5-2,13.2-2,20.1c0,0.3,0,0.5,0,0.8L-153,81.4
		c0.8-0.6,1.1-1.7,0.7-2.6C-152.9,77.8-154.1,77.4-155.1,77.9z"/>
	<g>
		<path opacity="0.1" fill="#363738" d="M-159.3,205.2C-159.3,205.2-159.2,205.2-159.3,205.2c0.5-0.2,0.9-0.4,1.3-0.6
			c0.1,0,0.2-0.1,0.3-0.1c0.4-0.2,0.9-0.4,1.3-0.7c0,0,0,0,0,0c0.4-0.2,0.8-0.5,1.2-0.7c0.1-0.1,0.2-0.1,0.3-0.2
			c0.4-0.3,0.8-0.5,1.2-0.8c0,0,0,0,0,0c0.4-0.3,0.8-0.6,1.2-0.8c0.1-0.1,0.2-0.1,0.2-0.2c0.8-0.6,1.5-1.2,2.2-1.9
			c0.1-0.1,0.1-0.1,0.2-0.2c0.7-0.7,1.4-1.4,2-2.1c0.1-0.1,0.1-0.1,0.2-0.2c0.6-0.7,1.2-1.5,1.7-2.3c0-0.1,0.1-0.1,0.1-0.2
			c0.3-0.4,0.5-0.8,0.8-1.2c0,0,0,0,0,0c0.2-0.4,0.5-0.8,0.7-1.2c0-0.1,0.1-0.2,0.1-0.2c0.2-0.4,0.4-0.8,0.6-1.3c0,0,0,0,0,0
			c0,0,0,0,0,0c0.6-1.2,1.1-2.5,1.5-3.8c0,0,0,0,0,0c0.1-0.3,0.2-0.6,0.3-1c0,0,0-0.1,0-0.1c0.1-0.3,0.2-0.6,0.2-0.9
			c0-0.1,0.1-0.2,0.1-0.3c0.1-0.2,0.1-0.4,0.2-0.7c0.1-0.3,0.1-0.5,0.2-0.8c0-0.1,0-0.1,0-0.2c1.9-5.5,2.3-11.6,0.5-17.6
			c0,0-8.8-4.1-28.2,8.6l-13.7,24.7l13.7-24.7c0.5-23.2-7.6-28.5-7.6-28.5c-6,1.7-11,5.3-14.7,9.8c-0.1,0-0.1,0.1-0.2,0.1
			c-0.2,0.2-0.4,0.4-0.6,0.6c-0.2,0.2-0.3,0.3-0.5,0.5c-0.1,0.1-0.2,0.2-0.2,0.2c-0.2,0.2-0.4,0.4-0.6,0.7c0,0-0.1,0.1-0.1,0.1
			c-0.2,0.2-0.4,0.5-0.7,0.8c0,0,0,0,0,0c-0.9,1-1.7,2.1-2.4,3.3c0,0,0,0,0,0c0,0,0,0,0,0c-0.3,0.4-0.5,0.8-0.7,1.2
			c0,0.1-0.1,0.1-0.1,0.2c-0.2,0.4-0.4,0.8-0.7,1.2c0,0,0,0,0,0c-0.2,0.4-0.4,0.9-0.6,1.3c0,0.1-0.1,0.1-0.1,0.2
			c-0.4,0.9-0.7,1.8-1,2.7c0,0.1,0,0.1-0.1,0.2c-0.3,0.9-0.5,1.9-0.7,2.8c0,0.1,0,0.2,0,0.2c-0.2,0.9-0.3,1.9-0.4,2.9
			c0,0.1,0,0.2,0,0.3c-0.1,1-0.1,1.9-0.1,2.9c0,0.1,0,0.2,0,0.3c0,1,0.1,1.9,0.2,2.9c0,0.1,0,0.2,0,0.3c0.1,0.5,0.1,1,0.2,1.4
			c0,0,0,0,0,0c0.1,0.5,0.2,1,0.3,1.4c0,0.1,0.1,0.2,0.1,0.3c0.1,0.5,0.2,1,0.4,1.4c1.8,6.2,5.4,11.5,10.2,15.2
			c0.2,0.2,0.4,0.3,0.7,0.5c0.1,0.1,0.2,0.2,0.3,0.2c0.1,0.1,0.2,0.1,0.3,0.2c0,0,0.1,0.1,0.1,0.1c0.2,0.1,0.4,0.2,0.6,0.4
			c0.8,0.5,1.5,1,1.9,1.2c0.1,0.1,0.1,0.1,0.2,0.1c0.1,0,0.1,0.1,0.1,0.1l0,0l0,0c0,0,0,0,0.1,0.1c0,0,0,0,0,0
			c0.4,0.2,1.3,0.6,2.3,1.1c0.1,0,0.2,0.1,0.2,0.1c0.4,0.2,0.9,0.4,1.3,0.5c0.3,0.1,0.5,0.2,0.7,0.3c5.7,2,12,2.3,18.3,0.5
			c0.5-0.1,0.9-0.3,1.4-0.4c0.1,0,0.2-0.1,0.3-0.1C-160.2,205.6-159.7,205.4-159.3,205.2z M-183.7,200.7L-183.7,200.7L-183.7,200.7
			L-183.7,200.7z"/>
		<g opacity="0.1">
			<path fill="#363738" d="M-112.6,191.5c-12.9-4.7-25.8-0.3-38.6-5.9c0.7-3.8,1.3-7.6,2-11.4c12.9,4.7,25.8,0.3,38.6,5.9
				C-111.3,183.9-112,187.7-112.6,191.5z"/>
		</g>
		<g>
			<path fill="#FFFFFF" d="M-113.6,189.8c-12.9-4.7-25.8-0.3-38.6-5.9c0.7-3.8,1.3-7.6,2-11.4c12.9,4.7,25.8,0.3,38.6,5.9
				C-112.2,182.2-112.9,186-113.6,189.8z"/>
		</g>
		<path fill="#FACBA5" d="M-143.3,181.1c-3,8.5-10,15.5-19.3,18.2c-6,1.7-12.1,1.4-17.6-0.5c-1.3-0.4-4.5-2-4.5-2l-3,5.4
			c0,0,3.2,1.6,4.6,2.1c5.7,2,12,2.3,18.3,0.5C-153.2,201.5-145.2,192.1-143.3,181.1z"/>
		<path fill="#FACBA5" d="M-143.3,181.1c1.9-5.5,2.3-11.6,0.5-17.6c0,0-8.8-4.1-28.2,8.6l-13.7,24.7l0,0c0,0,3.1,1.6,4.5,2
			c5.5,1.9,11.6,2.2,17.6,0.5C-153.2,196.6-146.3,189.7-143.3,181.1z"/>
		<path fill="#FBE0CA" d="M-188.6,194.1c-4.5-3.6-8-8.6-9.7-14.6c-2.7-9.3-0.4-18.9,5.2-26c-8.2,7.5-12,19.2-8.7,30.6
			c1.8,6.2,5.4,11.5,10.2,15.2c1.1,0.9,4.2,2.8,4.2,2.8l3-5.4C-184.6,196.8-187.5,195-188.6,194.1z"/>
		<path fill="#FBE0CA" d="M-170.9,172.1c0.5-23.2-7.6-28.5-7.6-28.5c-6,1.7-11,5.3-14.7,9.8c-5.6,7.1-7.8,16.6-5.2,26
			c1.7,6,5.2,11,9.7,14.6c1.1,0.9,4,2.7,4,2.7l0,0L-170.9,172.1z"/>
		<path opacity="0.3" fill="#AF6429" d="M-145.8,188.9c-3.8,6-9.8,10.8-17.2,12.9c-6.2,1.8-12.6,1.5-18.3-0.5
			c-1.4-0.4-4.6-2.1-4.6-2.1l0,0l0,0c0,0-3.1-1.9-4.2-2.8c-4.7-3.8-8.4-9-10.2-15.2c-2.1-7.4-1.3-15,1.8-21.4
			c-4.4,7-5.9,15.8-3.5,24.4c1.8,6.2,5.4,11.5,10.2,15.2c1.1,0.9,4.2,2.8,4.2,2.8l0,0l0,0l0,0l0,0c0,0,3.2,1.6,4.6,2.1
			c5.7,2,12,2.3,18.3,0.5C-156,202.3-149.4,196.4-145.8,188.9z"/>
		<path opacity="0.5" fill="#AF6429" d="M-198.4,159.7c-3.1,6.4-3.9,14-1.8,21.4c1.8,6.2,5.4,11.5,10.2,15.2
			c1.1,0.9,4.2,2.8,4.2,2.8l1.3-2.4c0,0-3-1.8-4-2.7c-4.5-3.6-8-8.6-9.7-14.6c-2.7-9.3-0.4-18.9,5.2-26
			C-195.2,155.3-197,157.5-198.4,159.7z"/>
		<path opacity="0.5" fill="#AF6429" d="M-145.8,188.9c-3.8,6-9.8,10.8-17.2,12.9c-6.2,1.8-12.6,1.5-18.3-0.5
			c-1.4-0.4-4.6-2.1-4.6-2.1l1.3-2.4c0,0,3.1,1.6,4.5,2c5.5,1.9,11.6,2.2,17.6,0.5c9.3-2.7,16.3-9.7,19.3-18.2
			C-143.7,183.9-144.6,186.5-145.8,188.9z"/>
		<path opacity="0.5" fill="#F0C419" d="M-161.5,203.7C-161.5,203.7-161.5,203.7-161.5,203.7c0.5-0.2,0.9-0.4,1.3-0.6
			c0.1,0,0.2-0.1,0.3-0.1c0.4-0.2,0.9-0.4,1.3-0.7c0,0,0,0,0,0c0.4-0.2,0.8-0.5,1.2-0.7c0.1-0.1,0.2-0.1,0.3-0.2
			c0.4-0.3,0.8-0.5,1.2-0.8c0,0,0,0,0,0c0.4-0.3,0.8-0.6,1.2-0.8c0.1-0.1,0.2-0.1,0.2-0.2c0.8-0.6,1.5-1.2,2.2-1.9
			c0.1-0.1,0.1-0.1,0.2-0.2c0.7-0.7,1.4-1.4,2-2.1c0.1-0.1,0.1-0.1,0.2-0.2c0.6-0.7,1.2-1.5,1.7-2.3c0-0.1,0.1-0.1,0.1-0.2
			c0.3-0.4,0.5-0.8,0.8-1.2c0,0,0,0,0,0c0.2-0.4,0.5-0.8,0.7-1.2c0-0.1,0.1-0.2,0.1-0.2c0.2-0.4,0.4-0.8,0.6-1.3c0,0,0,0,0,0
			c0,0,0,0,0,0c0.6-1.2,1.1-2.5,1.5-3.8c0,0,0,0,0,0c0.1-0.3,0.2-0.6,0.3-1c0,0,0-0.1,0-0.1c0.1-0.3,0.2-0.6,0.2-0.9
			c0-0.1,0.1-0.2,0.1-0.3c0.1-0.2,0.1-0.4,0.2-0.7c0.1-0.3,0.1-0.5,0.2-0.8c0-0.1,0-0.1,0-0.2c1.9-5.5,2.3-11.6,0.5-17.6
			c0,0-8.8-4.1-28.2,8.6l-13.7,24.7l13.7-24.7c0.5-23.2-7.6-28.5-7.6-28.5c-6,1.7-11,5.3-14.7,9.8c-0.1,0-0.1,0.1-0.2,0.1
			c-0.2,0.2-0.4,0.4-0.6,0.6c-0.2,0.2-0.3,0.3-0.5,0.5c-0.1,0.1-0.2,0.2-0.2,0.2c-0.2,0.2-0.4,0.4-0.6,0.7c0,0-0.1,0.1-0.1,0.1
			c-0.2,0.2-0.4,0.5-0.7,0.8c0,0,0,0,0,0c-0.9,1-1.7,2.1-2.4,3.3c0,0,0,0,0,0c0,0,0,0,0,0c-0.3,0.4-0.5,0.8-0.7,1.2
			c0,0.1-0.1,0.1-0.1,0.2c-0.2,0.4-0.4,0.8-0.7,1.2c0,0,0,0,0,0c-0.2,0.4-0.4,0.9-0.6,1.3c0,0.1-0.1,0.1-0.1,0.2
			c-0.4,0.9-0.7,1.8-1,2.7c0,0.1,0,0.1-0.1,0.2c-0.3,0.9-0.5,1.9-0.7,2.8c0,0.1,0,0.2,0,0.2c-0.2,0.9-0.3,1.9-0.4,2.9
			c0,0.1,0,0.2,0,0.3c-0.1,1-0.1,1.9-0.1,2.9c0,0.1,0,0.2,0,0.3c0,1,0.1,1.9,0.2,2.9c0,0.1,0,0.2,0,0.3c0.1,0.5,0.1,1,0.2,1.4
			c0,0,0,0,0,0c0.1,0.5,0.2,1,0.3,1.4c0,0.1,0.1,0.2,0.1,0.3c0.1,0.5,0.2,1,0.4,1.4c1.8,6.2,5.4,11.5,10.2,15.2
			c0.2,0.2,0.4,0.3,0.7,0.5c0.1,0.1,0.2,0.2,0.3,0.2c0.1,0.1,0.2,0.1,0.3,0.2c0,0,0.1,0.1,0.1,0.1c0.2,0.1,0.4,0.2,0.6,0.4
			c0.8,0.5,1.5,1,1.9,1.2c0.1,0.1,0.1,0.1,0.2,0.1c0.1,0,0.1,0.1,0.1,0.1l0,0l0,0c0,0,0,0,0.1,0.1c0,0,0,0,0,0
			c0.4,0.2,1.3,0.6,2.3,1.1c0.1,0,0.2,0.1,0.2,0.1c0.4,0.2,0.9,0.4,1.3,0.5c0.3,0.1,0.5,0.2,0.7,0.3c5.7,2,12,2.3,18.3,0.5
			c0.5-0.1,0.9-0.3,1.4-0.4c0.1,0,0.2-0.1,0.3-0.1C-162.4,204.1-161.9,203.9-161.5,203.7z M-185.9,199.2L-185.9,199.2L-185.9,199.2
			L-185.9,199.2z"/>
		<path fill="#F09C57" d="M-189.9,206.6c0.1,0,0.1,0.1,0.2,0.1C-189.7,206.7-189.8,206.6-189.9,206.6z"/>
	</g>
	<g>
		<path opacity="0.1" fill="#363738" d="M-89.6,138.9C-89.6,138.9-89.6,138.9-89.6,138.9c0.1-0.5,0.2-0.9,0.3-1.4
			c0-0.1,0-0.2,0.1-0.3c0.1-0.5,0.2-0.9,0.3-1.4c0,0,0,0,0,0c0.1-0.5,0.1-0.9,0.2-1.4c0-0.1,0-0.2,0-0.3c0-0.5,0.1-1,0.1-1.4
			c0,0,0,0,0,0c0-0.5,0-1,0-1.4c0-0.1,0-0.2,0-0.3c0-1-0.1-1.9-0.1-2.9c0-0.1,0-0.2,0-0.3c-0.1-1-0.3-1.9-0.4-2.8c0-0.1,0-0.2,0-0.2
			c-0.2-0.9-0.4-1.9-0.7-2.8c0-0.1,0-0.2-0.1-0.2c-0.1-0.5-0.3-0.9-0.5-1.4c0,0,0,0,0,0c-0.2-0.4-0.3-0.9-0.5-1.3
			c0-0.1-0.1-0.2-0.1-0.2c-0.2-0.4-0.4-0.9-0.6-1.3c0,0,0,0,0,0c0,0,0,0,0,0c-0.6-1.2-1.3-2.4-2.1-3.5c0,0,0,0,0,0
			c-0.2-0.3-0.4-0.5-0.6-0.8c0,0-0.1-0.1-0.1-0.1c-0.2-0.2-0.4-0.5-0.5-0.7c-0.1-0.1-0.1-0.2-0.2-0.3c-0.1-0.2-0.3-0.4-0.4-0.5
			c-0.2-0.2-0.4-0.4-0.5-0.6c0-0.1-0.1-0.1-0.1-0.2c-3.2-4.9-7.8-8.9-13.6-11.2c0,0-8.6,4.4-10.4,27.6l11.2,25.9l-11.2-25.9
			c-18.1-14.6-27.2-11.3-27.2-11.3c-2.3,5.8-2.6,12-1.2,17.6c0,0.1,0,0.1,0,0.2c0,0.3,0,0.5,0.1,0.8c0,0.2,0.1,0.4,0.1,0.7
			c0,0.1,0,0.2,0,0.3c0,0.3,0.1,0.6,0.1,0.9c0,0,0,0.1,0,0.1c0.1,0.3,0.1,0.7,0.2,1c0,0,0,0,0,0c0.3,1.3,0.7,2.6,1.1,3.9
			c0,0,0,0,0,0c0,0,0,0,0,0c0.2,0.4,0.3,0.9,0.5,1.3c0,0.1,0.1,0.1,0.1,0.2c0.2,0.4,0.4,0.9,0.6,1.3c0,0,0,0,0,0
			c0.2,0.4,0.4,0.9,0.7,1.3c0,0.1,0.1,0.1,0.1,0.2c0.5,0.8,1,1.7,1.5,2.5c0,0.1,0.1,0.1,0.1,0.2c0.6,0.8,1.1,1.5,1.8,2.3
			c0.1,0.1,0.1,0.1,0.2,0.2c0.6,0.7,1.3,1.4,2,2.1c0.1,0.1,0.1,0.1,0.2,0.2c0.7,0.7,1.4,1.3,2.2,1.9c0.1,0.1,0.2,0.1,0.2,0.2
			c0.8,0.6,1.6,1.1,2.4,1.6c0.1,0.1,0.2,0.1,0.3,0.2c0.4,0.2,0.8,0.5,1.3,0.7c0,0,0,0,0,0c0.4,0.2,0.9,0.4,1.3,0.7
			c0.1,0,0.2,0.1,0.3,0.1c0.4,0.2,0.9,0.4,1.4,0.6c6,2.4,12.4,2.7,18.3,1.2c0.2-0.1,0.5-0.1,0.9-0.2c0.1,0,0.3-0.1,0.4-0.1
			c0.1,0,0.2-0.1,0.4-0.1c0,0,0.1,0,0.1,0c0.2-0.1,0.4-0.1,0.6-0.2c0.9-0.3,1.7-0.6,2.1-0.8c0.1,0,0.2-0.1,0.2-0.1
			c0.1,0,0.1,0,0.1,0l0,0l0,0c0,0,0,0,0.1-0.1c0,0,0,0,0,0c0.4-0.2,1.3-0.6,2.3-1.2c0.1,0,0.2-0.1,0.2-0.1c0.4-0.2,0.8-0.5,1.2-0.7
			c0.2-0.1,0.5-0.3,0.6-0.4c5.1-3.3,9.2-8.1,11.6-14.2c0.2-0.5,0.3-0.9,0.5-1.4c0-0.1,0.1-0.2,0.1-0.3
			C-89.8,139.8-89.7,139.4-89.6,138.9z M-108,155.5L-108,155.5L-108,155.5L-108,155.5z"/>
		<path fill="#FACBA5" d="M-98.9,108.8c4.9,7.6,6.2,17.3,2.6,26.4c-2.3,5.8-6.3,10.4-11.1,13.6c-1.2,0.8-4.3,2.3-4.3,2.3l2.4,5.6
			c0,0,3.3-1.6,4.5-2.4c5.1-3.3,9.2-8.1,11.6-14.2C-88.8,129.1-91.4,117-98.9,108.8z"/>
		<path fill="#FACBA5" d="M-98.9,108.8c-3.2-4.9-7.8-8.9-13.6-11.2c0,0-8.6,4.4-10.4,27.6l11.2,25.9l0,0c0,0,3.1-1.5,4.3-2.3
			c4.9-3.2,8.8-7.8,11.1-13.6C-92.7,126.1-94,116.3-98.9,108.8z"/>
		<path fill="#FBE0CA" d="M-116.3,152.6c-5.6,1.4-11.7,1.1-17.5-1.2c-9-3.6-15.3-11.2-17.4-19.9c0.9,11.1,7.9,21.2,19,25.6
			c6,2.4,12.4,2.7,18.3,1.2c1.4-0.3,4.8-1.6,4.8-1.6l-2.4-5.6C-111.7,151-115,152.3-116.3,152.6z"/>
		<path fill="#FBE0CA" d="M-122.9,125.1c-18.1-14.6-27.2-11.3-27.2-11.3c-2.3,5.8-2.6,12-1.2,17.6c2.2,8.8,8.4,16.4,17.4,19.9
			c5.8,2.3,11.9,2.6,17.5,1.2c1.4-0.3,4.6-1.5,4.6-1.5l0,0L-122.9,125.1z"/>
		<path opacity="0.3" fill="#AF6429" d="M-94.3,115.5c2.5,6.7,2.6,14.3-0.3,21.5c-2.4,6-6.5,10.9-11.6,14.2
			c-1.2,0.8-4.5,2.4-4.5,2.4l0,0l0,0c0,0-3.4,1.3-4.8,1.6c-5.9,1.4-12.2,1.1-18.3-1.2c-7.2-2.8-12.6-8.1-15.8-14.5
			c2.9,7.8,8.9,14.4,17.2,17.6c6,2.4,12.4,2.7,18.3,1.2c1.4-0.3,4.8-1.6,4.8-1.6l0,0l0,0l0,0l0,0c0,0,3.3-1.6,4.5-2.4
			c5.1-3.3,9.2-8.1,11.6-14.2C-89.9,131.8-90.6,122.9-94.3,115.5z"/>
		<path opacity="0.5" fill="#AF6429" d="M-149.5,139.4c3.2,6.4,8.7,11.7,15.8,14.5c6,2.4,12.4,2.7,18.3,1.2c1.4-0.3,4.8-1.6,4.8-1.6
			l-1.1-2.5c0,0-3.3,1.3-4.6,1.5c-5.6,1.4-11.7,1.1-17.5-1.2c-9-3.6-15.3-11.2-17.4-19.9C-151.1,134.2-150.5,136.8-149.5,139.4z"/>
		<path opacity="0.5" fill="#AF6429" d="M-94.3,115.5c2.5,6.7,2.6,14.3-0.3,21.5c-2.4,6-6.5,10.9-11.6,14.2
			c-1.2,0.8-4.5,2.4-4.5,2.4l-1.1-2.5c0,0,3.1-1.5,4.3-2.3c4.9-3.2,8.8-7.8,11.1-13.6c3.6-9,2.3-18.8-2.6-26.4
			C-97.1,110.8-95.5,113.1-94.3,115.5z"/>
		<path opacity="0.5" fill="#F0C419" d="M-92.2,137C-92.2,137-92.2,137-92.2,137c0.1-0.5,0.2-0.9,0.3-1.4c0-0.1,0-0.2,0.1-0.3
			c0.1-0.5,0.2-0.9,0.3-1.4c0,0,0,0,0,0c0.1-0.5,0.1-0.9,0.2-1.4c0-0.1,0-0.2,0-0.3c0-0.5,0.1-1,0.1-1.4c0,0,0,0,0,0
			c0-0.5,0-1,0-1.4c0-0.1,0-0.2,0-0.3c0-1-0.1-1.9-0.1-2.9c0-0.1,0-0.2,0-0.3c-0.1-1-0.3-1.9-0.4-2.8c0-0.1,0-0.2,0-0.2
			c-0.2-0.9-0.4-1.9-0.7-2.8c0-0.1,0-0.2-0.1-0.2c-0.1-0.5-0.3-0.9-0.5-1.4c0,0,0,0,0,0c-0.2-0.4-0.3-0.9-0.5-1.3
			c0-0.1-0.1-0.2-0.1-0.2c-0.2-0.4-0.4-0.9-0.6-1.3c0,0,0,0,0,0c0,0,0,0,0,0c-0.6-1.2-1.3-2.4-2.1-3.5c0,0,0,0,0,0
			c-0.2-0.3-0.4-0.5-0.6-0.8c0,0-0.1-0.1-0.1-0.1c-0.2-0.2-0.4-0.5-0.5-0.7c-0.1-0.1-0.1-0.2-0.2-0.3c-0.1-0.2-0.3-0.4-0.4-0.5
			c-0.2-0.2-0.4-0.4-0.5-0.6c0-0.1-0.1-0.1-0.1-0.2c-3.2-4.9-7.8-8.9-13.6-11.2c0,0-8.6,4.4-10.4,27.6l11.2,25.9l-11.2-25.9
			c-18.1-14.6-27.2-11.3-27.2-11.3c-2.3,5.8-2.6,12-1.2,17.6c0,0.1,0,0.1,0,0.2c0,0.3,0,0.5,0.1,0.8c0,0.2,0.1,0.4,0.1,0.7
			c0,0.1,0,0.2,0,0.3c0,0.3,0.1,0.6,0.1,0.9c0,0,0,0.1,0,0.1c0.1,0.3,0.1,0.7,0.2,1c0,0,0,0,0,0c0.3,1.3,0.7,2.6,1.1,3.9
			c0,0,0,0,0,0c0,0,0,0,0,0c0.2,0.4,0.3,0.9,0.5,1.3c0,0.1,0.1,0.1,0.1,0.2c0.2,0.4,0.4,0.9,0.6,1.3c0,0,0,0,0,0
			c0.2,0.4,0.4,0.9,0.7,1.3c0,0.1,0.1,0.1,0.1,0.2c0.5,0.8,1,1.7,1.5,2.5c0,0.1,0.1,0.1,0.1,0.2c0.6,0.8,1.1,1.5,1.8,2.3
			c0.1,0.1,0.1,0.1,0.2,0.2c0.6,0.7,1.3,1.4,2,2.1c0.1,0.1,0.1,0.1,0.2,0.2c0.7,0.7,1.4,1.3,2.2,1.9c0.1,0.1,0.2,0.1,0.2,0.2
			c0.8,0.6,1.6,1.1,2.4,1.6c0.1,0.1,0.2,0.1,0.3,0.2c0.4,0.2,0.8,0.5,1.3,0.7c0,0,0,0,0,0c0.4,0.2,0.9,0.4,1.3,0.7
			c0.1,0,0.2,0.1,0.3,0.1c0.4,0.2,0.9,0.4,1.4,0.6c6,2.4,12.4,2.7,18.3,1.2c0.2-0.1,0.5-0.1,0.9-0.2c0.1,0,0.3-0.1,0.4-0.1
			c0.1,0,0.2-0.1,0.4-0.1c0,0,0.1,0,0.1,0c0.2-0.1,0.4-0.1,0.6-0.2c0.9-0.3,1.7-0.6,2.1-0.8c0.1,0,0.2-0.1,0.2-0.1
			c0.1,0,0.1,0,0.1,0l0,0l0,0c0,0,0,0,0.1-0.1c0,0,0,0,0,0c0.4-0.2,1.3-0.6,2.3-1.2c0.1,0,0.2-0.1,0.2-0.1c0.4-0.2,0.8-0.5,1.2-0.7
			c0.2-0.1,0.5-0.3,0.6-0.4c5.1-3.3,9.2-8.1,11.6-14.2c0.2-0.5,0.3-0.9,0.5-1.4c0-0.1,0.1-0.2,0.1-0.3
			C-92.4,137.9-92.3,137.4-92.2,137z M-110.6,153.5L-110.6,153.5L-110.6,153.5L-110.6,153.5z"/>
		<path fill="#F09C57" d="M-107.2,161.2c0.1,0,0.1-0.1,0.2-0.1C-107.1,161.2-107.1,161.2-107.2,161.2z"/>
	</g>
	<path fill="#167051" d="M-155,78.4l-99.8,46.5c-1.7,6.6-2.7,13.5-3.1,20.5L-153.1,82c0.9-0.5,1.2-1.6,0.8-2.6
		C-152.8,78.4-154,78-155,78.4z"/>
	<path fill="#189169" d="M-155,78.4l-99.8,46.5c-0.9,3.5-1.6,7.1-2.1,10.7l104.6-56.2C-152.8,78.4-154,78-155,78.4z"/>
	<path opacity="0.1" fill="#363738" d="M-152.3,83.3l-104.6,81.3c1,7.1,2.8,14,5.3,20.5l102-98.7c0.7-0.7,0.8-1.9,0.2-2.7
		C-150.2,82.8-151.4,82.6-152.3,83.3z"/>
	<path fill="#167051" d="M-152.1,83.8l-105.4,75.4c0.6,7.1,2,14,4.1,20.6l103.9-92.9c0.7-0.7,0.9-1.8,0.3-2.7
		C-150,83.3-151.2,83.1-152.1,83.8z"/>
	<path fill="#189169" d="M-152.1,83.8l-105.4,75.4c0.3,3.7,0.9,7.4,1.6,10.9l106.6-85.9C-150,83.3-151.2,83.1-152.1,83.8z"/>
</g>
<g id="Terra">
	<circle fill="#363738" cx="-466" cy="150" r="100"/>
	<circle opacity="0.5" fill="#492D7C" cx="-466" cy="150" r="100"/>
	<circle fill="#FCF1C9" cx="-533.8" cy="91.5" r="0.7"/>
	<circle fill="#F5D871" cx="-515.5" cy="79.7" r="0.7"/>
	<circle fill="#FCF1C9" cx="-457.6" cy="65.9" r="1"/>
	<circle fill="#F5D871" cx="-424.8" cy="65.6" r="0.8"/>
	<circle fill="#F8E7A2" cx="-410.3" cy="74" r="1.3"/>
	<circle fill="#FCF1C9" cx="-432.8" cy="64.4" r="0.6"/>
	<circle fill="#F8E7A2" cx="-448.1" cy="69.4" r="0.9"/>
	<circle fill="#FCF1C9" cx="-534.5" cy="96.3" r="0.8"/>
	<circle fill="#FCF1C9" cx="-548.9" cy="133.9" r="1.3"/>
	<circle fill="#F8E7A2" cx="-557.9" cy="135.3" r="1.4"/>
	<circle fill="#FCF1C9" cx="-523.7" cy="212.2" r="1.2"/>
	<circle fill="#FCF1C9" cx="-381.1" cy="112.3" r="0.8"/>
	<circle fill="#F5D871" cx="-377.2" cy="172.9" r="0.7"/>
	<circle fill="#F5D871" cx="-388.7" cy="179.7" r="1.3"/>
	<circle fill="#F8E7A2" cx="-491" cy="240.6" r="0.7"/>
	<circle fill="#FCF1C9" cx="-471.9" cy="238.4" r="0.6"/>
	<circle fill="#F5D871" cx="-441.3" cy="240.4" r="1.1"/>
	<circle fill="#F8E7A2" cx="-431.4" cy="226.5" r="1.3"/>
	<circle fill="#F8E7A2" cx="-411.8" cy="215.7" r="1.1"/>
	<circle fill="#FCF1C9" cx="-393.9" cy="206.6" r="1"/>
	<circle fill="#FCF1C9" cx="-380.1" cy="189.8" r="1.2"/>
	<circle fill="#F5D871" cx="-373.5" cy="127.5" r="1"/>
	<circle fill="#FCF1C9" cx="-388.8" cy="110.7" r="1.5"/>
	<circle fill="#F8E7A2" cx="-545.9" cy="168.2" r="1.1"/>
	<circle fill="#FCF1C9" cx="-555.8" cy="182.4" r="1.4"/>
	<circle fill="#FCF1C9" cx="-431.9" cy="61.7" r="0.8"/>
	<circle fill="#FCF1C9" cx="-413.1" cy="72.9" r="0.6"/>
	<circle fill="#FCF1C9" cx="-378.5" cy="121.5" r="1.4"/>
	<circle fill="#F8E7A2" cx="-553" cy="115.5" r="0.6"/>
	<circle fill="#F5D871" cx="-529.8" cy="81.9" r="1"/>
	<circle fill="#FCF1C9" cx="-509.3" cy="78.3" r="0.5"/>
	<circle fill="#FCF1C9" cx="-493.6" cy="70.7" r="1.4"/>
	<circle fill="#F5D871" cx="-477" cy="62.1" r="1.2"/>
	<circle fill="#FCF1C9" cx="-459" cy="56.2" r="0.6"/>
	<circle fill="#F8E7A2" cx="-375.9" cy="158" r="0.7"/>
	<circle fill="#F5D871" cx="-384.5" cy="187.8" r="1.4"/>
	<circle fill="#F5D871" cx="-401.5" cy="203.5" r="0.7"/>
	<circle fill="#F8E7A2" cx="-478.2" cy="233.6" r="1.4"/>
	<circle fill="#F8E7A2" cx="-497.4" cy="229.9" r="0.8"/>
	<circle fill="#F8E7A2" cx="-464.8" cy="63.3" r="0.5"/>
	<circle fill="#FCF1C9" cx="-490.2" cy="64.1" r="0.9"/>
	<circle fill="#FCF1C9" cx="-506.9" cy="72.2" r="0.5"/>
	<circle fill="#FCF1C9" cx="-531.8" cy="103.1" r="0.5"/>
	<circle fill="#F5D871" cx="-547.9" cy="126.9" r="1.2"/>
	<circle fill="#FCF1C9" cx="-372.3" cy="162.2" r="1.1"/>
	<circle fill="#FCF1C9" cx="-382.6" cy="142.9" r="0.7"/>
	<circle fill="#FCF1C9" cx="-374.7" cy="173.4" r="0.7"/>
	<circle fill="#F5D871" cx="-423.3" cy="234" r="1.4"/>
	<path fill="#3390CA" d="M-452.2,76.6c0.6,0,1.1,0,1.7,0c-5-1.1-10.2-1.6-15.5-1.6c-15.6,0-30.1,4.8-42.2,13
		c13.2-7.6,23.3-8.2,38.4-8.2C-463.5,79.8-458.2,76.8-452.2,76.6z"/>
	<path fill="#3390CA" d="M-397.9,125.8c-2.3-11-11.8-21.8-17.8-31.5c-8.3-7.5-18.3-13.1-29.4-16.3c3.3,1.5,6.1,3.8,9.1,6.3
		c-5.9,2.2-7.1,0.3-12.7-0.9c-5.8-1.3-6.4-0.5-12.3,2.4c2.8,2.8,3.5,4.7,7.1,4.2c3.4-0.5,5.2-2.3,4.2-5.9c3.9,0.9,11.3,1,14.5,3.3
		c3.1,2.2,5.3,8.6,7.3,11.9c-1.4-1.3-3.7-1.9-5.2-3c-1.1,7.8-7.2,3.2-12.3,4.8c-3.5,1.1-3.2,1.6-6.1,4.5
		c-5.6,5.7-11.4,19.2-18.6,21.6c-7.6,2.5-20.6-8-20.3,5c0.1,2.8,4.6,14.7,6.7,16.4c2.6,2.2,6,1.5,10.1,1.5c-3.7,2.7-5.9,5.3-9.8,4.7
		c-4.9-0.8-8-5.9-11.4-8.6c-4.3-3.4-5.8-2.5-11.4-4.6c-6-2.2-4.1-2.8-8.2-8c-6.1-7.8-12.5-10-7.5-22c3.3-8,13-16,18.5-22.8
		c-1.5,0-3.1-0.8-4.7-0.8c-19.8,13.5-32.8,36.2-32.8,62c0,41.4,33.6,75,75,75c37.5,0,68.5-27.5,74.1-63.4
		C-396.4,162-397.4,128.1-397.9,125.8z M-412.8,189.8c-7.9,10.9-22.4,22-33.4,29.8c-7.1,5-14.9,6.6-15.5-3.8
		c-0.4-6.7,3.7-13.9,0.8-19.1c-2.5-4.4-9.4-6.3-12-10.7c-1.6-2.8-1.7-7.5-2.3-10.8c-2-10.4-0.5-15.1,2.8-25.2
		c13.8,0,32.4-3.4,43.3,7.3c3.1,3,4.3,8.9,7.7,11.5c3,2.2,6.3,0,9.8,1.5C-402.8,174.1-408.9,184.3-412.8,189.8z"/>
	<path fill="#37B98D" d="M-435.3,87.3c-3.2-2.3-10.6-2.4-14.5-3.3c1,3.6-0.8,5.4-4.2,5.9c-3.5,0.6-4.3-1.4-7.1-4.2
		c5.8-2.9,6.5-3.7,12.3-2.4c5.7,1.2,6.8,3.1,12.7,0.9c-3-2.4-5.8-4.8-9.1-6.3c-1.6-0.7-3.4-1.2-5.4-1.3c-0.6,0-1.1-0.1-1.7,0
		c-6,0.2-11.3,3.2-17.6,3.2c-15,0-25.2,0.6-38.4,8.2c0,0,0,0-0.1,0c0,0,0,0,0,0c1.5-0.1,3.1,0.7,4.7,0.8
		c-5.5,6.7-15.2,14.8-18.5,22.8c-5,12,1.4,14.2,7.5,22c4.1,5.3,2.2,5.9,8.2,8c5.7,2,7.1,1.2,11.4,4.6c3.3,2.6,6.4,7.8,11.4,8.6
		c3.9,0.6,6-2,9.8-4.7c-4.1,0-7.5,0.7-10.1-1.5c-2.1-1.8-6.6-13.7-6.7-16.4c-0.2-13,12.7-2.4,20.3-5c7.2-2.4,13-15.9,18.6-21.6
		c2.9-2.9,2.6-3.4,6.1-4.5c5.1-1.5,11.2,3.1,12.3-4.8c1.6,1.1,3.8,1.7,5.2,3C-430,95.9-432.2,89.5-435.3,87.3z"/>
	<path fill="#37B98D" d="M-411.8,170.2c-3.5-1.5-6.7,0.7-9.8-1.5c-3.5-2.6-4.6-8.5-7.7-11.5c-10.9-10.7-29.4-7.3-43.3-7.3
		c-3.3,10.2-4.7,14.9-2.8,25.2c0.6,3.3,0.7,8,2.3,10.8c2.6,4.4,9.5,6.3,12,10.7c3,5.2-1.2,12.4-0.8,19.1c0.6,10.4,8.4,8.8,15.5,3.8
		c11-7.8,25.6-19,33.4-29.8C-408.9,184.3-402.8,174.1-411.8,170.2z"/>
	<path fill="#37B98D" d="M-410.5,99.6c-1.7-1.8-3.5-3.6-5.3-5.3c0,0,0,0,0,0c0,0,0,0,0,0c6,9.7,15.5,20.5,17.8,31.5
		c0.5,2.4,1.5,36.2,6.1,35.8c0.6-3.8,0.9-7.6,0.9-11.6C-391,130.6-398.4,112.9-410.5,99.6z"/>
	<path fill="#363738" d="M-466,202.8c22.1,0,40-18.9,40-42.1h-80C-506,184-488.1,202.8-466,202.8"/>
	<path fill="#363738" d="M-496,143.9c5.5,0,10-4.7,10-10.5c0-5.8-4.5-10.5-10-10.5c-5.5,0-10,4.7-10,10.5
		C-506,139.2-501.5,143.9-496,143.9"/>
	<path fill="#363738" d="M-436,143.9c5.5,0,10-4.7,10-10.5c0-5.8-4.5-10.5-10-10.5c-5.5,0-10,4.7-10,10.5
		C-446,139.2-441.5,143.9-436,143.9"/>
	<path opacity="0.3" fill="#363738" d="M-466,75c41.4,0,75,33.6,75,75c0,41.4-33.6,75-75,75C-424.6,225-424.6,75-466,75z"/>
	<path fill="#F6F6F6" d="M-496.5,150.8c-1,0-2,0.3-2.8,0.9c-1.2-5.6-6.2-9.8-12.2-9.8c-1.6,0-3.1,0.3-4.6,0.9
		c-1.8-6.3-7.6-11-14.4-11c-8.3,0-15,6.7-15,15c0,0.5,0,1.1,0.1,1.6c0,0-0.1,0-0.1,0c-4.1,0-7.5,3.4-7.5,7.5h61.5
		C-491.5,153.1-493.7,150.8-496.5,150.8z"/>
	<path fill="#F6F6F6" d="M-391.5,113.7c0-0.1,0-0.2,0-0.3c0-4.1-3.4-7.5-7.5-7.5c-0.6,0-1.1,0.1-1.6,0.2
		c-1.5-6.7-7.5-11.8-14.6-11.8c-4.2,0-8,1.7-10.7,4.5c-1-0.3-2.1-0.4-3.3-0.4c-6.9,0-12.5,5.6-12.5,12.5c0,0,0,0.1,0,0.1
		c-0.4-0.1-0.8-0.1-1.3-0.1c-4.1,0-7.5,3.4-7.5,7.5h62.4C-388.1,116.2-389.6,114.3-391.5,113.7z"/>
	<path fill="#F6F6F6" d="M-409,204.1c-0.2,0-0.4,0-0.5,0c0-0.2,0-0.3,0-0.5c0-6.9-5.6-12.5-12.5-12.5c-0.2,0-0.3,0-0.5,0
		c-2.6-4.4-7.4-7.3-12.8-7.3c-7.7,0-14,5.8-14.9,13.2c-1.6-1-3.4-1.6-5.5-1.6c-4.8,0-8.9,3.4-9.8,8c-0.6-0.3-1.3-0.5-2.1-0.5
		c-2.8,0-5,2.2-5,5h70.1C-403.7,205.7-406.2,204.1-409,204.1z"/>
	<path opacity="0.3" fill="#363738" d="M-391.5,113.7c0-0.1,0-0.2,0-0.3c0-3.3-2.1-6.1-5.1-7.1c-0.8-0.3-1.6-0.4-2.4-0.4
		c-0.6,0-1.1,0.1-1.6,0.2c-1.5-6.7-7.5-11.8-14.6-11.8c-4.2,0-8,1.7-10.7,4.5c-1-0.3-2.1-0.4-3.3-0.4c-1.6,0-3.2,0.3-4.7,0.9
		c2,5.7,3.7,12.2,4.9,19.1h39.5h1.3C-388.1,116.2-389.6,114.3-391.5,113.7z"/>
	<path opacity="0.3" fill="#363738" d="M-406.2,204.7c-0.9-0.3-1.8-0.5-2.8-0.5c-0.2,0-0.4,0-0.5,0c0-0.2,0-0.3,0-0.5
		c0-6.9-5.6-12.5-12.5-12.5c-0.2,0-0.3,0-0.5,0c-1.7-2.8-4.2-4.9-7.2-6.2c-1.7,8.7-4.1,16.5-7.2,23h27h7.4
		C-403.3,206.5-404.6,205.3-406.2,204.7z"/>
</g>
</svg>
