<?xml version="1.0" encoding="utf-8"?>
<!-- Generator: Adobe Illustrator 19.0.0, SVG Export Plug-In . SVG Version: 6.00 Build 0)  -->
<svg version="1.1" id="Layer_1" xmlns="http://www.w3.org/2000/svg" xmlns:xlink="http://www.w3.org/1999/xlink" x="0px" y="0px"
	 viewBox="-349 101 300 300" style="enable-background:new -349 101 300 300;" xml:space="preserve">
<style type="text/css">
	.st0{fill:#3583B4;}
	.st1{fill:#3390CA;}
	.st2{fill:#388AC0;}
	.st3{fill:#52A1D4;}
	.st4{fill:#76B0D8;}
	.st5{fill:#90BBDE;}
	.st6{fill:#ADC8E5;}
	.st7{fill:#CCDCEE;}
	.st8{fill:#2E78A8;}
	.st9{fill:#F09C57;}
	.st10{opacity:0.1;}
	.st11{fill:#363738;}
	.st12{fill:#EC8732;}
	.st13{fill:#F3AE79;}
	.st14{fill:none;stroke:#525659;stroke-width:9;stroke-miterlimit:10;}
	.st15{opacity:0.7;fill:#F6F6F6;enable-background:new    ;}
	.st16{fill:#37B98D;}
	.st17{fill:#525659;}
	.st18{opacity:0.1;fill:#363738;enable-background:new    ;}
</style>
<g id="Sol">
	<path class="st0" d="M-199,251l-38.3,92.4c4.8,2,9.6,3.6,14.5,4.8C-215,350-207,351-199,351V251z"/>
	<path class="st1" d="M-199,251l-92.4,38.3c3.1,7.4,7,14.4,11.7,20.9l0.1,0.1c0.8,1,1.5,2,2.3,3c0.4,0.5,0.8,1,1.3,1.5
		c0.5,0.6,1,1.2,1.5,1.7c0.8,0.9,1.7,1.9,2.5,2.8c0.2,0.2,0.4,0.4,0.6,0.6c0.5,0.6,1.1,1.1,1.7,1.7L-199,251z"/>
	<path class="st2" d="M-199,251l-70.7,70.7c0.6,0.6,1.2,1.2,1.8,1.8l0,0c1.1,1,2.1,2,3.2,2.9c0.2,0.2,0.4,0.4,0.6,0.6
		c0.6,0.5,1.2,1,1.8,1.5c0.8,0.6,1.6,1.3,2.4,1.9c0.4,0.3,0.8,0.6,1.3,1c1,0.8,2.1,1.5,3.1,2.2c0.2,0.1,0.4,0.3,0.6,0.4
		c5.4,3.6,11.3,6.8,17.6,9.4L-199,251z"/>
	<path class="st1" d="M-199,251l92.4,38.3c2-4.8,3.6-9.6,4.8-14.5C-100,267-99,259-99,251H-199z"/>
	<path class="st3" d="M-199,251h100c0-5.6-0.5-11.1-1.4-16.6c0-0.1,0-0.2,0-0.2c-0.1-0.6-0.2-1.1-0.3-1.7c-0.1-0.3-0.1-0.7-0.2-1
		c-0.1-0.3-0.1-0.6-0.2-1c-0.1-0.6-0.2-1.1-0.4-1.7c0-0.1,0-0.2-0.1-0.2c-1.3-5.4-3-10.7-5.1-15.9L-199,251z"/>
	<path class="st3" d="M-199,251h-100c0,5.6,0.5,11.1,1.4,16.6c0,0.1,0,0.2,0,0.2c0.1,0.6,0.2,1.1,0.3,1.7c0.1,0.3,0.1,0.7,0.2,1
		s0.1,0.6,0.2,1c0.1,0.6,0.2,1.1,0.4,1.7c0,0.1,0,0.2,0.1,0.2c1.3,5.4,3,10.7,5.1,15.9L-199,251z"/>
	<path class="st4" d="M-199,251l-92.4-38.3c-2,4.8-3.6,9.6-4.8,14.5C-298,235-299,243-299,251H-199z"/>
	<path class="st4" d="M-199,251l92.4-38.3c-3.1-7.4-7-14.4-11.7-20.9l-0.1-0.1c-0.8-1-1.5-2-2.3-3c-0.4-0.5-0.8-1-1.3-1.5
		c-0.5-0.6-1-1.2-1.5-1.7c-0.8-0.9-1.7-1.9-2.5-2.8c-0.2-0.2-0.4-0.4-0.6-0.6c-0.5-0.6-1.1-1.1-1.7-1.7L-199,251z"/>
	<path class="st5" d="M-199,251l70.7-70.7c-0.6-0.6-1.2-1.2-1.8-1.8l0,0c-1.1-1-2.1-2-3.2-2.9c-0.2-0.2-0.4-0.4-0.6-0.6
		c-0.6-0.5-1.2-1-1.8-1.5c-0.8-0.6-1.6-1.3-2.4-1.9c-0.4-0.3-0.8-0.6-1.3-1c-1-0.8-2.1-1.5-3.1-2.2c-0.2-0.1-0.4-0.3-0.6-0.4
		c-5.4-3.6-11.3-6.8-17.6-9.4L-199,251z"/>
	<path class="st2" d="M-199,251l70.7,70.7c0.6-0.6,1.2-1.2,1.8-1.8l0,0c1-1.1,2-2.1,2.9-3.2c0.2-0.2,0.4-0.4,0.6-0.6
		c0.5-0.6,1-1.2,1.5-1.8c0.6-0.8,1.3-1.6,1.9-2.4c0.3-0.4,0.6-0.8,1-1.3c0.8-1,1.5-2.1,2.2-3.1c0.1-0.2,0.3-0.4,0.4-0.6
		c3.6-5.4,6.8-11.3,9.4-17.6L-199,251z"/>
	<path class="st0" d="M-199,251l38.3,92.4c7.4-3.1,14.4-7,20.9-11.7l0.1-0.1c1-0.8,2-1.5,3-2.3c0.5-0.4,1-0.8,1.5-1.3
		c0.6-0.5,1.2-1,1.7-1.5c0.9-0.8,1.9-1.7,2.8-2.5c0.2-0.2,0.4-0.4,0.6-0.6c0.6-0.5,1.1-1.1,1.7-1.7L-199,251z"/>
	<path class="st6" d="M-199,251l38.3-92.4c-4.8-2-9.6-3.6-14.5-4.8C-183,152-191,151-199,151V251z"/>
	<path class="st7" d="M-199,251V151c-5.6,0-11.1,0.5-16.6,1.4c-0.1,0-0.2,0-0.2,0c-0.6,0.1-1.1,0.2-1.7,0.3c-0.3,0.1-0.7,0.1-1,0.2
		c-0.3,0.1-0.6,0.1-1,0.2c-0.6,0.1-1.1,0.2-1.7,0.4c-0.1,0-0.2,0-0.2,0.1c-5.4,1.3-10.7,3-15.9,5.1L-199,251z"/>
	<path class="st8" d="M-180.5,349.3c0.3-0.1,0.7-0.1,1-0.2s0.6-0.1,1-0.2c0.6-0.1,1.1-0.2,1.7-0.4c0.1,0,0.2,0,0.2-0.1
		c5.4-1.3,10.7-3,15.9-5.1L-199,251v100c5.6,0,11.1-0.5,16.6-1.4c0.1,0,0.2,0,0.2,0C-181.6,349.5-181,349.4-180.5,349.3z"/>
	<path class="st5" d="M-199,251l-70.7-70.7c-0.6,0.6-1.2,1.2-1.8,1.8l0,0c-1,1.1-2,2.1-2.9,3.2c-0.2,0.2-0.4,0.4-0.6,0.6
		c-0.5,0.6-1,1.2-1.5,1.8c-0.6,0.8-1.3,1.6-1.9,2.4c-0.3,0.4-0.6,0.8-1,1.3c-0.8,1-1.5,2.1-2.2,3.1c-0.1,0.2-0.3,0.4-0.4,0.6
		c-3.6,5.4-6.8,11.3-9.4,17.6L-199,251z"/>
	<path class="st6" d="M-199,251l-38.3-92.4c-7.4,3.1-14.4,7-20.9,11.7l-0.1,0.1c-1,0.8-2,1.5-3,2.3c-0.5,0.4-1,0.8-1.5,1.3
		c-0.6,0.5-1.2,1-1.7,1.5c-0.9,0.8-1.9,1.7-2.8,2.5c-0.2,0.2-0.4,0.4-0.6,0.6c-0.6,0.5-1.1,1.1-1.7,1.7L-199,251z"/>
	<g>
		<path class="st9" d="M-235.7,172.3c1.3-2.4,4.4-3.8,7-2.9l24.9,8.1c2.6,0.8,6.9,0.8,9.5,0l24.9-8.1c2.6-0.8,5.8,0.5,7,2.9
			l11.9,23.3c1.3,2.4,4.3,5.5,6.7,6.7l23.3,11.9c2.4,1.3,3.8,4.4,2.9,7l-8.1,24.9c-0.8,2.6-0.8,6.9,0,9.5l8.1,24.9
			c0.8,2.6-0.5,5.8-2.9,7l-23.3,11.9c-2.4,1.3-5.5,4.3-6.7,6.7l-11.9,23.3c-1.3,2.4-4.4,3.8-7,2.9l-24.9-8.1c-2.6-0.8-6.9-0.8-9.5,0
			l-24.9,8.1c-2.6,0.8-5.8-0.5-7-2.9l-11.9-23.3c-1.3-2.4-4.3-5.5-6.7-6.7l-23.3-11.9c-2.4-1.3-3.8-4.4-2.9-7l8.1-24.9
			c0.8-2.6,0.8-6.9,0-9.5l-8.1-24.9c-0.8-2.6,0.5-5.8,2.9-7l23.3-11.9c2.4-1.3,5.5-4.3,6.7-6.7L-235.7,172.3z"/>
	</g>
	<g class="st10">
		<path class="st11" d="M-199,184c0-2.8,2.1-5.7,4.8-6.5l24.9-8.1c2.6-0.8,5.8,0.5,7,2.9l11.9,23.3c1.3,2.4,4.3,5.5,6.7,6.7
			l23.3,11.9c2.4,1.3,3.8,4.4,2.9,7l-8.1,24.9c-0.8,2.6-0.8,6.9,0,9.5l8.1,24.9c0.8,2.6-0.5,5.8-2.9,7l-23.3,11.9
			c-2.4,1.3-5.5,4.3-6.7,6.7l-11.9,23.3c-1.3,2.4-4.4,3.8-7,2.9l-24.9-8.1c-2.6-0.8-4.8-3.8-4.8-6.5V184z"/>
	</g>
	<g>
		<path class="st12" d="M-202.8,164.2c2.1-1.8,5.5-1.8,7.6,0l19.9,17c2.1,1.8,6,3.4,8.8,3.6l26.1,2.1c2.7,0.2,5.2,2.6,5.4,5.4
			l2.1,26.1c0.2,2.7,1.9,6.7,3.6,8.8l17,19.9c1.8,2.1,1.8,5.5,0,7.6l-17,19.9c-1.8,2.1-3.4,6-3.6,8.8l-2.1,26.1
			c-0.2,2.7-2.6,5.2-5.4,5.4l-26.1,2.1c-2.7,0.2-6.7,1.9-8.8,3.6l-19.9,17c-2.1,1.8-5.5,1.8-7.6,0l-19.9-17c-2.1-1.8-6-3.4-8.8-3.6
			l-26.2-2c-2.7-0.2-5.2-2.6-5.4-5.4l-2.1-26.1c-0.2-2.7-1.9-6.7-3.6-8.8l-17-19.9c-1.8-2.1-1.8-5.5,0-7.6l17-19.9
			c1.8-2.1,3.4-6,3.6-8.8l2.2-26.2c0.2-2.7,2.6-5.2,5.4-5.4l26.1-2.1c2.7-0.2,6.7-1.9,8.8-3.6L-202.8,164.2z"/>
	</g>
	<g class="st10">
		<path class="st11" d="M-199,166c0-2.8,1.7-3.5,3.8-1.8l19.9,17c2.1,1.8,6,3.4,8.8,3.6l26.1,2.1c2.7,0.2,5.2,2.6,5.4,5.4l2.1,26.1
			c0.2,2.7,1.9,6.7,3.6,8.8l17,19.9c1.8,2.1,1.8,5.5,0,7.6l-17,19.9c-1.8,2.1-3.4,6-3.6,8.8l-2.1,26.1c-0.2,2.7-2.6,5.2-5.4,5.4
			l-26.1,2.1c-2.7,0.2-6.7,1.9-8.8,3.6l-19.9,17c-2.1,1.8-3.8,1-3.8-1.8V166z"/>
	</g>
	<circle class="st13" cx="-199" cy="251" r="60"/>
	<path class="st14" d="M-184,277.3c0,0-6.7,6.6-15,6.6s-15-6.6-15-6.6"/>
	<path class="st11" d="M-221.5,249.6c4.1,0,7.5-3.5,7.5-7.9s-3.4-7.9-7.5-7.9s-7.5,3.5-7.5,7.9S-225.6,249.6-221.5,249.6"/>
	<path class="st11" d="M-176.5,249.6c4.1,0,7.5-3.5,7.5-7.9s-3.4-7.9-7.5-7.9s-7.5,3.5-7.5,7.9S-180.6,249.6-176.5,249.6"/>
	<path class="st15" d="M-139.6,278.8c-2.1-0.6-4.3-0.9-6.5-0.9c-13.8,0-25,11.2-25,25c0,0.1,0,0.2,0,0.2c-0.8-0.1-1.7-0.2-2.5-0.2
		c-8.3,0-15,6.7-15,15h63.9c10.9-12.1,18.9-26.9,22.9-43.3c-4.7-3-10.3-4.8-16.3-4.8C-126.5,269.8-134.1,273.2-139.6,278.8z"/>
	<path class="st16" d="M-134,218.8c0,0-26.3-10.5-45.3,0.2c-3.6,2-6.6,4.9-8.7,8.1c0,0-5-3.3-10.9-3.3s-10.9,3.3-10.9,3.3l0,0
		c-2.2-3.3-5.1-6.1-8.7-8.1c-19-10.7-45.3-0.2-45.3-0.2s-1.2,32.3,19.3,45.3c12.1,7.7,28.4,2.9,35.6-9.5c2.4-4.1,3.5-8.6,3.5-13
		c0,0-0.3-6.3,6.6-6.5c6.9-0.2,6.6,6.5,6.6,6.5c0,4.4,1.1,8.9,3.5,13c7.2,12.5,23.4,17.2,35.6,9.5C-132.9,251.1-134,218.8-134,218.8
		z"/>
	<circle class="st17" cx="-231.7" cy="241.5" r="19.5"/>
	<circle class="st17" cx="-166.3" cy="241.5" r="19.5"/>
	<path class="st18" d="M-134,218.8c0,0-26.3-10.5-45.3,0.2c-3.6,2-6.6,4.9-8.7,8.1c0,0-5-3.3-10.9-3.3V235c6.9-0.2,6.6,6.5,6.6,6.5
		c0,4.4,1.1,8.9,3.5,13c7.2,12.5,23.4,17.2,35.6,9.5C-132.9,251.1-134,218.8-134,218.8z"/>
	<path class="st15" d="M-287.4,204.3h82.3c0-5.5-4.5-10-10-10c-2.1,0-4,0.6-5.6,1.7c-2.4-11.2-12.4-19.7-24.4-19.7
		c-3.2,0-6.3,0.6-9.1,1.7c-0.8-2.9-2-5.5-3.6-8C-270.1,179.1-280.3,190.8-287.4,204.3z"/>
</g>
</svg>
