<?xml version="1.0" encoding="utf-8"?>
<!-- Generator: Adobe Illustrator 19.0.0, SVG Export Plug-In . SVG Version: 6.00 Build 0)  -->
<svg version="1.1" id="Layer_1" xmlns="http://www.w3.org/2000/svg" xmlns:xlink="http://www.w3.org/1999/xlink" x="0px" y="0px"
	 viewBox="-349 101 300 300" style="enable-background:new -349 101 300 300;" xml:space="preserve">
<style type="text/css">
	.st0{fill:#363738;}
	.st1{opacity:0.5;fill:#492D7C;enable-background:new    ;}
	.st2{fill:#FCF1C9;}
	.st3{fill:#F5D871;}
	.st4{fill:#F8E7A2;}
	.st5{fill:#3390CA;}
	.st6{fill:#37B98D;}
	.st7{opacity:0.3;fill:#363738;enable-background:new    ;}
	.st8{fill:#F6F6F6;}
</style>
<g id="Terra">
	<circle class="st0" cx="-199" cy="251" r="100"/>
	<circle class="st1" cx="-199" cy="251" r="100"/>
	<circle class="st2" cx="-266.8" cy="192.5" r="0.7"/>
	<circle class="st3" cx="-248.5" cy="180.7" r="0.7"/>
	<circle class="st2" cx="-190.6" cy="166.9" r="1"/>
	<circle class="st3" cx="-157.8" cy="166.6" r="0.8"/>
	<circle class="st4" cx="-143.3" cy="175" r="1.3"/>
	<circle class="st2" cx="-165.8" cy="165.4" r="0.6"/>
	<circle class="st4" cx="-181.1" cy="170.4" r="0.9"/>
	<circle class="st2" cx="-267.5" cy="197.3" r="0.8"/>
	<circle class="st2" cx="-281.9" cy="234.9" r="1.3"/>
	<circle class="st4" cx="-290.9" cy="236.3" r="1.4"/>
	<circle class="st2" cx="-256.7" cy="313.2" r="1.2"/>
	<circle class="st2" cx="-114.1" cy="213.3" r="0.8"/>
	<circle class="st3" cx="-110.2" cy="273.9" r="0.7"/>
	<circle class="st3" cx="-121.7" cy="280.7" r="1.3"/>
	<circle class="st4" cx="-224" cy="341.6" r="0.7"/>
	<circle class="st2" cx="-204.9" cy="339.4" r="0.6"/>
	<circle class="st3" cx="-174.3" cy="341.4" r="1.1"/>
	<circle class="st4" cx="-164.4" cy="327.5" r="1.3"/>
	<circle class="st4" cx="-144.8" cy="316.7" r="1.1"/>
	<circle class="st2" cx="-126.9" cy="307.6" r="1"/>
	<circle class="st2" cx="-113.1" cy="290.8" r="1.2"/>
	<circle class="st3" cx="-106.5" cy="228.5" r="1"/>
	<circle class="st2" cx="-121.8" cy="211.7" r="1.5"/>
	<circle class="st4" cx="-278.9" cy="269.2" r="1.1"/>
	<circle class="st2" cx="-288.8" cy="283.4" r="1.4"/>
	<circle class="st2" cx="-164.9" cy="162.7" r="0.8"/>
	<circle class="st2" cx="-146.1" cy="173.9" r="0.6"/>
	<circle class="st2" cx="-111.5" cy="222.5" r="1.4"/>
	<circle class="st4" cx="-286" cy="216.5" r="0.6"/>
	<circle class="st3" cx="-262.8" cy="182.9" r="1"/>
	<circle class="st2" cx="-242.3" cy="179.3" r="0.5"/>
	<circle class="st2" cx="-226.6" cy="171.7" r="1.4"/>
	<circle class="st3" cx="-210" cy="163.1" r="1.2"/>
	<circle class="st2" cx="-192" cy="157.2" r="0.6"/>
	<circle class="st4" cx="-108.9" cy="259" r="0.7"/>
	<circle class="st3" cx="-117.5" cy="288.8" r="1.4"/>
	<circle class="st3" cx="-134.5" cy="304.5" r="0.7"/>
	<circle class="st4" cx="-211.2" cy="334.6" r="1.4"/>
	<circle class="st4" cx="-230.4" cy="330.9" r="0.8"/>
	<circle class="st4" cx="-197.8" cy="164.3" r="0.5"/>
	<circle class="st2" cx="-223.2" cy="165.1" r="0.9"/>
	<circle class="st2" cx="-239.9" cy="173.2" r="0.5"/>
	<circle class="st2" cx="-264.8" cy="204.1" r="0.5"/>
	<circle class="st3" cx="-280.9" cy="227.9" r="1.2"/>
	<circle class="st2" cx="-105.3" cy="263.2" r="1.1"/>
	<circle class="st2" cx="-115.6" cy="243.9" r="0.7"/>
	<circle class="st2" cx="-107.7" cy="274.4" r="0.7"/>
	<circle class="st3" cx="-156.3" cy="335" r="1.4"/>
	<path class="st5" d="M-185.2,177.6c0.6,0,1.1,0,1.7,0c-5-1.1-10.2-1.6-15.5-1.6c-15.6,0-30.1,4.8-42.2,13
		c13.2-7.6,23.3-8.2,38.4-8.2C-196.5,180.8-191.2,177.8-185.2,177.6z"/>
	<path class="st5" d="M-130.9,226.8c-2.3-11-11.8-21.8-17.8-31.5c-8.3-7.5-18.3-13.1-29.4-16.3c3.3,1.5,6.1,3.8,9.1,6.3
		c-5.9,2.2-7.1,0.3-12.7-0.9c-5.8-1.3-6.4-0.5-12.3,2.4c2.8,2.8,3.5,4.7,7.1,4.2c3.4-0.5,5.2-2.3,4.2-5.9c3.9,0.9,11.3,1,14.5,3.3
		c3.1,2.2,5.3,8.6,7.3,11.9c-1.4-1.3-3.7-1.9-5.2-3c-1.1,7.8-7.2,3.2-12.3,4.8c-3.5,1.1-3.2,1.6-6.1,4.5
		c-5.6,5.7-11.4,19.2-18.6,21.6c-7.6,2.5-20.6-8-20.3,5c0.1,2.8,4.6,14.7,6.7,16.4c2.6,2.2,6,1.5,10.1,1.5c-3.7,2.7-5.9,5.3-9.8,4.7
		c-4.9-0.8-8-5.9-11.4-8.6c-4.3-3.4-5.8-2.5-11.4-4.6c-6-2.2-4.1-2.8-8.2-8c-6.1-7.8-12.5-10-7.5-22c3.3-8,13-16,18.5-22.8
		c-1.5,0-3.1-0.8-4.7-0.8c-19.9,13.5-32.9,36.2-32.9,62c0,41.4,33.6,75,75,75c37.5,0,68.5-27.5,74.1-63.4
		C-129.4,263-130.4,229.1-130.9,226.8z M-145.8,290.8c-7.9,10.9-22.4,22-33.4,29.8c-7.1,5-14.9,6.6-15.5-3.8
		c-0.4-6.7,3.7-13.9,0.8-19.1c-2.5-4.4-9.4-6.3-12-10.7c-1.6-2.8-1.7-7.5-2.3-10.8c-2-10.4-0.5-15.1,2.8-25.2
		c13.8,0,32.4-3.4,43.3,7.3c3.1,3,4.3,8.9,7.7,11.5c3,2.2,6.3,0,9.8,1.5C-135.8,275.1-141.9,285.3-145.8,290.8z"/>
	<path class="st6" d="M-168.3,188.3c-3.2-2.3-10.6-2.4-14.5-3.3c1,3.6-0.8,5.4-4.2,5.9c-3.5,0.6-4.3-1.4-7.1-4.2
		c5.8-2.9,6.5-3.7,12.3-2.4c5.7,1.2,6.8,3.1,12.7,0.9c-3-2.4-5.8-4.8-9.1-6.3c-1.6-0.7-3.4-1.2-5.4-1.3c-0.6,0-1.1-0.1-1.7,0
		c-6,0.2-11.3,3.2-17.6,3.2c-15,0-25.2,0.6-38.4,8.2c0,0,0,0-0.1,0l0,0c1.5-0.1,3.1,0.7,4.7,0.8c-5.5,6.7-15.2,14.8-18.5,22.8
		c-5,12,1.4,14.2,7.5,22c4.1,5.3,2.2,5.9,8.2,8c5.7,2,7.1,1.2,11.4,4.6c3.3,2.6,6.4,7.8,11.4,8.6c3.9,0.6,6-2,9.8-4.7
		c-4.1,0-7.5,0.7-10.1-1.5c-2.1-1.8-6.6-13.7-6.7-16.4c-0.2-13,12.7-2.4,20.3-5c7.2-2.4,13-15.9,18.6-21.6c2.9-2.9,2.6-3.4,6.1-4.5
		c5.1-1.5,11.2,3.1,12.3-4.8c1.6,1.1,3.8,1.7,5.2,3C-163,196.9-165.2,190.5-168.3,188.3z"/>
	<path class="st6" d="M-144.8,271.2c-3.5-1.5-6.7,0.7-9.8-1.5c-3.5-2.6-4.6-8.5-7.7-11.5c-10.9-10.7-29.4-7.3-43.3-7.3
		c-3.3,10.2-4.7,14.9-2.8,25.2c0.6,3.3,0.7,8,2.3,10.8c2.6,4.4,9.5,6.3,12,10.7c3,5.2-1.2,12.4-0.8,19.1c0.6,10.4,8.4,8.8,15.5,3.8
		c11-7.8,25.6-19,33.4-29.8C-141.9,285.3-135.8,275.1-144.8,271.2z"/>
	<path class="st6" d="M-143.5,200.6c-1.7-1.8-3.5-3.6-5.3-5.3l0,0l0,0c6,9.7,15.5,20.5,17.8,31.5c0.5,2.4,1.5,36.2,6.1,35.8
		c0.6-3.8,0.9-7.6,0.9-11.6C-124,231.6-131.4,213.9-143.5,200.6z"/>
	<path class="st0" d="M-199,303.8c22.1,0,40-18.9,40-42.1h-80C-239,285-221.1,303.8-199,303.8"/>
	<path class="st0" d="M-229,244.9c5.5,0,10-4.7,10-10.5s-4.5-10.5-10-10.5s-10,4.7-10,10.5S-234.5,244.9-229,244.9"/>
	<path class="st0" d="M-169,244.9c5.5,0,10-4.7,10-10.5s-4.5-10.5-10-10.5s-10,4.7-10,10.5S-174.5,244.9-169,244.9"/>
	<path class="st7" d="M-199,176c41.4,0,75,33.6,75,75s-33.6,75-75,75C-157.6,326-157.6,176-199,176z"/>
	<path class="st8" d="M-229.5,251.8c-1,0-2,0.3-2.8,0.9c-1.2-5.6-6.2-9.8-12.2-9.8c-1.6,0-3.1,0.3-4.6,0.9c-1.8-6.3-7.6-11-14.4-11
		c-8.3,0-15,6.7-15,15c0,0.5,0,1.1,0.1,1.6h-0.1c-4.1,0-7.5,3.4-7.5,7.5h61.5C-224.5,254.1-226.7,251.8-229.5,251.8z"/>
	<path class="st8" d="M-124.5,214.7c0-0.1,0-0.2,0-0.3c0-4.1-3.4-7.5-7.5-7.5c-0.6,0-1.1,0.1-1.6,0.2c-1.5-6.7-7.5-11.8-14.6-11.8
		c-4.2,0-8,1.7-10.7,4.5c-1-0.3-2.1-0.4-3.3-0.4c-6.9,0-12.5,5.6-12.5,12.5v0.1c-0.4-0.1-0.8-0.1-1.3-0.1c-4.1,0-7.5,3.4-7.5,7.5
		h62.4C-121.1,217.2-122.6,215.3-124.5,214.7z"/>
	<path class="st8" d="M-142,305.1c-0.2,0-0.4,0-0.5,0c0-0.2,0-0.3,0-0.5c0-6.9-5.6-12.5-12.5-12.5c-0.2,0-0.3,0-0.5,0
		c-2.6-4.4-7.4-7.3-12.8-7.3c-7.7,0-14,5.8-14.9,13.2c-1.6-1-3.4-1.6-5.5-1.6c-4.8,0-8.9,3.4-9.8,8c-0.6-0.3-1.3-0.5-2.1-0.5
		c-2.8,0-5,2.2-5,5h70.1C-136.7,306.7-139.2,305.1-142,305.1z"/>
	<path class="st7" d="M-124.5,214.7c0-0.1,0-0.2,0-0.3c0-3.3-2.1-6.1-5.1-7.1c-0.8-0.3-1.6-0.4-2.4-0.4c-0.6,0-1.1,0.1-1.6,0.2
		c-1.5-6.7-7.5-11.8-14.6-11.8c-4.2,0-8,1.7-10.7,4.5c-1-0.3-2.1-0.4-3.3-0.4c-1.6,0-3.2,0.3-4.7,0.9c2,5.7,3.7,12.2,4.9,19.1h39.5
		h1.3C-121.1,217.2-122.6,215.3-124.5,214.7z"/>
	<path class="st7" d="M-139.2,305.7c-0.9-0.3-1.8-0.5-2.8-0.5c-0.2,0-0.4,0-0.5,0c0-0.2,0-0.3,0-0.5c0-6.9-5.6-12.5-12.5-12.5
		c-0.2,0-0.3,0-0.5,0c-1.7-2.8-4.2-4.9-7.2-6.2c-1.7,8.7-4.1,16.5-7.2,23h27h7.4C-136.3,307.5-137.6,306.3-139.2,305.7z"/>
</g>
</svg>
