<svg xmlns="http://www.w3.org/2000/svg" viewBox="0 0 612 376.4683"><title>CE_stacked_logo</title><rect width="612" height="376.4683" fill="none"/><polygon points="389.252 184.399 457.295 212.583 517.808 66.491 389.252 184.399" fill="#ffc40c"/><polygon points="545.509 192.07 477.466 163.886 416.953 309.977 545.509 192.07" fill="#faa01c"/><path d="M191.0585,289.1679c-11.5821,0-17.2763-9.2659-17.2763-20.848,0-11.2928,5.9835-19.98,16.9869-19.98a23.52,23.52,0,0,1,13.1271,3.6686l6.8529-11.294c-5.1154-3.378-11.2927-5.2111-19.6906-5.2111-22.3918,0-34.4041,15.7327-34.4041,33.2027,0,17.567,11.6261,33.3965,34.1147,33.3965,9.46,0,17.47-3.9581,20.7525-6.8529l-6.371-10.9079A21.9041,21.9041,0,0,1,191.0585,289.1679Z" transform="translate(-90.0552 -117.5063)"/><path d="M230.7344,269.768c.9649-1.2543,4.2474-5.1155,8.4934-5.1155,4.1506,0,5.6955,2.0268,5.6955,6.37v29.9215h14.6708V268.0305c0-8.7841-3.7643-15.54-14.2858-15.54a19.372,19.372,0,0,0-14.5739,6.5635v-23.55H216.0636v65.44h14.6708Z" transform="translate(-90.0552 -117.5063)"/><path d="M288.7484,252.49c-16.6989,0-24.2274,12.5483-24.2274,24.9985s7.6254,24.6137,24.2274,24.6137c16.6975,0,24.323-12.8378,24.323-25.0955C313.0714,264.5556,305.3491,252.49,288.7484,252.49Zm.2893,38.7043c-6.5635,0-8.9766-5.791-8.9766-14.1876,0-8.301,1.9313-13.8027,8.4935-13.8027s8.9766,5.888,8.9766,14.2845S295.6013,291.1947,289.0377,291.1947Z" transform="translate(-90.0552 -117.5063)"/><path d="M341.4558,302.1026c16.6976,0,24.323-12.8378,24.323-25.0955,0-12.4515-7.7223-24.5167-24.323-24.5167-16.6989,0-24.2274,12.5483-24.2274,24.9985S324.8538,302.1026,341.4558,302.1026Zm-.1938-38.8982c6.5636,0,8.9766,5.888,8.9766,14.2845s-1.93,13.7058-8.4935,13.7058-8.9765-5.791-8.9765-14.1876C332.7686,268.7061,334.7,263.2044,341.262,263.2044Z" transform="translate(-90.0552 -117.5063)"/><path d="M384.6594,291.3885c-5.1154,0-9.7478-2.6068-11.679-3.8611l-4.7292,10.1353c2.8962,1.93,8.3979,4.44,17.2776,4.44,12.0653,0,19.4-5.2124,19.4-15.54,0-7.9147-5.0186-11.39-12.3546-14.3814-5.4048-2.1237-9.9416-2.7024-9.9416-5.5017,0-2.1237,1.7375-3.4749,6.08-3.4749a21.5211,21.5211,0,0,1,10.0385,2.7993l4.8261-9.9416c-2.3162-1.2556-7.3348-3.5717-15.54-3.5717-11.0021,0-18.435,5.6955-18.435,14.9614,0,6.9485,3.4749,10.6172,9.7491,13.7058,6.6591,3.378,12.45,3.9567,12.45,6.756C391.8017,290.23,389.2931,291.3885,384.6594,291.3885Z" transform="translate(-90.0552 -117.5063)"/><path d="M432.8482,252.49c-13.32,0-24.0336,9.3628-24.0336,24.6123,0,15.3477,9.3628,25,25.4817,25,10.0384,0,14.7676-2.7024,18.05-4.5368l-4.5368-9.169a24.0948,24.0948,0,0,1-12.0652,2.9917c-6.95,0-10.4247-4.0536-11.1-10.1353h29.149C455.435,263.0119,448.1958,252.49,432.8482,252.49Zm-8.59,19.1106c.8694-5.6942,3.5718-8.7828,8.3979-8.7828,5.1154,0,7.0454,3.8611,7.1423,8.7828Z" transform="translate(-90.0552 -117.5063)"/><polygon points="91.283 238.407 117.493 238.407 117.493 226.438 91.283 226.438 91.283 213.987 120.413 213.987 120.413 201.246 75.84 201.246 75.84 265.529 121.089 265.529 121.089 252.788 91.283 252.788 91.283 238.407"/><path d="M246.4461,334.5819a18.9064,18.9064,0,0,0-14.8645,6.95v-5.7911H217.2v47.2947h14.6721V351.86c1.5437-2.0268,4.7292-5.1155,8.4935-5.1155,4.15,0,5.6942,2.0268,5.6942,6.37v29.9215h14.672V350.122C260.7319,341.3379,256.8708,334.5819,246.4461,334.5819Z" transform="translate(-90.0552 -117.5063)"/><path d="M289.1666,334.5819c-13.3195,0-24.0336,9.3628-24.0336,24.6123,0,15.3477,9.3628,25,25.4817,25,10.0384,0,14.7676-2.7024,18.05-4.5368l-4.5368-9.169a24.0949,24.0949,0,0,1-12.0652,2.9917c-6.95,0-10.4247-4.0536-11.1-10.1353h29.1491C311.7534,345.1035,304.5143,334.5819,289.1666,334.5819Zm-8.59,19.1106c.8694-5.6942,3.5718-8.7828,8.3979-8.7828,5.1155,0,7.0454,3.8611,7.1423,8.7828Z" transform="translate(-90.0552 -117.5063)"/><path d="M342.1709,334.5819c-5.7911,0-9.6522,3.7642-11.7746,7.336v-6.1773H315.7242v47.2947h14.6721V353.7894c1.3512-2.2193,4.6323-6.37,9.9415-6.37a10.2135,10.2135,0,0,1,5.2124,1.1574l3.4736-12.547C347.8663,335.3544,345.8395,334.5819,342.1709,334.5819Z" transform="translate(-90.0552 -117.5063)"/><path d="M371.1107,334.5819c-13.6089,0-21.5237,6.95-21.5237,17.1807a15.2091,15.2091,0,0,0,8.301,13.9952,10.4281,10.4281,0,0,0-5.4048,9.3628,8.12,8.12,0,0,0,4.1492,7.2391c-4.6324,2.51-7.9135,6.1773-7.9135,11.39,0,8.301,7.6241,12.3546,21.33,12.3546,16.602,0,26.8329-7.336,26.8329-17.47,0-13.7058-11.8714-14.092-21.5236-14.5752-7.7223-.3862-10.4247-.7724-10.4247-3.2811a3.12,3.12,0,0,1,1.3512-2.413,36.7883,36.7883,0,0,0,5.6955.4818c13.7058,0,20.9449-6.9485,20.9449-17.0838a15.3505,15.3505,0,0,0-1.545-6.6591h6.2742v-9.3629H379.99A31.4045,31.4045,0,0,0,371.1107,334.5819Zm-5.5973,50.77a51.7635,51.7635,0,0,0,5.6942.58c7.336.5787,11.1.2894,11.1,4.5355,0,3.3793-3.9581,6.1773-11.2928,6.1773-5.9848,0-8.301-2.3162-8.301-5.888A6.3487,6.3487,0,0,1,365.5134,385.3515Zm5.6942-25.7711c-4.7293,0-7.5285-2.7024-7.5285-7.8178s2.7992-7.9148,7.5285-7.9148,7.6254,2.7993,7.6254,7.9148S375.9368,359.58,371.2076,359.58Z" transform="translate(-90.0552 -117.5063)"/><path d="M427.4614,364.89h-.2907l-9.7478-29.1491h-15.54l17.6638,46.04-1.6418,4.5355c-1.6406,4.44-3.7643,7.4329-10.3278,7.4329a15.1323,15.1323,0,0,1-4.9217-.58l-2.1237,11.5834a30.4717,30.4717,0,0,0,8.2041.965c13.32,0,18.5319-6.0805,22.9718-18.0488l19.3044-51.9284h-14.96Z" transform="translate(-90.0552 -117.5063)"/></svg>