<?xml version="1.0" encoding="utf-8"?>
<!-- Generator: Adobe Illustrator 16.0.0, SVG Export Plug-In . SVG Version: 6.00 Build 0)  -->
<!DOCTYPE svg PUBLIC "-//W3C//DTD SVG 1.0//EN" "http://www.w3.org/TR/2001/REC-SVG-20010904/DTD/svg10.dtd">
<svg version="1.0" id="Layer_1" xmlns="http://www.w3.org/2000/svg" xmlns:xlink="http://www.w3.org/1999/xlink" x="0px" y="0px"
	 width="382.469px" height="640px" viewBox="0 0 382.469 640" enable-background="new 0 0 382.469 640" xml:space="preserve">
<path fill="#dddddd" d="M373.792,556.465L137.249,317.129L373.44,83.711c5.664-5.645,8.887-13.379,8.887-21.27
	c0-8.027-3.105-15.557-8.77-21.211L341.077,8.76C335.433,3.115,327.913,0,319.905,0c-7.91,0-15.371,3.066-21.035,8.633
	L8.851,295.898c-5.605,5.527-8.848,13.271-8.848,21.221c-0.117,7.695,3.066,15.527,8.73,21.191l290.059,292.822
	c5.547,5.605,13.262,8.828,21.152,8.867c8.086,0,15.586-3.105,21.25-8.73l32.52-32.539
	C385.354,587.09,385.394,568.125,373.792,556.465z"/>
</svg>
