<?xml version="1.0" encoding="utf-8"?>
<!-- Generator: Adobe Illustrator 16.0.0, SVG Export Plug-In . SVG Version: 6.00 Build 0)  -->
<!DOCTYPE svg PUBLIC "-//W3C//DTD SVG 1.0//EN" "http://www.w3.org/TR/2001/REC-SVG-20010904/DTD/svg10.dtd">
<svg version="1.0" id="Layer_1" xmlns="http://www.w3.org/2000/svg" xmlns:xlink="http://www.w3.org/1999/xlink" x="0px" y="0px"
	 width="382.469px" height="640px" viewBox="0 0 382.469 640" enable-background="new 0 0 382.469 640" xml:space="preserve">
<path fill="#dddddd" d="M8.677,556.465L245.22,317.129L9.028,83.711c-5.664-5.645-8.887-13.379-8.887-21.27
	c0-8.027,3.105-15.557,8.77-21.211L41.392,8.76C47.036,3.115,54.556,0,62.563,0c7.91,0,15.371,3.066,21.035,8.633l290.02,287.266
	c5.605,5.527,8.848,13.271,8.848,21.221c0.117,7.695-3.066,15.527-8.73,21.191L83.677,631.133
	c-5.547,5.605-13.262,8.828-21.152,8.867c-8.086,0-15.586-3.105-21.25-8.73L8.755,598.73C-2.886,587.09-2.925,568.125,8.677,556.465
	z"/>
</svg>
