<svg xmlns="http://www.w3.org/2000/svg" viewBox="0 0 684 233.3044"><title>CE_horizontal_logo</title><path d="M132.6076,331.8069c-9.0407,0-13.4855-7.2328-13.4855-16.2736,0-8.8149,4.6706-15.5959,13.26-15.5959a18.3586,18.3586,0,0,1,10.2468,2.8637l5.3492-8.816c-3.993-2.6367-8.8149-4.0676-15.37-4.0676-17.4785,0-26.8551,12.2806-26.8551,25.9173,0,13.7124,9.0751,26.0686,26.6292,26.0686,7.3841,0,13.6368-3.09,16.199-5.3493l-4.9731-8.5144A17.0977,17.0977,0,0,1,132.6076,331.8069Z" transform="translate(-53.7667 -190.7538)"/><path d="M163.5777,316.6637c.7532-.9791,3.3155-3.993,6.63-3.993,3.24,0,4.4458,1.582,4.4458,4.9721v23.3561H186.105V315.3075c0-6.8568-2.9383-12.13-11.1512-12.13a15.1215,15.1215,0,0,0-11.3761,5.1233v-18.383H152.1261v51.0814h11.4516Z" transform="translate(-53.7667 -190.7538)"/><path d="M208.8622,303.1772c-13.0348,0-18.9114,9.7949-18.9114,19.5133s5.9523,19.2129,18.9114,19.2129c13.0337,0,18.986-10.0209,18.986-19.589C227.8482,312.595,221.82,303.1772,208.8622,303.1772Zm.2259,30.2117c-5.1234,0-7.007-4.52-7.007-11.0745,0-6.48,1.5075-10.7741,6.63-10.7741s7.0069,4.596,7.0069,11.15S214.2114,333.3889,209.0881,333.3889Z" transform="translate(-53.7667 -190.7538)"/><path d="M250.0044,341.9034c13.0338,0,18.986-10.0209,18.986-19.589,0-9.7194-6.0278-19.1372-18.986-19.1372-13.0347,0-18.9113,9.7949-18.9113,19.5133S237.0453,341.9034,250.0044,341.9034Zm-.1512-30.3631c5.1234,0,7.0069,4.596,7.0069,11.15s-1.5064,10.6984-6.63,10.6984-7.0069-4.52-7.0069-11.0745C243.2234,315.8348,244.7308,311.54,249.8532,311.54Z" transform="translate(-53.7667 -190.7538)"/><path d="M283.7283,333.54a17.8482,17.8482,0,0,1-9.1164-3.0139l-3.6915,7.9114c2.2607,1.5065,6.5552,3.4657,13.4865,3.4657,9.4178,0,15.1432-4.0687,15.1432-12.13,0-6.1781-3.9174-8.8906-9.6438-11.2259-4.2188-1.6577-7.76-2.1094-7.76-4.2945,0-1.6577,1.3562-2.7124,4.7462-2.7124a16.7975,16.7975,0,0,1,7.8358,2.1851l3.7671-7.76a24.7243,24.7243,0,0,0-12.13-2.788c-8.588,0-14.39,4.4457-14.39,11.6785,0,5.4239,2.7124,8.2875,7.61,10.6985,5.198,2.6368,9.7183,3.0885,9.7183,5.2736C289.3033,332.6357,287.3452,333.54,283.7283,333.54Z" transform="translate(-53.7667 -190.7538)"/><path d="M321.3433,303.1772c-10.3969,0-18.76,7.3084-18.76,19.2118,0,11.98,7.3085,19.5144,19.89,19.5144,7.8358,0,11.5273-2.1095,14.0895-3.5413l-3.5413-7.1572a18.8075,18.8075,0,0,1-9.4179,2.3353c-5.4248,0-8.1373-3.1642-8.6646-7.9114h22.7531C338.9741,311.39,333.3234,303.1772,321.3433,303.1772Zm-6.7054,14.9173c.6786-4.4448,2.7881-6.8557,6.5552-6.8557,3.993,0,5.4995,3.0139,5.5751,6.8557Z" transform="translate(-53.7667 -190.7538)"/><polygon points="316.785 129.898 337.244 129.898 337.244 120.555 316.785 120.555 316.785 110.836 339.523 110.836 339.523 100.891 304.73 100.891 304.73 151.069 340.051 151.069 340.051 141.123 316.785 141.123 316.785 129.898"/><path d="M421.3735,304.0008a14.7578,14.7578,0,0,0-11.6029,5.4248v-4.52H398.5447v36.9173h11.4528V317.4873c1.2049-1.5821,3.6915-3.993,6.63-3.993,3.24,0,4.4447,1.582,4.4447,4.9721v23.3561h11.4527V316.131C432.5247,309.2743,429.5108,304.0008,421.3735,304.0008Z" transform="translate(-53.7667 -190.7538)"/><path d="M454.72,304.0008c-10.397,0-18.76,7.3084-18.76,19.2118,0,11.98,7.3084,19.5144,19.89,19.5144,7.8358,0,11.5273-2.1095,14.09-3.5413l-3.5413-7.1572a18.8067,18.8067,0,0,1-9.4178,2.3353c-5.4249,0-8.1373-3.1642-8.6647-7.9114h22.7532C472.351,312.2137,466.7,304.0008,454.72,304.0008Zm-6.7055,14.9173c.6787-4.4448,2.7881-6.8557,6.5552-6.8557,3.9931,0,5.4995,3.0139,5.5751,6.8557Z" transform="translate(-53.7667 -190.7538)"/><path d="M496.0942,304.0008c-4.52,0-7.5343,2.9382-9.191,5.7263v-4.8219H475.45v36.9173h11.4527V318.9937c1.0547-1.7323,3.6159-4.9721,7.76-4.9721a7.9721,7.9721,0,0,1,4.0687.9035l2.7114-9.794A10.3449,10.3449,0,0,0,496.0942,304.0008Z" transform="translate(-53.7667 -190.7538)"/><path d="M518.6839,304.0008c-10.6228,0-16.8009,5.4248-16.8009,13.4108a11.8719,11.8719,0,0,0,6.48,10.9244,8.14,8.14,0,0,0-4.2189,7.3084,6.338,6.338,0,0,0,3.2388,5.6507c-3.6159,1.9592-6.1771,4.8219-6.1771,8.8905,0,6.48,5.9512,9.6438,16.65,9.6438,12.9591,0,20.9452-5.7264,20.9452-13.6368,0-10.6985-9.2667-11-16.8009-11.3771-6.0279-.3015-8.1373-.603-8.1373-2.5611a2.4356,2.4356,0,0,1,1.0547-1.8836,28.7192,28.7192,0,0,0,4.4458.3761c10.6984,0,16.3491-5.4238,16.3491-13.3353a11.9828,11.9828,0,0,0-1.2059-5.1979h4.8975v-7.3085H525.6152A24.5135,24.5135,0,0,0,518.6839,304.0008Zm-4.3691,39.63a40.42,40.42,0,0,0,4.4448.4528c5.7263.4517,8.6646.2258,8.6646,3.54,0,2.6379-3.0895,4.8219-8.8149,4.8219-4.6716,0-6.4795-1.808-6.4795-4.596A4.9557,4.9557,0,0,1,514.3148,343.63Zm4.4448-20.1163c-3.6916,0-5.8766-2.1094-5.8766-6.1025s2.185-6.1781,5.8766-6.1781,5.9522,2.1851,5.9522,6.1781S522.4511,323.5141,518.76,323.5141Z" transform="translate(-53.7667 -190.7538)"/><path d="M562.67,327.6584h-.2269l-7.6089-22.7532h-12.13l13.788,35.9382-1.2816,3.54c-1.2806,3.4657-2.9383,5.802-8.0617,5.802a11.8116,11.8116,0,0,1-3.8417-.4527l-1.6577,9.0417a23.7844,23.7844,0,0,0,6.4039.7533c10.397,0,14.4656-4.7463,17.9313-14.0885l15.0686-40.5342H569.3755Z" transform="translate(-53.7667 -190.7538)"/><rect width="684" height="233.3044" fill="none"/><polygon points="547.09 114.33 583.387 129.364 615.667 51.433 547.09 114.33" fill="#ffc415"/><polygon points="630.444 118.422 594.147 103.387 561.867 181.318 630.444 118.422" fill="#f9a01c"/></svg>