<?xml version="1.0" encoding="utf-8"?>
<!-- Generator: Adobe Illustrator 19.1.0, SVG Export Plug-In . SVG Version: 6.00 Build 0)  -->
<svg version="1.1" id="Layer_1" xmlns="http://www.w3.org/2000/svg" xmlns:xlink="http://www.w3.org/1999/xlink" x="0px" y="0px"
	 viewBox="0 0 478.9 243.5" style="enable-background:new 0 0 478.9 243.5;" xml:space="preserve">
<style type="text/css">
	.st0{fill:#FFC40C;}
	.st1{fill:#FAA01C;}
	.st2{fill:#FFFFFF;}
</style>
<g>
	<polygon class="st0" points="322.7,117.9 390.7,146.1 451.2,0 	"/>
	<polygon class="st1" points="478.9,125.6 410.9,97.4 350.4,243.5 	"/>
</g>
<path class="st2" d="M34.4,105.2c-11.6,0-17.3-9.3-17.3-20.8c0-11.3,6-20,17-20c5.8,0,9.7,1.5,13.1,3.7l6.9-11.3
	c-5.1-3.4-11.3-5.2-19.7-5.2C12,51.5,0,67.2,0,84.7c0,17.6,11.6,33.4,34.1,33.4c9.5,0,17.5-4,20.8-6.9l-6.4-10.9
	C45.3,102.7,41.4,105.2,34.4,105.2z"/>
<path class="st2" d="M74.1,85.8c1-1.3,4.2-5.1,8.5-5.1c4.2,0,5.7,2,5.7,6.4v29.9h14.7V84c0-8.8-3.8-15.5-14.3-15.5
	c-7.6,0-12.1,4-14.6,6.6V51.5H59.4v65.4h14.7V85.8z"/>
<path class="st2" d="M132.1,68.5c-16.7,0-24.2,12.5-24.2,25c0,12.5,7.6,24.6,24.2,24.6c16.7,0,24.3-12.8,24.3-25.1
	C156.4,80.6,148.7,68.5,132.1,68.5z M132.4,107.2c-6.6,0-9-5.8-9-14.2c0-8.3,1.9-13.8,8.5-13.8c6.6,0,9,5.9,9,14.3
	C140.9,101.9,138.9,107.2,132.4,107.2z"/>
<path class="st2" d="M184.8,118.1c16.7,0,24.3-12.8,24.3-25.1c0-12.5-7.7-24.5-24.3-24.5c-16.7,0-24.2,12.5-24.2,25
	C160.6,105.9,168.2,118.1,184.8,118.1z M184.6,79.2c6.6,0,9,5.9,9,14.3c0,8.4-1.9,13.7-8.5,13.7c-6.6,0-9-5.8-9-14.2
	C176.1,84.7,178,79.2,184.6,79.2z"/>
<path class="st2" d="M228,107.4c-5.1,0-9.7-2.6-11.7-3.9l-4.7,10.1c2.9,1.9,8.4,4.4,17.3,4.4c12.1,0,19.4-5.2,19.4-15.5
	c0-7.9-5-11.4-12.4-14.4c-5.4-2.1-9.9-2.7-9.9-5.5c0-2.1,1.7-3.5,6.1-3.5c4.3,0,8.1,1.7,10,2.8l4.8-9.9c-2.3-1.3-7.3-3.6-15.5-3.6
	c-11,0-18.4,5.7-18.4,15c0,6.9,3.5,10.6,9.7,13.7c6.7,3.4,12.5,4,12.5,6.8C235.1,106.2,232.6,107.4,228,107.4z"/>
<path class="st2" d="M276.2,68.5c-13.3,0-24,9.4-24,24.6c0,15.3,9.4,25,25.5,25c10,0,14.8-2.7,18.1-4.5l-4.5-9.2
	c-2.4,1.2-5.7,3-12.1,3c-6.9,0-10.4-4.1-11.1-10.1h29.1C298.8,79,291.5,68.5,276.2,68.5z M267.6,87.6c0.9-5.7,3.6-8.8,8.4-8.8
	c5.1,0,7,3.9,7.1,8.8H267.6z"/>
<polygon class="st2" points="24.7,171.9 50.9,171.9 50.9,159.9 24.7,159.9 24.7,147.5 53.8,147.5 53.8,134.8 9.2,134.8 9.2,199 
	54.5,199 54.5,186.3 24.7,186.3 "/>
<path class="st2" d="M89.8,150.6c-7,0-11.7,3.3-14.9,6.9v-5.8H60.5V199h14.7v-31.2c1.5-2,4.7-5.1,8.5-5.1c4.2,0,5.7,2,5.7,6.4V199
	h14.7v-32.9C104.1,157.3,100.2,150.6,89.8,150.6z"/>
<path class="st2" d="M132.5,150.6c-13.3,0-24,9.4-24,24.6c0,15.3,9.4,25,25.5,25c10,0,14.8-2.7,18.1-4.5l-4.5-9.2
	c-2.4,1.2-5.7,3-12.1,3c-6.9,0-10.4-4.1-11.1-10.1h29.1C155.1,161.1,147.9,150.6,132.5,150.6z M123.9,169.7c0.9-5.7,3.6-8.8,8.4-8.8
	c5.1,0,7,3.9,7.1,8.8H123.9z"/>
<path class="st2" d="M185.5,150.6c-5.8,0-9.7,3.8-11.8,7.3v-6.2h-14.7V199h14.7v-29.2c1.4-2.2,4.6-6.4,9.9-6.4
	c2.8,0,4.3,0.7,5.2,1.2l3.5-12.5C191.2,151.4,189.2,150.6,185.5,150.6z"/>
<path class="st2" d="M214.5,150.6c-13.6,0-21.5,6.9-21.5,17.2c0,6.3,3,11.1,8.3,14c-2.9,1.7-5.4,4.6-5.4,9.4c0,3.3,1.5,5.6,4.1,7.2
	c-4.6,2.5-7.9,6.2-7.9,11.4c0,8.3,7.6,12.4,21.3,12.4c16.6,0,26.8-7.3,26.8-17.5c0-13.7-11.9-14.1-21.5-14.6
	c-7.7-0.4-10.4-0.8-10.4-3.3c0-1.1,0.6-1.7,1.4-2.4c1.8,0.3,3.8,0.5,5.7,0.5c13.7,0,20.9-6.9,20.9-17.1c0-2.4-0.6-4.6-1.5-6.7h6.3
	v-9.4h-17.7C220.7,151,217.7,150.6,214.5,150.6z M208.9,201.4c1.7,0.3,3.8,0.5,5.7,0.6c7.3,0.6,11.1,0.3,11.1,4.5
	c0,3.4-4,6.2-11.3,6.2c-6,0-8.3-2.3-8.3-5.9C206.1,204.3,207,202.8,208.9,201.4z M214.6,175.6c-4.7,0-7.5-2.7-7.5-7.8
	c0-5.1,2.8-7.9,7.5-7.9c4.7,0,7.6,2.8,7.6,7.9C222.2,172.9,219.3,175.6,214.6,175.6z"/>
<path class="st2" d="M270.8,180.9h-0.3l-9.7-29.1h-15.5l17.7,46l-1.6,4.5c-1.6,4.4-3.8,7.4-10.3,7.4c-3.1,0-4.2-0.4-4.9-0.6
	l-2.1,11.6c1.1,0.3,3.8,1,8.2,1c13.3,0,18.5-6.1,23-18l19.3-51.9h-15L270.8,180.9z"/>
</svg>
